<?xml version="1.0" encoding="UTF-8" standalone="no"?>
<!DOCTYPE svg PUBLIC "-//W3C//DTD SVG 1.1//EN"
 "http://www.w3.org/Graphics/SVG/1.1/DTD/svg11.dtd">
<!-- Generated by graphviz version 2.38.0 (20140413.2041)
 -->
<!-- Title: complejidad2 Pages: 1 -->
<svg width="196pt" height="548pt"
 viewBox="0.00 0.00 196.00 548.00" xmlns="http://www.w3.org/2000/svg" xmlns:xlink="http://www.w3.org/1999/xlink">
<g id="graph0" class="graph" transform="scale(1 1) rotate(0) translate(4 544)">
<title>complejidad2</title>
<polygon fill="white" stroke="none" points="-4,4 -4,-544 192,-544 192,4 -4,4"/>
<!-- I -->
<g id="node1" class="node"><title>I</title>
<ellipse fill="none" stroke="black" cx="94" cy="-522" rx="27" ry="18"/>
<text text-anchor="middle" x="94" y="-518.3" font-family="Times New Roman,serif" font-size="14.00">I</text>
</g>
<!-- 1 -->
<g id="node2" class="node"><title>1</title>
<ellipse fill="none" stroke="black" cx="94" cy="-450" rx="27" ry="18"/>
<text text-anchor="middle" x="94" y="-446.3" font-family="Times New Roman,serif" font-size="14.00">1</text>
</g>
<!-- I&#45;&gt;1 -->
<g id="edge1" class="edge"><title>I&#45;&gt;1</title>
<path fill="none" stroke="black" d="M94,-503.697C94,-495.983 94,-486.712 94,-478.112"/>
<polygon fill="black" stroke="black" points="97.5001,-478.104 94,-468.104 90.5001,-478.104 97.5001,-478.104"/>
</g>
<!-- 2 -->
<g id="node3" class="node"><title>2</title>
<ellipse fill="none" stroke="black" cx="94" cy="-378" rx="27" ry="18"/>
<text text-anchor="middle" x="94" y="-374.3" font-family="Times New Roman,serif" font-size="14.00">2</text>
</g>
<!-- 1&#45;&gt;2 -->
<g id="edge2" class="edge"><title>1&#45;&gt;2</title>
<path fill="none" stroke="black" d="M94,-431.697C94,-423.983 94,-414.712 94,-406.112"/>
<polygon fill="black" stroke="black" points="97.5001,-406.104 94,-396.104 90.5001,-406.104 97.5001,-406.104"/>
</g>
<!-- 3 -->
<g id="node4" class="node"><title>3</title>
<ellipse fill="none" stroke="black" cx="39" cy="-306" rx="27" ry="18"/>
<text text-anchor="middle" x="39" y="-302.3" font-family="Times New Roman,serif" font-size="14.00">3</text>
</g>
<!-- 2&#45;&gt;3 -->
<g id="edge3" class="edge"><title>2&#45;&gt;3</title>
<path fill="none" stroke="black" d="M82.0658,-361.811C74.7864,-352.546 65.3374,-340.52 57.1456,-330.094"/>
<polygon fill="black" stroke="black" points="59.8413,-327.86 50.9109,-322.159 54.337,-332.185 59.8413,-327.86"/>
</g>
<!-- 5 -->
<g id="node5" class="node"><title>5</title>
<ellipse fill="none" stroke="black" cx="149" cy="-306" rx="27" ry="18"/>
<text text-anchor="middle" x="149" y="-302.3" font-family="Times New Roman,serif" font-size="14.00">5</text>
</g>
<!-- 2&#45;&gt;5 -->
<g id="edge4" class="edge"><title>2&#45;&gt;5</title>
<path fill="none" stroke="black" d="M105.934,-361.811C113.214,-352.546 122.663,-340.52 130.854,-330.094"/>
<polygon fill="black" stroke="black" points="133.663,-332.185 137.089,-322.159 128.159,-327.86 133.663,-332.185"/>
</g>
<!-- 4 -->
<g id="node6" class="node"><title>4</title>
<ellipse fill="none" stroke="black" cx="58" cy="-234" rx="27" ry="18"/>
<text text-anchor="middle" x="58" y="-230.3" font-family="Times New Roman,serif" font-size="14.00">4</text>
</g>
<!-- 3&#45;&gt;4 -->
<g id="edge5" class="edge"><title>3&#45;&gt;4</title>
<path fill="none" stroke="black" d="M43.5994,-288.055C45.7465,-280.145 48.3535,-270.54 50.7561,-261.688"/>
<polygon fill="black" stroke="black" points="54.2012,-262.357 53.443,-251.789 47.4456,-260.523 54.2012,-262.357"/>
</g>
<!-- 6 -->
<g id="node7" class="node"><title>6</title>
<ellipse fill="none" stroke="black" cx="149" cy="-234" rx="27" ry="18"/>
<text text-anchor="middle" x="149" y="-230.3" font-family="Times New Roman,serif" font-size="14.00">6</text>
</g>
<!-- 5&#45;&gt;6 -->
<g id="edge7" class="edge"><title>5&#45;&gt;6</title>
<path fill="none" stroke="black" d="M149,-287.697C149,-279.983 149,-270.712 149,-262.112"/>
<polygon fill="black" stroke="black" points="152.5,-262.104 149,-252.104 145.5,-262.104 152.5,-262.104"/>
</g>
<!-- 4&#45;&gt;2 -->
<g id="edge6" class="edge"><title>4&#45;&gt;2</title>
<path fill="none" stroke="black" d="M63.7905,-251.583C67.2993,-261.969 71.7165,-275.675 75,-288 80.4564,-308.482 85.4119,-331.938 88.893,-349.627"/>
<polygon fill="black" stroke="black" points="85.5282,-350.663 90.8612,-359.817 92.4012,-349.335 85.5282,-350.663"/>
</g>
<!-- 7 -->
<g id="node8" class="node"><title>7</title>
<ellipse fill="none" stroke="black" cx="77" cy="-162" rx="27" ry="18"/>
<text text-anchor="middle" x="77" y="-158.3" font-family="Times New Roman,serif" font-size="14.00">7</text>
</g>
<!-- 6&#45;&gt;7 -->
<g id="edge8" class="edge"><title>6&#45;&gt;7</title>
<path fill="none" stroke="black" d="M134.43,-218.834C124.25,-208.938 110.476,-195.546 98.9694,-184.359"/>
<polygon fill="black" stroke="black" points="101.405,-181.846 91.7957,-177.385 96.5259,-186.865 101.405,-181.846"/>
</g>
<!-- 12 -->
<g id="node9" class="node"><title>12</title>
<ellipse fill="none" stroke="black" cx="149" cy="-162" rx="27" ry="18"/>
<text text-anchor="middle" x="149" y="-158.3" font-family="Times New Roman,serif" font-size="14.00">12</text>
</g>
<!-- 6&#45;&gt;12 -->
<g id="edge9" class="edge"><title>6&#45;&gt;12</title>
<path fill="none" stroke="black" d="M149,-215.697C149,-207.983 149,-198.712 149,-190.112"/>
<polygon fill="black" stroke="black" points="152.5,-190.104 149,-180.104 145.5,-190.104 152.5,-190.104"/>
</g>
<!-- 8 -->
<g id="node10" class="node"><title>8</title>
<ellipse fill="none" stroke="black" cx="27" cy="-90" rx="27" ry="18"/>
<text text-anchor="middle" x="27" y="-86.3" font-family="Times New Roman,serif" font-size="14.00">8</text>
</g>
<!-- 7&#45;&gt;8 -->
<g id="edge10" class="edge"><title>7&#45;&gt;8</title>
<path fill="none" stroke="black" d="M65.9034,-145.465C59.4948,-136.493 51.2989,-125.019 44.084,-114.918"/>
<polygon fill="black" stroke="black" points="46.7261,-112.595 38.0656,-106.492 41.03,-116.664 46.7261,-112.595"/>
</g>
<!-- 10 -->
<g id="node11" class="node"><title>10</title>
<ellipse fill="none" stroke="black" cx="145" cy="-90" rx="27" ry="18"/>
<text text-anchor="middle" x="145" y="-86.3" font-family="Times New Roman,serif" font-size="14.00">10</text>
</g>
<!-- 7&#45;&gt;10 -->
<g id="edge11" class="edge"><title>7&#45;&gt;10</title>
<path fill="none" stroke="black" d="M91.0896,-146.496C100.572,-136.735 113.244,-123.69 123.92,-112.7"/>
<polygon fill="black" stroke="black" points="126.471,-115.097 130.928,-105.485 121.45,-110.22 126.471,-115.097"/>
</g>
<!-- 9 -->
<g id="node12" class="node"><title>9</title>
<ellipse fill="none" stroke="black" cx="66" cy="-18" rx="27" ry="18"/>
<text text-anchor="middle" x="66" y="-14.3" font-family="Times New Roman,serif" font-size="14.00">9</text>
</g>
<!-- 8&#45;&gt;9 -->
<g id="edge12" class="edge"><title>8&#45;&gt;9</title>
<path fill="none" stroke="black" d="M36.0454,-72.7646C40.82,-64.1948 46.7819,-53.494 52.1269,-43.9004"/>
<polygon fill="black" stroke="black" points="55.1941,-45.5865 57.0036,-35.1473 49.0791,-42.1795 55.1941,-45.5865"/>
</g>
<!-- 11 -->
<g id="node13" class="node"><title>11</title>
<ellipse fill="none" stroke="black" cx="161" cy="-18" rx="27" ry="18"/>
<text text-anchor="middle" x="161" y="-14.3" font-family="Times New Roman,serif" font-size="14.00">11</text>
</g>
<!-- 10&#45;&gt;11 -->
<g id="edge14" class="edge"><title>10&#45;&gt;11</title>
<path fill="none" stroke="black" d="M148.873,-72.055C150.655,-64.2609 152.812,-54.8219 154.811,-46.0789"/>
<polygon fill="black" stroke="black" points="158.235,-46.8038 157.051,-36.2753 151.411,-45.244 158.235,-46.8038"/>
</g>
<!-- 9&#45;&gt;7 -->
<g id="edge13" class="edge"><title>9&#45;&gt;7</title>
<path fill="none" stroke="black" d="M67.3316,-36.1893C69.2089,-60.4244 72.6533,-104.888 74.8836,-133.679"/>
<polygon fill="black" stroke="black" points="71.4112,-134.172 75.6731,-143.871 78.3903,-133.631 71.4112,-134.172"/>
</g>
<!-- 11&#45;&gt;6 -->
<g id="edge15" class="edge"><title>11&#45;&gt;6</title>
<path fill="none" stroke="black" d="M168.643,-35.3181C173.084,-45.6043 178.317,-59.2984 181,-72 184.524,-88.6816 189.865,-164.18 185,-180 181.714,-190.685 175.46,-201.149 169.075,-209.919"/>
<polygon fill="black" stroke="black" points="166.116,-208.023 162.75,-218.069 171.646,-212.314 166.116,-208.023"/>
</g>
</g>
</svg>
