<?xml version="1.0" encoding="UTF-8" standalone="no"?>
<!DOCTYPE svg PUBLIC "-//W3C//DTD SVG 1.1//EN"
 "http://www.w3.org/Graphics/SVG/1.1/DTD/svg11.dtd">
<!-- Generated by graphviz version 2.38.0 (20140413.2041)
 -->
<!-- Title: complejidad1 Pages: 1 -->
<svg width="162pt" height="1268pt"
 viewBox="0.00 0.00 162.00 1268.00" xmlns="http://www.w3.org/2000/svg" xmlns:xlink="http://www.w3.org/1999/xlink">
<g id="graph0" class="graph" transform="scale(1 1) rotate(0) translate(4 1264)">
<title>complejidad1</title>
<polygon fill="white" stroke="none" points="-4,4 -4,-1264 158,-1264 158,4 -4,4"/>
<!-- 1 -->
<g id="node1" class="node"><title>1</title>
<ellipse fill="none" stroke="black" cx="99" cy="-1170" rx="27" ry="18"/>
<text text-anchor="middle" x="99" y="-1166.3" font-family="Times New Roman,serif" font-size="14.00">1</text>
</g>
<!-- 2 -->
<g id="node2" class="node"><title>2</title>
<ellipse fill="none" stroke="black" cx="99" cy="-1098" rx="27" ry="18"/>
<text text-anchor="middle" x="99" y="-1094.3" font-family="Times New Roman,serif" font-size="14.00">2</text>
</g>
<!-- 1&#45;&gt;2 -->
<g id="edge1" class="edge"><title>1&#45;&gt;2</title>
<path fill="none" stroke="black" d="M99,-1151.7C99,-1143.98 99,-1134.71 99,-1126.11"/>
<polygon fill="black" stroke="black" points="102.5,-1126.1 99,-1116.1 95.5001,-1126.1 102.5,-1126.1"/>
</g>
<!-- 3 -->
<g id="node4" class="node"><title>3</title>
<ellipse fill="none" stroke="black" cx="99" cy="-1026" rx="27" ry="18"/>
<text text-anchor="middle" x="99" y="-1022.3" font-family="Times New Roman,serif" font-size="14.00">3</text>
</g>
<!-- 2&#45;&gt;3 -->
<g id="edge3" class="edge"><title>2&#45;&gt;3</title>
<path fill="none" stroke="black" d="M99,-1079.7C99,-1071.98 99,-1062.71 99,-1054.11"/>
<polygon fill="black" stroke="black" points="102.5,-1054.1 99,-1044.1 95.5001,-1054.1 102.5,-1054.1"/>
</g>
<!-- I -->
<g id="node3" class="node"><title>I</title>
<ellipse fill="none" stroke="black" cx="99" cy="-1242" rx="27" ry="18"/>
<text text-anchor="middle" x="99" y="-1238.3" font-family="Times New Roman,serif" font-size="14.00">I</text>
</g>
<!-- I&#45;&gt;1 -->
<g id="edge2" class="edge"><title>I&#45;&gt;1</title>
<path fill="none" stroke="black" d="M99,-1223.7C99,-1215.98 99,-1206.71 99,-1198.11"/>
<polygon fill="black" stroke="black" points="102.5,-1198.1 99,-1188.1 95.5001,-1198.1 102.5,-1198.1"/>
</g>
<!-- 4 -->
<g id="node5" class="node"><title>4</title>
<ellipse fill="none" stroke="black" cx="99" cy="-954" rx="27" ry="18"/>
<text text-anchor="middle" x="99" y="-950.3" font-family="Times New Roman,serif" font-size="14.00">4</text>
</g>
<!-- 3&#45;&gt;4 -->
<g id="edge4" class="edge"><title>3&#45;&gt;4</title>
<path fill="none" stroke="black" d="M99,-1007.7C99,-999.983 99,-990.712 99,-982.112"/>
<polygon fill="black" stroke="black" points="102.5,-982.104 99,-972.104 95.5001,-982.104 102.5,-982.104"/>
</g>
<!-- 5 -->
<g id="node6" class="node"><title>5</title>
<ellipse fill="none" stroke="black" cx="99" cy="-882" rx="27" ry="18"/>
<text text-anchor="middle" x="99" y="-878.3" font-family="Times New Roman,serif" font-size="14.00">5</text>
</g>
<!-- 4&#45;&gt;5 -->
<g id="edge5" class="edge"><title>4&#45;&gt;5</title>
<path fill="none" stroke="black" d="M99,-935.697C99,-927.983 99,-918.712 99,-910.112"/>
<polygon fill="black" stroke="black" points="102.5,-910.104 99,-900.104 95.5001,-910.104 102.5,-910.104"/>
</g>
<!-- 6 -->
<g id="node7" class="node"><title>6</title>
<ellipse fill="none" stroke="black" cx="99" cy="-810" rx="27" ry="18"/>
<text text-anchor="middle" x="99" y="-806.3" font-family="Times New Roman,serif" font-size="14.00">6</text>
</g>
<!-- 5&#45;&gt;6 -->
<g id="edge6" class="edge"><title>5&#45;&gt;6</title>
<path fill="none" stroke="black" d="M99,-863.697C99,-855.983 99,-846.712 99,-838.112"/>
<polygon fill="black" stroke="black" points="102.5,-838.104 99,-828.104 95.5001,-838.104 102.5,-838.104"/>
</g>
<!-- 7 -->
<g id="node8" class="node"><title>7</title>
<ellipse fill="none" stroke="black" cx="99" cy="-738" rx="27" ry="18"/>
<text text-anchor="middle" x="99" y="-734.3" font-family="Times New Roman,serif" font-size="14.00">7</text>
</g>
<!-- 6&#45;&gt;7 -->
<g id="edge7" class="edge"><title>6&#45;&gt;7</title>
<path fill="none" stroke="black" d="M99,-791.697C99,-783.983 99,-774.712 99,-766.112"/>
<polygon fill="black" stroke="black" points="102.5,-766.104 99,-756.104 95.5001,-766.104 102.5,-766.104"/>
</g>
<!-- 8 -->
<g id="node9" class="node"><title>8</title>
<ellipse fill="none" stroke="black" cx="99" cy="-666" rx="27" ry="18"/>
<text text-anchor="middle" x="99" y="-662.3" font-family="Times New Roman,serif" font-size="14.00">8</text>
</g>
<!-- 7&#45;&gt;8 -->
<g id="edge8" class="edge"><title>7&#45;&gt;8</title>
<path fill="none" stroke="black" d="M99,-719.697C99,-711.983 99,-702.712 99,-694.112"/>
<polygon fill="black" stroke="black" points="102.5,-694.104 99,-684.104 95.5001,-694.104 102.5,-694.104"/>
</g>
<!-- 9 -->
<g id="node10" class="node"><title>9</title>
<ellipse fill="none" stroke="black" cx="99" cy="-594" rx="27" ry="18"/>
<text text-anchor="middle" x="99" y="-590.3" font-family="Times New Roman,serif" font-size="14.00">9</text>
</g>
<!-- 8&#45;&gt;9 -->
<g id="edge9" class="edge"><title>8&#45;&gt;9</title>
<path fill="none" stroke="black" d="M99,-647.697C99,-639.983 99,-630.712 99,-622.112"/>
<polygon fill="black" stroke="black" points="102.5,-622.104 99,-612.104 95.5001,-622.104 102.5,-622.104"/>
</g>
<!-- 10 -->
<g id="node11" class="node"><title>10</title>
<ellipse fill="none" stroke="black" cx="99" cy="-522" rx="27" ry="18"/>
<text text-anchor="middle" x="99" y="-518.3" font-family="Times New Roman,serif" font-size="14.00">10</text>
</g>
<!-- 9&#45;&gt;10 -->
<g id="edge10" class="edge"><title>9&#45;&gt;10</title>
<path fill="none" stroke="black" d="M99,-575.697C99,-567.983 99,-558.712 99,-550.112"/>
<polygon fill="black" stroke="black" points="102.5,-550.104 99,-540.104 95.5001,-550.104 102.5,-550.104"/>
</g>
<!-- 11 -->
<g id="node12" class="node"><title>11</title>
<ellipse fill="none" stroke="black" cx="27" cy="-450" rx="27" ry="18"/>
<text text-anchor="middle" x="27" y="-446.3" font-family="Times New Roman,serif" font-size="14.00">11</text>
</g>
<!-- 10&#45;&gt;11 -->
<g id="edge11" class="edge"><title>10&#45;&gt;11</title>
<path fill="none" stroke="black" d="M84.4297,-506.834C74.2501,-496.938 60.4761,-483.546 48.9694,-472.359"/>
<polygon fill="black" stroke="black" points="51.4055,-469.846 41.7957,-465.385 46.5259,-474.865 51.4055,-469.846"/>
</g>
<!-- 18 -->
<g id="node13" class="node"><title>18</title>
<ellipse fill="none" stroke="black" cx="99" cy="-450" rx="27" ry="18"/>
<text text-anchor="middle" x="99" y="-446.3" font-family="Times New Roman,serif" font-size="14.00">18</text>
</g>
<!-- 10&#45;&gt;18 -->
<g id="edge12" class="edge"><title>10&#45;&gt;18</title>
<path fill="none" stroke="black" d="M99,-503.697C99,-495.983 99,-486.712 99,-478.112"/>
<polygon fill="black" stroke="black" points="102.5,-478.104 99,-468.104 95.5001,-478.104 102.5,-478.104"/>
</g>
<!-- 12 -->
<g id="node14" class="node"><title>12</title>
<ellipse fill="none" stroke="black" cx="27" cy="-378" rx="27" ry="18"/>
<text text-anchor="middle" x="27" y="-374.3" font-family="Times New Roman,serif" font-size="14.00">12</text>
</g>
<!-- 11&#45;&gt;12 -->
<g id="edge13" class="edge"><title>11&#45;&gt;12</title>
<path fill="none" stroke="black" d="M27,-431.697C27,-423.983 27,-414.712 27,-406.112"/>
<polygon fill="black" stroke="black" points="30.5001,-406.104 27,-396.104 23.5001,-406.104 30.5001,-406.104"/>
</g>
<!-- 19 -->
<g id="node20" class="node"><title>19</title>
<ellipse fill="none" stroke="black" cx="99" cy="-378" rx="27" ry="18"/>
<text text-anchor="middle" x="99" y="-374.3" font-family="Times New Roman,serif" font-size="14.00">19</text>
</g>
<!-- 18&#45;&gt;19 -->
<g id="edge20" class="edge"><title>18&#45;&gt;19</title>
<path fill="none" stroke="black" d="M99,-431.697C99,-423.983 99,-414.712 99,-406.112"/>
<polygon fill="black" stroke="black" points="102.5,-406.104 99,-396.104 95.5001,-406.104 102.5,-406.104"/>
</g>
<!-- 13 -->
<g id="node15" class="node"><title>13</title>
<ellipse fill="none" stroke="black" cx="27" cy="-306" rx="27" ry="18"/>
<text text-anchor="middle" x="27" y="-302.3" font-family="Times New Roman,serif" font-size="14.00">13</text>
</g>
<!-- 12&#45;&gt;13 -->
<g id="edge14" class="edge"><title>12&#45;&gt;13</title>
<path fill="none" stroke="black" d="M27,-359.697C27,-351.983 27,-342.712 27,-334.112"/>
<polygon fill="black" stroke="black" points="30.5001,-334.104 27,-324.104 23.5001,-334.104 30.5001,-334.104"/>
</g>
<!-- 14 -->
<g id="node16" class="node"><title>14</title>
<ellipse fill="none" stroke="black" cx="45" cy="-234" rx="27" ry="18"/>
<text text-anchor="middle" x="45" y="-230.3" font-family="Times New Roman,serif" font-size="14.00">14</text>
</g>
<!-- 13&#45;&gt;14 -->
<g id="edge15" class="edge"><title>13&#45;&gt;14</title>
<path fill="none" stroke="black" d="M31.3573,-288.055C33.3914,-280.145 35.8612,-270.54 38.1374,-261.688"/>
<polygon fill="black" stroke="black" points="41.5821,-262.346 40.6828,-251.789 34.8026,-260.602 41.5821,-262.346"/>
</g>
<!-- 15 -->
<g id="node17" class="node"><title>15</title>
<ellipse fill="none" stroke="black" cx="63" cy="-162" rx="27" ry="18"/>
<text text-anchor="middle" x="63" y="-158.3" font-family="Times New Roman,serif" font-size="14.00">15</text>
</g>
<!-- 14&#45;&gt;15 -->
<g id="edge16" class="edge"><title>14&#45;&gt;15</title>
<path fill="none" stroke="black" d="M49.3573,-216.055C51.3914,-208.145 53.8612,-198.54 56.1374,-189.688"/>
<polygon fill="black" stroke="black" points="59.5821,-190.346 58.6828,-179.789 52.8026,-188.602 59.5821,-190.346"/>
</g>
<!-- 16 -->
<g id="node18" class="node"><title>16</title>
<ellipse fill="none" stroke="black" cx="81" cy="-90" rx="27" ry="18"/>
<text text-anchor="middle" x="81" y="-86.3" font-family="Times New Roman,serif" font-size="14.00">16</text>
</g>
<!-- 15&#45;&gt;16 -->
<g id="edge17" class="edge"><title>15&#45;&gt;16</title>
<path fill="none" stroke="black" d="M67.3573,-144.055C69.3914,-136.145 71.8612,-126.54 74.1374,-117.688"/>
<polygon fill="black" stroke="black" points="77.5821,-118.346 76.6828,-107.789 70.8026,-116.602 77.5821,-118.346"/>
</g>
<!-- 17 -->
<g id="node19" class="node"><title>17</title>
<ellipse fill="none" stroke="black" cx="117" cy="-18" rx="27" ry="18"/>
<text text-anchor="middle" x="117" y="-14.3" font-family="Times New Roman,serif" font-size="14.00">17</text>
</g>
<!-- 16&#45;&gt;17 -->
<g id="edge18" class="edge"><title>16&#45;&gt;17</title>
<path fill="none" stroke="black" d="M89.3496,-72.7646C93.7115,-64.2831 99.1469,-53.7144 104.041,-44.1974"/>
<polygon fill="black" stroke="black" points="107.235,-45.6409 108.696,-35.1473 101.01,-42.4395 107.235,-45.6409"/>
</g>
<!-- 17&#45;&gt;10 -->
<g id="edge19" class="edge"><title>17&#45;&gt;10</title>
<path fill="none" stroke="black" d="M124.31,-35.6818C135.093,-61.8493 154,-114.379 154,-161 154,-379 154,-379 154,-379 154,-419.447 150.881,-430.801 135,-468 130.611,-478.281 124.12,-488.658 117.853,-497.471"/>
<polygon fill="black" stroke="black" points="114.895,-495.585 111.748,-505.702 120.517,-499.756 114.895,-495.585"/>
</g>
<!-- F -->
<g id="node21" class="node"><title>F</title>
<ellipse fill="none" stroke="black" cx="99" cy="-306" rx="27" ry="18"/>
<text text-anchor="middle" x="99" y="-302.3" font-family="Times New Roman,serif" font-size="14.00">F</text>
</g>
<!-- 19&#45;&gt;F -->
<g id="edge21" class="edge"><title>19&#45;&gt;F</title>
<path fill="none" stroke="black" d="M99,-359.697C99,-351.983 99,-342.712 99,-334.112"/>
<polygon fill="black" stroke="black" points="102.5,-334.104 99,-324.104 95.5001,-334.104 102.5,-334.104"/>
</g>
</g>
</svg>
