<?xml version="1.0" encoding="UTF-8" standalone="no"?>
<!DOCTYPE svg PUBLIC "-//W3C//DTD SVG 1.1//EN"
 "http://www.w3.org/Graphics/SVG/1.1/DTD/svg11.dtd">
<!-- Generated by graphviz version 2.38.0 (20140413.2041)
 -->
<!-- Title: complejidad1 Pages: 1 -->
<svg width="62pt" height="404pt"
 viewBox="0.00 0.00 62.00 404.00" xmlns="http://www.w3.org/2000/svg" xmlns:xlink="http://www.w3.org/1999/xlink">
<g id="graph0" class="graph" transform="scale(1 1) rotate(0) translate(4 400)">
<title>complejidad1</title>
<polygon fill="white" stroke="none" points="-4,4 -4,-400 58,-400 58,4 -4,4"/>
<!-- 1 -->
<g id="node1" class="node"><title>1</title>
<ellipse fill="none" stroke="black" cx="27" cy="-306" rx="27" ry="18"/>
<text text-anchor="middle" x="27" y="-302.3" font-family="Times New Roman,serif" font-size="14.00">1</text>
</g>
<!-- 2 -->
<g id="node2" class="node"><title>2</title>
<ellipse fill="none" stroke="black" cx="27" cy="-234" rx="27" ry="18"/>
<text text-anchor="middle" x="27" y="-230.3" font-family="Times New Roman,serif" font-size="14.00">2</text>
</g>
<!-- 1&#45;&gt;2 -->
<g id="edge1" class="edge"><title>1&#45;&gt;2</title>
<path fill="none" stroke="black" d="M27,-287.697C27,-279.983 27,-270.712 27,-262.112"/>
<polygon fill="black" stroke="black" points="30.5001,-262.104 27,-252.104 23.5001,-262.104 30.5001,-262.104"/>
</g>
<!-- 3 -->
<g id="node4" class="node"><title>3</title>
<ellipse fill="none" stroke="black" cx="27" cy="-162" rx="27" ry="18"/>
<text text-anchor="middle" x="27" y="-158.3" font-family="Times New Roman,serif" font-size="14.00">3</text>
</g>
<!-- 2&#45;&gt;3 -->
<g id="edge3" class="edge"><title>2&#45;&gt;3</title>
<path fill="none" stroke="black" d="M27,-215.697C27,-207.983 27,-198.712 27,-190.112"/>
<polygon fill="black" stroke="black" points="30.5001,-190.104 27,-180.104 23.5001,-190.104 30.5001,-190.104"/>
</g>
<!-- I -->
<g id="node3" class="node"><title>I</title>
<ellipse fill="none" stroke="black" cx="27" cy="-378" rx="27" ry="18"/>
<text text-anchor="middle" x="27" y="-374.3" font-family="Times New Roman,serif" font-size="14.00">I</text>
</g>
<!-- I&#45;&gt;1 -->
<g id="edge2" class="edge"><title>I&#45;&gt;1</title>
<path fill="none" stroke="black" d="M27,-359.697C27,-351.983 27,-342.712 27,-334.112"/>
<polygon fill="black" stroke="black" points="30.5001,-334.104 27,-324.104 23.5001,-334.104 30.5001,-334.104"/>
</g>
<!-- 4 -->
<g id="node5" class="node"><title>4</title>
<ellipse fill="none" stroke="black" cx="27" cy="-90" rx="27" ry="18"/>
<text text-anchor="middle" x="27" y="-86.3" font-family="Times New Roman,serif" font-size="14.00">4</text>
</g>
<!-- 3&#45;&gt;4 -->
<g id="edge4" class="edge"><title>3&#45;&gt;4</title>
<path fill="none" stroke="black" d="M27,-143.697C27,-135.983 27,-126.712 27,-118.112"/>
<polygon fill="black" stroke="black" points="30.5001,-118.104 27,-108.104 23.5001,-118.104 30.5001,-118.104"/>
</g>
<!-- F -->
<g id="node6" class="node"><title>F</title>
<ellipse fill="none" stroke="black" cx="27" cy="-18" rx="27" ry="18"/>
<text text-anchor="middle" x="27" y="-14.3" font-family="Times New Roman,serif" font-size="14.00">F</text>
</g>
<!-- 4&#45;&gt;F -->
<g id="edge5" class="edge"><title>4&#45;&gt;F</title>
<path fill="none" stroke="black" d="M27,-71.6966C27,-63.9827 27,-54.7125 27,-46.1124"/>
<polygon fill="black" stroke="black" points="30.5001,-46.1043 27,-36.1043 23.5001,-46.1044 30.5001,-46.1043"/>
</g>
</g>
</svg>
