<?xml version="1.0" encoding="UTF-8" standalone="no"?>
<!DOCTYPE svg PUBLIC "-//W3C//DTD SVG 1.1//EN"
 "http://www.w3.org/Graphics/SVG/1.1/DTD/svg11.dtd">
<!-- Generated by graphviz version 2.38.0 (20140413.2041)
 -->
<!-- Title: complejidad2 Pages: 1 -->
<svg width="268pt" height="548pt"
 viewBox="0.00 0.00 267.83 548.00" xmlns="http://www.w3.org/2000/svg" xmlns:xlink="http://www.w3.org/1999/xlink">
<g id="graph0" class="graph" transform="scale(1 1) rotate(0) translate(4 544)">
<title>complejidad2</title>
<polygon fill="white" stroke="none" points="-4,4 -4,-544 263.83,-544 263.83,4 -4,4"/>
<!-- 1 -->
<g id="node1" class="node"><title>1</title>
<ellipse fill="none" stroke="black" cx="154" cy="-450" rx="27" ry="18"/>
<text text-anchor="middle" x="154" y="-446.3" font-family="Times New Roman,serif" font-size="14.00">1</text>
</g>
<!-- 2 -->
<g id="node2" class="node"><title>2</title>
<ellipse fill="none" stroke="black" cx="154" cy="-378" rx="27" ry="18"/>
<text text-anchor="middle" x="154" y="-374.3" font-family="Times New Roman,serif" font-size="14.00">2</text>
</g>
<!-- 1&#45;&gt;2 -->
<g id="edge1" class="edge"><title>1&#45;&gt;2</title>
<path fill="none" stroke="black" d="M154,-431.697C154,-423.983 154,-414.712 154,-406.112"/>
<polygon fill="black" stroke="black" points="157.5,-406.104 154,-396.104 150.5,-406.104 157.5,-406.104"/>
</g>
<!-- 3 -->
<g id="node4" class="node"><title>3</title>
<ellipse fill="none" stroke="black" cx="99" cy="-306" rx="27" ry="18"/>
<text text-anchor="middle" x="99" y="-302.3" font-family="Times New Roman,serif" font-size="14.00">3</text>
</g>
<!-- 2&#45;&gt;3 -->
<g id="edge3" class="edge"><title>2&#45;&gt;3</title>
<path fill="none" stroke="black" d="M142.066,-361.811C134.786,-352.546 125.337,-340.52 117.146,-330.094"/>
<polygon fill="black" stroke="black" points="119.841,-327.86 110.911,-322.159 114.337,-332.185 119.841,-327.86"/>
</g>
<!-- 5 -->
<g id="node5" class="node"><title>5</title>
<ellipse fill="none" stroke="black" cx="209" cy="-306" rx="27" ry="18"/>
<text text-anchor="middle" x="209" y="-302.3" font-family="Times New Roman,serif" font-size="14.00">5</text>
</g>
<!-- 2&#45;&gt;5 -->
<g id="edge4" class="edge"><title>2&#45;&gt;5</title>
<path fill="none" stroke="black" d="M165.934,-361.811C173.214,-352.546 182.663,-340.52 190.854,-330.094"/>
<polygon fill="black" stroke="black" points="193.663,-332.185 197.089,-322.159 188.159,-327.86 193.663,-332.185"/>
</g>
<!-- I -->
<g id="node3" class="node"><title>I</title>
<ellipse fill="none" stroke="black" cx="154" cy="-522" rx="27" ry="18"/>
<text text-anchor="middle" x="154" y="-518.3" font-family="Times New Roman,serif" font-size="14.00">I</text>
</g>
<!-- I&#45;&gt;1 -->
<g id="edge2" class="edge"><title>I&#45;&gt;1</title>
<path fill="none" stroke="black" d="M154,-503.697C154,-495.983 154,-486.712 154,-478.112"/>
<polygon fill="black" stroke="black" points="157.5,-478.104 154,-468.104 150.5,-478.104 157.5,-478.104"/>
</g>
<!-- 4 -->
<g id="node6" class="node"><title>4</title>
<ellipse fill="none" stroke="black" cx="118" cy="-234" rx="27" ry="18"/>
<text text-anchor="middle" x="118" y="-230.3" font-family="Times New Roman,serif" font-size="14.00">4</text>
</g>
<!-- 3&#45;&gt;4 -->
<g id="edge5" class="edge"><title>3&#45;&gt;4</title>
<path fill="none" stroke="black" d="M103.599,-288.055C105.746,-280.145 108.353,-270.54 110.756,-261.688"/>
<polygon fill="black" stroke="black" points="114.201,-262.357 113.443,-251.789 107.446,-260.523 114.201,-262.357"/>
</g>
<!-- 6 -->
<g id="node7" class="node"><title>6</title>
<ellipse fill="none" stroke="black" cx="209" cy="-234" rx="27" ry="18"/>
<text text-anchor="middle" x="209" y="-230.3" font-family="Times New Roman,serif" font-size="14.00">6</text>
</g>
<!-- 5&#45;&gt;6 -->
<g id="edge7" class="edge"><title>5&#45;&gt;6</title>
<path fill="none" stroke="black" d="M209,-287.697C209,-279.983 209,-270.712 209,-262.112"/>
<polygon fill="black" stroke="black" points="212.5,-262.104 209,-252.104 205.5,-262.104 212.5,-262.104"/>
</g>
<!-- 4&#45;&gt;2 -->
<g id="edge6" class="edge"><title>4&#45;&gt;2</title>
<path fill="none" stroke="black" d="M123.791,-251.583C127.299,-261.969 131.716,-275.675 135,-288 140.456,-308.482 145.412,-331.938 148.893,-349.627"/>
<polygon fill="black" stroke="black" points="145.528,-350.663 150.861,-359.817 152.401,-349.335 145.528,-350.663"/>
</g>
<!-- 7 -->
<g id="node8" class="node"><title>7</title>
<ellipse fill="none" stroke="black" cx="109" cy="-162" rx="27" ry="18"/>
<text text-anchor="middle" x="109" y="-158.3" font-family="Times New Roman,serif" font-size="14.00">7</text>
</g>
<!-- 6&#45;&gt;7 -->
<g id="edge8" class="edge"><title>6&#45;&gt;7</title>
<path fill="none" stroke="black" d="M191.122,-220.485C175.718,-209.702 153.259,-193.981 135.72,-181.704"/>
<polygon fill="black" stroke="black" points="137.26,-178.51 127.06,-175.642 133.246,-184.244 137.26,-178.51"/>
</g>
<!-- 12 -->
<g id="node9" class="node"><title>12</title>
<ellipse fill="none" stroke="black" cx="209" cy="-162" rx="27" ry="18"/>
<text text-anchor="middle" x="209" y="-158.3" font-family="Times New Roman,serif" font-size="14.00">12</text>
</g>
<!-- 6&#45;&gt;12 -->
<g id="edge9" class="edge"><title>6&#45;&gt;12</title>
<path fill="none" stroke="black" d="M209,-215.697C209,-207.983 209,-198.712 209,-190.112"/>
<polygon fill="black" stroke="black" points="212.5,-190.104 209,-180.104 205.5,-190.104 212.5,-190.104"/>
</g>
<!-- 8 -->
<g id="node10" class="node"><title>8</title>
<ellipse fill="none" stroke="black" cx="27" cy="-90" rx="27" ry="18"/>
<text text-anchor="middle" x="27" y="-86.3" font-family="Times New Roman,serif" font-size="14.00">8</text>
</g>
<!-- 7&#45;&gt;8 -->
<g id="edge10" class="edge"><title>7&#45;&gt;8</title>
<path fill="none" stroke="black" d="M92.7994,-147.17C80.8172,-136.942 64.3085,-122.849 50.8249,-111.338"/>
<polygon fill="black" stroke="black" points="52.766,-108.394 42.8879,-104.563 48.2211,-113.717 52.766,-108.394"/>
</g>
<!-- 10 -->
<g id="node11" class="node"><title>10</title>
<ellipse fill="none" stroke="black" cx="137" cy="-90" rx="27" ry="18"/>
<text text-anchor="middle" x="137" y="-86.3" font-family="Times New Roman,serif" font-size="14.00">10</text>
</g>
<!-- 7&#45;&gt;10 -->
<g id="edge11" class="edge"><title>7&#45;&gt;10</title>
<path fill="none" stroke="black" d="M115.636,-144.411C118.913,-136.216 122.944,-126.14 126.618,-116.955"/>
<polygon fill="black" stroke="black" points="129.948,-118.055 130.412,-107.47 123.448,-115.455 129.948,-118.055"/>
</g>
<!-- F -->
<g id="node14" class="node"><title>F</title>
<ellipse fill="none" stroke="black" cx="209" cy="-90" rx="27" ry="18"/>
<text text-anchor="middle" x="209" y="-86.3" font-family="Times New Roman,serif" font-size="14.00">F</text>
</g>
<!-- 12&#45;&gt;F -->
<g id="edge16" class="edge"><title>12&#45;&gt;F</title>
<path fill="none" stroke="black" d="M209,-143.697C209,-135.983 209,-126.712 209,-118.112"/>
<polygon fill="black" stroke="black" points="212.5,-118.104 209,-108.104 205.5,-118.104 212.5,-118.104"/>
</g>
<!-- 9 -->
<g id="node12" class="node"><title>9</title>
<ellipse fill="none" stroke="black" cx="64" cy="-18" rx="27" ry="18"/>
<text text-anchor="middle" x="64" y="-14.3" font-family="Times New Roman,serif" font-size="14.00">9</text>
</g>
<!-- 8&#45;&gt;9 -->
<g id="edge12" class="edge"><title>8&#45;&gt;9</title>
<path fill="none" stroke="black" d="M35.5815,-72.7646C40.0646,-64.2831 45.651,-53.7144 50.6814,-44.1974"/>
<polygon fill="black" stroke="black" points="53.8862,-45.6239 55.465,-35.1473 47.6975,-42.3527 53.8862,-45.6239"/>
</g>
<!-- 11 -->
<g id="node13" class="node"><title>11</title>
<ellipse fill="none" stroke="black" cx="155" cy="-18" rx="27" ry="18"/>
<text text-anchor="middle" x="155" y="-14.3" font-family="Times New Roman,serif" font-size="14.00">11</text>
</g>
<!-- 10&#45;&gt;11 -->
<g id="edge14" class="edge"><title>10&#45;&gt;11</title>
<path fill="none" stroke="black" d="M141.357,-72.055C143.391,-64.1446 145.861,-54.5398 148.137,-45.6879"/>
<polygon fill="black" stroke="black" points="151.582,-46.3456 150.683,-35.789 144.803,-44.6023 151.582,-46.3456"/>
</g>
<!-- 9&#45;&gt;7 -->
<g id="edge13" class="edge"><title>9&#45;&gt;7</title>
<path fill="none" stroke="black" d="M69.3319,-35.825C77.0413,-60.1524 91.379,-105.396 100.542,-134.309"/>
<polygon fill="black" stroke="black" points="97.3037,-135.678 103.661,-144.153 103.977,-133.563 97.3037,-135.678"/>
</g>
<!-- 11&#45;&gt;6 -->
<g id="edge15" class="edge"><title>11&#45;&gt;6</title>
<path fill="none" stroke="black" d="M179.46,-25.8452C201.001,-33.3167 231.052,-47.5991 245,-72 268.821,-113.672 259.108,-134.12 245,-180 241.714,-190.685 235.46,-201.149 229.075,-209.919"/>
<polygon fill="black" stroke="black" points="226.116,-208.023 222.75,-218.069 231.646,-212.314 226.116,-208.023"/>
</g>
</g>
</svg>
