<?xml version="1.0" encoding="UTF-8" standalone="no"?>
<!DOCTYPE svg PUBLIC "-//W3C//DTD SVG 1.1//EN"
 "http://www.w3.org/Graphics/SVG/1.1/DTD/svg11.dtd">
<!-- Generated by graphviz version 2.38.0 (20140413.2041)
 -->
<!-- Title: complejidad0 Pages: 1 -->
<svg width="502pt" height="3284pt"
 viewBox="0.00 0.00 502.00 3284.00" xmlns="http://www.w3.org/2000/svg" xmlns:xlink="http://www.w3.org/1999/xlink">
<g id="graph0" class="graph" transform="scale(1 1) rotate(0) translate(4 3280)">
<title>complejidad0</title>
<polygon fill="white" stroke="none" points="-4,4 -4,-3280 498,-3280 498,4 -4,4"/>
<!-- 1 -->
<g id="node1" class="node"><title>1</title>
<ellipse fill="none" stroke="black" cx="302" cy="-3186" rx="27" ry="18"/>
<text text-anchor="middle" x="302" y="-3182.3" font-family="Times New Roman,serif" font-size="14.00">1</text>
</g>
<!-- 2 -->
<g id="node2" class="node"><title>2</title>
<ellipse fill="none" stroke="black" cx="302" cy="-3114" rx="27" ry="18"/>
<text text-anchor="middle" x="302" y="-3110.3" font-family="Times New Roman,serif" font-size="14.00">2</text>
</g>
<!-- 1&#45;&gt;2 -->
<g id="edge1" class="edge"><title>1&#45;&gt;2</title>
<path fill="none" stroke="black" d="M302,-3167.7C302,-3159.98 302,-3150.71 302,-3142.11"/>
<polygon fill="black" stroke="black" points="305.5,-3142.1 302,-3132.1 298.5,-3142.1 305.5,-3142.1"/>
</g>
<!-- 3 -->
<g id="node4" class="node"><title>3</title>
<ellipse fill="none" stroke="black" cx="302" cy="-3042" rx="27" ry="18"/>
<text text-anchor="middle" x="302" y="-3038.3" font-family="Times New Roman,serif" font-size="14.00">3</text>
</g>
<!-- 2&#45;&gt;3 -->
<g id="edge3" class="edge"><title>2&#45;&gt;3</title>
<path fill="none" stroke="black" d="M302,-3095.7C302,-3087.98 302,-3078.71 302,-3070.11"/>
<polygon fill="black" stroke="black" points="305.5,-3070.1 302,-3060.1 298.5,-3070.1 305.5,-3070.1"/>
</g>
<!-- I -->
<g id="node3" class="node"><title>I</title>
<ellipse fill="none" stroke="black" cx="302" cy="-3258" rx="27" ry="18"/>
<text text-anchor="middle" x="302" y="-3254.3" font-family="Times New Roman,serif" font-size="14.00">I</text>
</g>
<!-- I&#45;&gt;1 -->
<g id="edge2" class="edge"><title>I&#45;&gt;1</title>
<path fill="none" stroke="black" d="M302,-3239.7C302,-3231.98 302,-3222.71 302,-3214.11"/>
<polygon fill="black" stroke="black" points="305.5,-3214.1 302,-3204.1 298.5,-3214.1 305.5,-3214.1"/>
</g>
<!-- 4 -->
<g id="node5" class="node"><title>4</title>
<ellipse fill="none" stroke="black" cx="266" cy="-2970" rx="27" ry="18"/>
<text text-anchor="middle" x="266" y="-2966.3" font-family="Times New Roman,serif" font-size="14.00">4</text>
</g>
<!-- 3&#45;&gt;4 -->
<g id="edge4" class="edge"><title>3&#45;&gt;4</title>
<path fill="none" stroke="black" d="M293.65,-3024.76C289.288,-3016.28 283.853,-3005.71 278.959,-2996.2"/>
<polygon fill="black" stroke="black" points="281.99,-2994.44 274.304,-2987.15 275.765,-2997.64 281.99,-2994.44"/>
</g>
<!-- 6 -->
<g id="node6" class="node"><title>6</title>
<ellipse fill="none" stroke="black" cx="338" cy="-2970" rx="27" ry="18"/>
<text text-anchor="middle" x="338" y="-2966.3" font-family="Times New Roman,serif" font-size="14.00">6</text>
</g>
<!-- 3&#45;&gt;6 -->
<g id="edge5" class="edge"><title>3&#45;&gt;6</title>
<path fill="none" stroke="black" d="M310.35,-3024.76C314.712,-3016.28 320.147,-3005.71 325.041,-2996.2"/>
<polygon fill="black" stroke="black" points="328.235,-2997.64 329.696,-2987.15 322.01,-2994.44 328.235,-2997.64"/>
</g>
<!-- 5 -->
<g id="node7" class="node"><title>5</title>
<ellipse fill="none" stroke="black" cx="266" cy="-2898" rx="27" ry="18"/>
<text text-anchor="middle" x="266" y="-2894.3" font-family="Times New Roman,serif" font-size="14.00">5</text>
</g>
<!-- 4&#45;&gt;5 -->
<g id="edge6" class="edge"><title>4&#45;&gt;5</title>
<path fill="none" stroke="black" d="M266,-2951.7C266,-2943.98 266,-2934.71 266,-2926.11"/>
<polygon fill="black" stroke="black" points="269.5,-2926.1 266,-2916.1 262.5,-2926.1 269.5,-2926.1"/>
</g>
<!-- 7 -->
<g id="node9" class="node"><title>7</title>
<ellipse fill="none" stroke="black" cx="338" cy="-2898" rx="27" ry="18"/>
<text text-anchor="middle" x="338" y="-2894.3" font-family="Times New Roman,serif" font-size="14.00">7</text>
</g>
<!-- 6&#45;&gt;7 -->
<g id="edge8" class="edge"><title>6&#45;&gt;7</title>
<path fill="none" stroke="black" d="M338,-2951.7C338,-2943.98 338,-2934.71 338,-2926.11"/>
<polygon fill="black" stroke="black" points="341.5,-2926.1 338,-2916.1 334.5,-2926.1 341.5,-2926.1"/>
</g>
<!-- 8 -->
<g id="node8" class="node"><title>8</title>
<ellipse fill="none" stroke="black" cx="302" cy="-2826" rx="27" ry="18"/>
<text text-anchor="middle" x="302" y="-2822.3" font-family="Times New Roman,serif" font-size="14.00">8</text>
</g>
<!-- 5&#45;&gt;8 -->
<g id="edge7" class="edge"><title>5&#45;&gt;8</title>
<path fill="none" stroke="black" d="M274.35,-2880.76C278.712,-2872.28 284.147,-2861.71 289.041,-2852.2"/>
<polygon fill="black" stroke="black" points="292.235,-2853.64 293.696,-2843.15 286.01,-2850.44 292.235,-2853.64"/>
</g>
<!-- 9 -->
<g id="node10" class="node"><title>9</title>
<ellipse fill="none" stroke="black" cx="302" cy="-2754" rx="27" ry="18"/>
<text text-anchor="middle" x="302" y="-2750.3" font-family="Times New Roman,serif" font-size="14.00">9</text>
</g>
<!-- 8&#45;&gt;9 -->
<g id="edge10" class="edge"><title>8&#45;&gt;9</title>
<path fill="none" stroke="black" d="M302,-2807.7C302,-2799.98 302,-2790.71 302,-2782.11"/>
<polygon fill="black" stroke="black" points="305.5,-2782.1 302,-2772.1 298.5,-2782.1 305.5,-2782.1"/>
</g>
<!-- 7&#45;&gt;8 -->
<g id="edge9" class="edge"><title>7&#45;&gt;8</title>
<path fill="none" stroke="black" d="M329.65,-2880.76C325.288,-2872.28 319.853,-2861.71 314.959,-2852.2"/>
<polygon fill="black" stroke="black" points="317.99,-2850.44 310.304,-2843.15 311.765,-2853.64 317.99,-2850.44"/>
</g>
<!-- 10 -->
<g id="node11" class="node"><title>10</title>
<ellipse fill="none" stroke="black" cx="330" cy="-2682" rx="27" ry="18"/>
<text text-anchor="middle" x="330" y="-2678.3" font-family="Times New Roman,serif" font-size="14.00">10</text>
</g>
<!-- 9&#45;&gt;10 -->
<g id="edge11" class="edge"><title>9&#45;&gt;10</title>
<path fill="none" stroke="black" d="M308.636,-2736.41C311.913,-2728.22 315.944,-2718.14 319.618,-2708.95"/>
<polygon fill="black" stroke="black" points="322.948,-2710.05 323.412,-2699.47 316.448,-2707.45 322.948,-2710.05"/>
</g>
<!-- 13 -->
<g id="node12" class="node"><title>13</title>
<ellipse fill="none" stroke="black" cx="302" cy="-2466" rx="27" ry="18"/>
<text text-anchor="middle" x="302" y="-2462.3" font-family="Times New Roman,serif" font-size="14.00">13</text>
</g>
<!-- 9&#45;&gt;13 -->
<g id="edge12" class="edge"><title>9&#45;&gt;13</title>
<path fill="none" stroke="black" d="M298.752,-2735.89C296.954,-2725.54 294.905,-2712.06 294,-2700 288.013,-2620.22 288.013,-2599.78 294,-2520 294.637,-2511.52 295.838,-2502.34 297.121,-2494.04"/>
<polygon fill="black" stroke="black" points="300.584,-2494.55 298.752,-2484.11 293.676,-2493.41 300.584,-2494.55"/>
</g>
<!-- 11 -->
<g id="node13" class="node"><title>11</title>
<ellipse fill="none" stroke="black" cx="330" cy="-2610" rx="27" ry="18"/>
<text text-anchor="middle" x="330" y="-2606.3" font-family="Times New Roman,serif" font-size="14.00">11</text>
</g>
<!-- 10&#45;&gt;11 -->
<g id="edge13" class="edge"><title>10&#45;&gt;11</title>
<path fill="none" stroke="black" d="M330,-2663.7C330,-2655.98 330,-2646.71 330,-2638.11"/>
<polygon fill="black" stroke="black" points="333.5,-2638.1 330,-2628.1 326.5,-2638.1 333.5,-2638.1"/>
</g>
<!-- 14 -->
<g id="node15" class="node"><title>14</title>
<ellipse fill="none" stroke="black" cx="302" cy="-2394" rx="27" ry="18"/>
<text text-anchor="middle" x="302" y="-2390.3" font-family="Times New Roman,serif" font-size="14.00">14</text>
</g>
<!-- 13&#45;&gt;14 -->
<g id="edge16" class="edge"><title>13&#45;&gt;14</title>
<path fill="none" stroke="black" d="M302,-2447.7C302,-2439.98 302,-2430.71 302,-2422.11"/>
<polygon fill="black" stroke="black" points="305.5,-2422.1 302,-2412.1 298.5,-2422.1 305.5,-2422.1"/>
</g>
<!-- 12 -->
<g id="node14" class="node"><title>12</title>
<ellipse fill="none" stroke="black" cx="330" cy="-2538" rx="27" ry="18"/>
<text text-anchor="middle" x="330" y="-2534.3" font-family="Times New Roman,serif" font-size="14.00">12</text>
</g>
<!-- 11&#45;&gt;12 -->
<g id="edge14" class="edge"><title>11&#45;&gt;12</title>
<path fill="none" stroke="black" d="M330,-2591.7C330,-2583.98 330,-2574.71 330,-2566.11"/>
<polygon fill="black" stroke="black" points="333.5,-2566.1 330,-2556.1 326.5,-2566.1 333.5,-2566.1"/>
</g>
<!-- 12&#45;&gt;13 -->
<g id="edge15" class="edge"><title>12&#45;&gt;13</title>
<path fill="none" stroke="black" d="M323.364,-2520.41C320.087,-2512.22 316.056,-2502.14 312.382,-2492.95"/>
<polygon fill="black" stroke="black" points="315.552,-2491.45 308.588,-2483.47 309.052,-2494.05 315.552,-2491.45"/>
</g>
<!-- 15 -->
<g id="node16" class="node"><title>15</title>
<ellipse fill="none" stroke="black" cx="247" cy="-2322" rx="27" ry="18"/>
<text text-anchor="middle" x="247" y="-2318.3" font-family="Times New Roman,serif" font-size="14.00">15</text>
</g>
<!-- 14&#45;&gt;15 -->
<g id="edge17" class="edge"><title>14&#45;&gt;15</title>
<path fill="none" stroke="black" d="M290.066,-2377.81C282.786,-2368.55 273.337,-2356.52 265.146,-2346.09"/>
<polygon fill="black" stroke="black" points="267.841,-2343.86 258.911,-2338.16 262.337,-2348.18 267.841,-2343.86"/>
</g>
<!-- 17 -->
<g id="node17" class="node"><title>17</title>
<ellipse fill="none" stroke="black" cx="357" cy="-2322" rx="27" ry="18"/>
<text text-anchor="middle" x="357" y="-2318.3" font-family="Times New Roman,serif" font-size="14.00">17</text>
</g>
<!-- 14&#45;&gt;17 -->
<g id="edge18" class="edge"><title>14&#45;&gt;17</title>
<path fill="none" stroke="black" d="M313.934,-2377.81C321.214,-2368.55 330.663,-2356.52 338.854,-2346.09"/>
<polygon fill="black" stroke="black" points="341.663,-2348.18 345.089,-2338.16 336.159,-2343.86 341.663,-2348.18"/>
</g>
<!-- 16 -->
<g id="node18" class="node"><title>16</title>
<ellipse fill="none" stroke="black" cx="266" cy="-2250" rx="27" ry="18"/>
<text text-anchor="middle" x="266" y="-2246.3" font-family="Times New Roman,serif" font-size="14.00">16</text>
</g>
<!-- 15&#45;&gt;16 -->
<g id="edge19" class="edge"><title>15&#45;&gt;16</title>
<path fill="none" stroke="black" d="M251.599,-2304.05C253.746,-2296.14 256.353,-2286.54 258.756,-2277.69"/>
<polygon fill="black" stroke="black" points="262.201,-2278.36 261.443,-2267.79 255.446,-2276.52 262.201,-2278.36"/>
</g>
<!-- 18 -->
<g id="node19" class="node"><title>18</title>
<ellipse fill="none" stroke="black" cx="357" cy="-2250" rx="27" ry="18"/>
<text text-anchor="middle" x="357" y="-2246.3" font-family="Times New Roman,serif" font-size="14.00">18</text>
</g>
<!-- 17&#45;&gt;18 -->
<g id="edge21" class="edge"><title>17&#45;&gt;18</title>
<path fill="none" stroke="black" d="M357,-2303.7C357,-2295.98 357,-2286.71 357,-2278.11"/>
<polygon fill="black" stroke="black" points="360.5,-2278.1 357,-2268.1 353.5,-2278.1 360.5,-2278.1"/>
</g>
<!-- 16&#45;&gt;14 -->
<g id="edge20" class="edge"><title>16&#45;&gt;14</title>
<path fill="none" stroke="black" d="M271.791,-2267.58C275.299,-2277.97 279.716,-2291.67 283,-2304 288.456,-2324.48 293.412,-2347.94 296.893,-2365.63"/>
<polygon fill="black" stroke="black" points="293.528,-2366.66 298.861,-2375.82 300.401,-2365.34 293.528,-2366.66"/>
</g>
<!-- 19 -->
<g id="node20" class="node"><title>19</title>
<ellipse fill="none" stroke="black" cx="302" cy="-2178" rx="27" ry="18"/>
<text text-anchor="middle" x="302" y="-2174.3" font-family="Times New Roman,serif" font-size="14.00">19</text>
</g>
<!-- 18&#45;&gt;19 -->
<g id="edge22" class="edge"><title>18&#45;&gt;19</title>
<path fill="none" stroke="black" d="M345.066,-2233.81C337.786,-2224.55 328.337,-2212.52 320.146,-2202.09"/>
<polygon fill="black" stroke="black" points="322.841,-2199.86 313.911,-2194.16 317.337,-2204.18 322.841,-2199.86"/>
</g>
<!-- 21 -->
<g id="node21" class="node"><title>21</title>
<ellipse fill="none" stroke="black" cx="412" cy="-2178" rx="27" ry="18"/>
<text text-anchor="middle" x="412" y="-2174.3" font-family="Times New Roman,serif" font-size="14.00">21</text>
</g>
<!-- 18&#45;&gt;21 -->
<g id="edge23" class="edge"><title>18&#45;&gt;21</title>
<path fill="none" stroke="black" d="M368.934,-2233.81C376.214,-2224.55 385.663,-2212.52 393.854,-2202.09"/>
<polygon fill="black" stroke="black" points="396.663,-2204.18 400.089,-2194.16 391.159,-2199.86 396.663,-2204.18"/>
</g>
<!-- 20 -->
<g id="node22" class="node"><title>20</title>
<ellipse fill="none" stroke="black" cx="321" cy="-2106" rx="27" ry="18"/>
<text text-anchor="middle" x="321" y="-2102.3" font-family="Times New Roman,serif" font-size="14.00">20</text>
</g>
<!-- 19&#45;&gt;20 -->
<g id="edge24" class="edge"><title>19&#45;&gt;20</title>
<path fill="none" stroke="black" d="M306.599,-2160.05C308.746,-2152.14 311.353,-2142.54 313.756,-2133.69"/>
<polygon fill="black" stroke="black" points="317.201,-2134.36 316.443,-2123.79 310.446,-2132.52 317.201,-2134.36"/>
</g>
<!-- 22 -->
<g id="node23" class="node"><title>22</title>
<ellipse fill="none" stroke="black" cx="412" cy="-2106" rx="27" ry="18"/>
<text text-anchor="middle" x="412" y="-2102.3" font-family="Times New Roman,serif" font-size="14.00">22</text>
</g>
<!-- 21&#45;&gt;22 -->
<g id="edge26" class="edge"><title>21&#45;&gt;22</title>
<path fill="none" stroke="black" d="M412,-2159.7C412,-2151.98 412,-2142.71 412,-2134.11"/>
<polygon fill="black" stroke="black" points="415.5,-2134.1 412,-2124.1 408.5,-2134.1 415.5,-2134.1"/>
</g>
<!-- 20&#45;&gt;18 -->
<g id="edge25" class="edge"><title>20&#45;&gt;18</title>
<path fill="none" stroke="black" d="M326.791,-2123.58C330.299,-2133.97 334.716,-2147.67 338,-2160 343.456,-2180.48 348.412,-2203.94 351.893,-2221.63"/>
<polygon fill="black" stroke="black" points="348.528,-2222.66 353.861,-2231.82 355.401,-2221.34 348.528,-2222.66"/>
</g>
<!-- 23 -->
<g id="node24" class="node"><title>23</title>
<ellipse fill="none" stroke="black" cx="412" cy="-2034" rx="27" ry="18"/>
<text text-anchor="middle" x="412" y="-2030.3" font-family="Times New Roman,serif" font-size="14.00">23</text>
</g>
<!-- 22&#45;&gt;23 -->
<g id="edge27" class="edge"><title>22&#45;&gt;23</title>
<path fill="none" stroke="black" d="M412,-2087.7C412,-2079.98 412,-2070.71 412,-2062.11"/>
<polygon fill="black" stroke="black" points="415.5,-2062.1 412,-2052.1 408.5,-2062.1 415.5,-2062.1"/>
</g>
<!-- 24 -->
<g id="node25" class="node"><title>24</title>
<ellipse fill="none" stroke="black" cx="412" cy="-1962" rx="27" ry="18"/>
<text text-anchor="middle" x="412" y="-1958.3" font-family="Times New Roman,serif" font-size="14.00">24</text>
</g>
<!-- 23&#45;&gt;24 -->
<g id="edge28" class="edge"><title>23&#45;&gt;24</title>
<path fill="none" stroke="black" d="M412,-2015.7C412,-2007.98 412,-1998.71 412,-1990.11"/>
<polygon fill="black" stroke="black" points="415.5,-1990.1 412,-1980.1 408.5,-1990.1 415.5,-1990.1"/>
</g>
<!-- 25 -->
<g id="node26" class="node"><title>25</title>
<ellipse fill="none" stroke="black" cx="412" cy="-1890" rx="27" ry="18"/>
<text text-anchor="middle" x="412" y="-1886.3" font-family="Times New Roman,serif" font-size="14.00">25</text>
</g>
<!-- 24&#45;&gt;25 -->
<g id="edge29" class="edge"><title>24&#45;&gt;25</title>
<path fill="none" stroke="black" d="M412,-1943.7C412,-1935.98 412,-1926.71 412,-1918.11"/>
<polygon fill="black" stroke="black" points="415.5,-1918.1 412,-1908.1 408.5,-1918.1 415.5,-1918.1"/>
</g>
<!-- 26 -->
<g id="node27" class="node"><title>26</title>
<ellipse fill="none" stroke="black" cx="412" cy="-1818" rx="27" ry="18"/>
<text text-anchor="middle" x="412" y="-1814.3" font-family="Times New Roman,serif" font-size="14.00">26</text>
</g>
<!-- 25&#45;&gt;26 -->
<g id="edge30" class="edge"><title>25&#45;&gt;26</title>
<path fill="none" stroke="black" d="M412,-1871.7C412,-1863.98 412,-1854.71 412,-1846.11"/>
<polygon fill="black" stroke="black" points="415.5,-1846.1 412,-1836.1 408.5,-1846.1 415.5,-1846.1"/>
</g>
<!-- 27 -->
<g id="node28" class="node"><title>27</title>
<ellipse fill="none" stroke="black" cx="412" cy="-1746" rx="27" ry="18"/>
<text text-anchor="middle" x="412" y="-1742.3" font-family="Times New Roman,serif" font-size="14.00">27</text>
</g>
<!-- 26&#45;&gt;27 -->
<g id="edge31" class="edge"><title>26&#45;&gt;27</title>
<path fill="none" stroke="black" d="M412,-1799.7C412,-1791.98 412,-1782.71 412,-1774.11"/>
<polygon fill="black" stroke="black" points="415.5,-1774.1 412,-1764.1 408.5,-1774.1 415.5,-1774.1"/>
</g>
<!-- 28 -->
<g id="node29" class="node"><title>28</title>
<ellipse fill="none" stroke="black" cx="330" cy="-1674" rx="27" ry="18"/>
<text text-anchor="middle" x="330" y="-1670.3" font-family="Times New Roman,serif" font-size="14.00">28</text>
</g>
<!-- 27&#45;&gt;28 -->
<g id="edge32" class="edge"><title>27&#45;&gt;28</title>
<path fill="none" stroke="black" d="M395.799,-1731.17C383.817,-1720.94 367.309,-1706.85 353.825,-1695.34"/>
<polygon fill="black" stroke="black" points="355.766,-1692.39 345.888,-1688.56 351.221,-1697.72 355.766,-1692.39"/>
</g>
<!-- 41 -->
<g id="node30" class="node"><title>41</title>
<ellipse fill="none" stroke="black" cx="467" cy="-1674" rx="27" ry="18"/>
<text text-anchor="middle" x="467" y="-1670.3" font-family="Times New Roman,serif" font-size="14.00">41</text>
</g>
<!-- 27&#45;&gt;41 -->
<g id="edge33" class="edge"><title>27&#45;&gt;41</title>
<path fill="none" stroke="black" d="M423.934,-1729.81C431.214,-1720.55 440.663,-1708.52 448.854,-1698.09"/>
<polygon fill="black" stroke="black" points="451.663,-1700.18 455.089,-1690.16 446.159,-1695.86 451.663,-1700.18"/>
</g>
<!-- 29 -->
<g id="node31" class="node"><title>29</title>
<ellipse fill="none" stroke="black" cx="316" cy="-1602" rx="27" ry="18"/>
<text text-anchor="middle" x="316" y="-1598.3" font-family="Times New Roman,serif" font-size="14.00">29</text>
</g>
<!-- 28&#45;&gt;29 -->
<g id="edge34" class="edge"><title>28&#45;&gt;29</title>
<path fill="none" stroke="black" d="M326.611,-1656.05C325.069,-1648.35 323.205,-1639.03 321.473,-1630.36"/>
<polygon fill="black" stroke="black" points="324.848,-1629.39 319.455,-1620.28 317.984,-1630.77 324.848,-1629.39"/>
</g>
<!-- 42 -->
<g id="node43" class="node"><title>42</title>
<ellipse fill="none" stroke="black" cx="467" cy="-1602" rx="27" ry="18"/>
<text text-anchor="middle" x="467" y="-1598.3" font-family="Times New Roman,serif" font-size="14.00">42</text>
</g>
<!-- 41&#45;&gt;42 -->
<g id="edge50" class="edge"><title>41&#45;&gt;42</title>
<path fill="none" stroke="black" d="M467,-1655.7C467,-1647.98 467,-1638.71 467,-1630.11"/>
<polygon fill="black" stroke="black" points="470.5,-1630.1 467,-1620.1 463.5,-1630.1 470.5,-1630.1"/>
</g>
<!-- 30 -->
<g id="node32" class="node"><title>30</title>
<ellipse fill="none" stroke="black" cx="233" cy="-1530" rx="27" ry="18"/>
<text text-anchor="middle" x="233" y="-1526.3" font-family="Times New Roman,serif" font-size="14.00">30</text>
</g>
<!-- 29&#45;&gt;30 -->
<g id="edge35" class="edge"><title>29&#45;&gt;30</title>
<path fill="none" stroke="black" d="M299.602,-1587.17C287.359,-1576.85 270.448,-1562.58 256.73,-1551.01"/>
<polygon fill="black" stroke="black" points="258.982,-1548.33 249.082,-1544.56 254.47,-1553.69 258.982,-1548.33"/>
</g>
<!-- 39 -->
<g id="node33" class="node"><title>39</title>
<ellipse fill="none" stroke="black" cx="357" cy="-1530" rx="27" ry="18"/>
<text text-anchor="middle" x="357" y="-1526.3" font-family="Times New Roman,serif" font-size="14.00">39</text>
</g>
<!-- 29&#45;&gt;39 -->
<g id="edge36" class="edge"><title>29&#45;&gt;39</title>
<path fill="none" stroke="black" d="M325.509,-1584.76C330.529,-1576.19 336.796,-1565.49 342.415,-1555.9"/>
<polygon fill="black" stroke="black" points="345.508,-1557.55 347.542,-1547.15 339.468,-1554.01 345.508,-1557.55"/>
</g>
<!-- 31 -->
<g id="node34" class="node"><title>31</title>
<ellipse fill="none" stroke="black" cx="206" cy="-1458" rx="27" ry="18"/>
<text text-anchor="middle" x="206" y="-1454.3" font-family="Times New Roman,serif" font-size="14.00">31</text>
</g>
<!-- 30&#45;&gt;31 -->
<g id="edge37" class="edge"><title>30&#45;&gt;31</title>
<path fill="none" stroke="black" d="M226.601,-1512.41C223.486,-1504.34 219.666,-1494.43 216.165,-1485.35"/>
<polygon fill="black" stroke="black" points="219.405,-1484.03 212.54,-1475.96 212.874,-1486.55 219.405,-1484.03"/>
</g>
<!-- 40 -->
<g id="node42" class="node"><title>40</title>
<ellipse fill="none" stroke="black" cx="376" cy="-1458" rx="27" ry="18"/>
<text text-anchor="middle" x="376" y="-1454.3" font-family="Times New Roman,serif" font-size="14.00">40</text>
</g>
<!-- 39&#45;&gt;40 -->
<g id="edge48" class="edge"><title>39&#45;&gt;40</title>
<path fill="none" stroke="black" d="M361.599,-1512.05C363.746,-1504.14 366.353,-1494.54 368.756,-1485.69"/>
<polygon fill="black" stroke="black" points="372.201,-1486.36 371.443,-1475.79 365.446,-1484.52 372.201,-1486.36"/>
</g>
<!-- 32 -->
<g id="node35" class="node"><title>32</title>
<ellipse fill="none" stroke="black" cx="109" cy="-1386" rx="27" ry="18"/>
<text text-anchor="middle" x="109" y="-1382.3" font-family="Times New Roman,serif" font-size="14.00">32</text>
</g>
<!-- 31&#45;&gt;32 -->
<g id="edge38" class="edge"><title>31&#45;&gt;32</title>
<path fill="none" stroke="black" d="M188.209,-1444.16C173.305,-1433.41 151.828,-1417.91 134.997,-1405.76"/>
<polygon fill="black" stroke="black" points="136.836,-1402.77 126.679,-1399.76 132.739,-1408.45 136.836,-1402.77"/>
</g>
<!-- 37 -->
<g id="node36" class="node"><title>37</title>
<ellipse fill="none" stroke="black" cx="247" cy="-1386" rx="27" ry="18"/>
<text text-anchor="middle" x="247" y="-1382.3" font-family="Times New Roman,serif" font-size="14.00">37</text>
</g>
<!-- 31&#45;&gt;37 -->
<g id="edge39" class="edge"><title>31&#45;&gt;37</title>
<path fill="none" stroke="black" d="M215.509,-1440.76C220.529,-1432.19 226.796,-1421.49 232.415,-1411.9"/>
<polygon fill="black" stroke="black" points="235.508,-1413.55 237.542,-1403.15 229.468,-1410.01 235.508,-1413.55"/>
</g>
<!-- 33 -->
<g id="node37" class="node"><title>33</title>
<ellipse fill="none" stroke="black" cx="27" cy="-1314" rx="27" ry="18"/>
<text text-anchor="middle" x="27" y="-1310.3" font-family="Times New Roman,serif" font-size="14.00">33</text>
</g>
<!-- 32&#45;&gt;33 -->
<g id="edge40" class="edge"><title>32&#45;&gt;33</title>
<path fill="none" stroke="black" d="M92.7994,-1371.17C80.8172,-1360.94 64.3085,-1346.85 50.8249,-1335.34"/>
<polygon fill="black" stroke="black" points="52.766,-1332.39 42.8879,-1328.56 48.2211,-1337.72 52.766,-1332.39"/>
</g>
<!-- 35 -->
<g id="node38" class="node"><title>35</title>
<ellipse fill="none" stroke="black" cx="137" cy="-1314" rx="27" ry="18"/>
<text text-anchor="middle" x="137" y="-1310.3" font-family="Times New Roman,serif" font-size="14.00">35</text>
</g>
<!-- 32&#45;&gt;35 -->
<g id="edge41" class="edge"><title>32&#45;&gt;35</title>
<path fill="none" stroke="black" d="M115.636,-1368.41C118.913,-1360.22 122.944,-1350.14 126.618,-1340.95"/>
<polygon fill="black" stroke="black" points="129.948,-1342.05 130.412,-1331.47 123.448,-1339.45 129.948,-1342.05"/>
</g>
<!-- 38 -->
<g id="node41" class="node"><title>38</title>
<ellipse fill="none" stroke="black" cx="275" cy="-1314" rx="27" ry="18"/>
<text text-anchor="middle" x="275" y="-1310.3" font-family="Times New Roman,serif" font-size="14.00">38</text>
</g>
<!-- 37&#45;&gt;38 -->
<g id="edge46" class="edge"><title>37&#45;&gt;38</title>
<path fill="none" stroke="black" d="M253.636,-1368.41C256.913,-1360.22 260.944,-1350.14 264.618,-1340.95"/>
<polygon fill="black" stroke="black" points="267.948,-1342.05 268.412,-1331.47 261.448,-1339.45 267.948,-1342.05"/>
</g>
<!-- 34 -->
<g id="node39" class="node"><title>34</title>
<ellipse fill="none" stroke="black" cx="64" cy="-1242" rx="27" ry="18"/>
<text text-anchor="middle" x="64" y="-1238.3" font-family="Times New Roman,serif" font-size="14.00">34</text>
</g>
<!-- 33&#45;&gt;34 -->
<g id="edge42" class="edge"><title>33&#45;&gt;34</title>
<path fill="none" stroke="black" d="M35.5815,-1296.76C40.0646,-1288.28 45.651,-1277.71 50.6814,-1268.2"/>
<polygon fill="black" stroke="black" points="53.8862,-1269.62 55.465,-1259.15 47.6975,-1266.35 53.8862,-1269.62"/>
</g>
<!-- 36 -->
<g id="node40" class="node"><title>36</title>
<ellipse fill="none" stroke="black" cx="155" cy="-1242" rx="27" ry="18"/>
<text text-anchor="middle" x="155" y="-1238.3" font-family="Times New Roman,serif" font-size="14.00">36</text>
</g>
<!-- 35&#45;&gt;36 -->
<g id="edge44" class="edge"><title>35&#45;&gt;36</title>
<path fill="none" stroke="black" d="M141.357,-1296.05C143.391,-1288.14 145.861,-1278.54 148.137,-1269.69"/>
<polygon fill="black" stroke="black" points="151.582,-1270.35 150.683,-1259.79 144.803,-1268.6 151.582,-1270.35"/>
</g>
<!-- 34&#45;&gt;32 -->
<g id="edge43" class="edge"><title>34&#45;&gt;32</title>
<path fill="none" stroke="black" d="M69.3319,-1259.82C77.0413,-1284.15 91.379,-1329.4 100.542,-1358.31"/>
<polygon fill="black" stroke="black" points="97.3037,-1359.68 103.661,-1368.15 103.977,-1357.56 97.3037,-1359.68"/>
</g>
<!-- 36&#45;&gt;31 -->
<g id="edge45" class="edge"><title>36&#45;&gt;31</title>
<path fill="none" stroke="black" d="M161.215,-1259.54C164.962,-1269.92 169.643,-1283.62 173,-1296 185.612,-1342.51 195.947,-1397.74 201.52,-1429.93"/>
<polygon fill="black" stroke="black" points="198.092,-1430.65 203.223,-1439.91 204.992,-1429.47 198.092,-1430.65"/>
</g>
<!-- 38&#45;&gt;29 -->
<g id="edge47" class="edge"><title>38&#45;&gt;29</title>
<path fill="none" stroke="black" d="M277.634,-1332.18C279.213,-1342.55 281.249,-1356.03 283,-1368 293.903,-1442.53 306.218,-1530.57 312.256,-1573.99"/>
<polygon fill="black" stroke="black" points="308.809,-1574.61 313.651,-1584.04 315.742,-1573.65 308.809,-1574.61"/>
</g>
<!-- 40&#45;&gt;27 -->
<g id="edge49" class="edge"><title>40&#45;&gt;27</title>
<path fill="none" stroke="black" d="M382.524,-1475.92C386.209,-1486.2 390.555,-1499.68 393,-1512 407.564,-1585.4 411.005,-1673.93 411.79,-1717.73"/>
<polygon fill="black" stroke="black" points="408.293,-1717.91 411.938,-1727.86 415.292,-1717.81 408.293,-1717.91"/>
</g>
<!-- 43 -->
<g id="node44" class="node"><title>43</title>
<ellipse fill="none" stroke="black" cx="467" cy="-1530" rx="27" ry="18"/>
<text text-anchor="middle" x="467" y="-1526.3" font-family="Times New Roman,serif" font-size="14.00">43</text>
</g>
<!-- 42&#45;&gt;43 -->
<g id="edge51" class="edge"><title>42&#45;&gt;43</title>
<path fill="none" stroke="black" d="M467,-1583.7C467,-1575.98 467,-1566.71 467,-1558.11"/>
<polygon fill="black" stroke="black" points="470.5,-1558.1 467,-1548.1 463.5,-1558.1 470.5,-1558.1"/>
</g>
<!-- 44 -->
<g id="node45" class="node"><title>44</title>
<ellipse fill="none" stroke="black" cx="467" cy="-1458" rx="27" ry="18"/>
<text text-anchor="middle" x="467" y="-1454.3" font-family="Times New Roman,serif" font-size="14.00">44</text>
</g>
<!-- 43&#45;&gt;44 -->
<g id="edge52" class="edge"><title>43&#45;&gt;44</title>
<path fill="none" stroke="black" d="M467,-1511.7C467,-1503.98 467,-1494.71 467,-1486.11"/>
<polygon fill="black" stroke="black" points="470.5,-1486.1 467,-1476.1 463.5,-1486.1 470.5,-1486.1"/>
</g>
<!-- 45 -->
<g id="node46" class="node"><title>45</title>
<ellipse fill="none" stroke="black" cx="467" cy="-1386" rx="27" ry="18"/>
<text text-anchor="middle" x="467" y="-1382.3" font-family="Times New Roman,serif" font-size="14.00">45</text>
</g>
<!-- 44&#45;&gt;45 -->
<g id="edge53" class="edge"><title>44&#45;&gt;45</title>
<path fill="none" stroke="black" d="M467,-1439.7C467,-1431.98 467,-1422.71 467,-1414.11"/>
<polygon fill="black" stroke="black" points="470.5,-1414.1 467,-1404.1 463.5,-1414.1 470.5,-1414.1"/>
</g>
<!-- 46 -->
<g id="node47" class="node"><title>46</title>
<ellipse fill="none" stroke="black" cx="467" cy="-1314" rx="27" ry="18"/>
<text text-anchor="middle" x="467" y="-1310.3" font-family="Times New Roman,serif" font-size="14.00">46</text>
</g>
<!-- 45&#45;&gt;46 -->
<g id="edge54" class="edge"><title>45&#45;&gt;46</title>
<path fill="none" stroke="black" d="M467,-1367.7C467,-1359.98 467,-1350.71 467,-1342.11"/>
<polygon fill="black" stroke="black" points="470.5,-1342.1 467,-1332.1 463.5,-1342.1 470.5,-1342.1"/>
</g>
<!-- 47 -->
<g id="node48" class="node"><title>47</title>
<ellipse fill="none" stroke="black" cx="467" cy="-1242" rx="27" ry="18"/>
<text text-anchor="middle" x="467" y="-1238.3" font-family="Times New Roman,serif" font-size="14.00">47</text>
</g>
<!-- 46&#45;&gt;47 -->
<g id="edge55" class="edge"><title>46&#45;&gt;47</title>
<path fill="none" stroke="black" d="M467,-1295.7C467,-1287.98 467,-1278.71 467,-1270.11"/>
<polygon fill="black" stroke="black" points="470.5,-1270.1 467,-1260.1 463.5,-1270.1 470.5,-1270.1"/>
</g>
<!-- 48 -->
<g id="node49" class="node"><title>48</title>
<ellipse fill="none" stroke="black" cx="467" cy="-1170" rx="27" ry="18"/>
<text text-anchor="middle" x="467" y="-1166.3" font-family="Times New Roman,serif" font-size="14.00">48</text>
</g>
<!-- 47&#45;&gt;48 -->
<g id="edge56" class="edge"><title>47&#45;&gt;48</title>
<path fill="none" stroke="black" d="M467,-1223.7C467,-1215.98 467,-1206.71 467,-1198.11"/>
<polygon fill="black" stroke="black" points="470.5,-1198.1 467,-1188.1 463.5,-1198.1 470.5,-1198.1"/>
</g>
<!-- 49 -->
<g id="node50" class="node"><title>49</title>
<ellipse fill="none" stroke="black" cx="467" cy="-1098" rx="27" ry="18"/>
<text text-anchor="middle" x="467" y="-1094.3" font-family="Times New Roman,serif" font-size="14.00">49</text>
</g>
<!-- 48&#45;&gt;49 -->
<g id="edge57" class="edge"><title>48&#45;&gt;49</title>
<path fill="none" stroke="black" d="M467,-1151.7C467,-1143.98 467,-1134.71 467,-1126.11"/>
<polygon fill="black" stroke="black" points="470.5,-1126.1 467,-1116.1 463.5,-1126.1 470.5,-1126.1"/>
</g>
<!-- 50 -->
<g id="node51" class="node"><title>50</title>
<ellipse fill="none" stroke="black" cx="467" cy="-1026" rx="27" ry="18"/>
<text text-anchor="middle" x="467" y="-1022.3" font-family="Times New Roman,serif" font-size="14.00">50</text>
</g>
<!-- 49&#45;&gt;50 -->
<g id="edge58" class="edge"><title>49&#45;&gt;50</title>
<path fill="none" stroke="black" d="M467,-1079.7C467,-1071.98 467,-1062.71 467,-1054.11"/>
<polygon fill="black" stroke="black" points="470.5,-1054.1 467,-1044.1 463.5,-1054.1 470.5,-1054.1"/>
</g>
<!-- 51 -->
<g id="node52" class="node"><title>51</title>
<ellipse fill="none" stroke="black" cx="467" cy="-954" rx="27" ry="18"/>
<text text-anchor="middle" x="467" y="-950.3" font-family="Times New Roman,serif" font-size="14.00">51</text>
</g>
<!-- 50&#45;&gt;51 -->
<g id="edge59" class="edge"><title>50&#45;&gt;51</title>
<path fill="none" stroke="black" d="M467,-1007.7C467,-999.983 467,-990.712 467,-982.112"/>
<polygon fill="black" stroke="black" points="470.5,-982.104 467,-972.104 463.5,-982.104 470.5,-982.104"/>
</g>
<!-- 52 -->
<g id="node53" class="node"><title>52</title>
<ellipse fill="none" stroke="black" cx="467" cy="-882" rx="27" ry="18"/>
<text text-anchor="middle" x="467" y="-878.3" font-family="Times New Roman,serif" font-size="14.00">52</text>
</g>
<!-- 51&#45;&gt;52 -->
<g id="edge60" class="edge"><title>51&#45;&gt;52</title>
<path fill="none" stroke="black" d="M467,-935.697C467,-927.983 467,-918.712 467,-910.112"/>
<polygon fill="black" stroke="black" points="470.5,-910.104 467,-900.104 463.5,-910.104 470.5,-910.104"/>
</g>
<!-- 53 -->
<g id="node54" class="node"><title>53</title>
<ellipse fill="none" stroke="black" cx="467" cy="-810" rx="27" ry="18"/>
<text text-anchor="middle" x="467" y="-806.3" font-family="Times New Roman,serif" font-size="14.00">53</text>
</g>
<!-- 52&#45;&gt;53 -->
<g id="edge61" class="edge"><title>52&#45;&gt;53</title>
<path fill="none" stroke="black" d="M467,-863.697C467,-855.983 467,-846.712 467,-838.112"/>
<polygon fill="black" stroke="black" points="470.5,-838.104 467,-828.104 463.5,-838.104 470.5,-838.104"/>
</g>
<!-- 54 -->
<g id="node55" class="node"><title>54</title>
<ellipse fill="none" stroke="black" cx="467" cy="-738" rx="27" ry="18"/>
<text text-anchor="middle" x="467" y="-734.3" font-family="Times New Roman,serif" font-size="14.00">54</text>
</g>
<!-- 53&#45;&gt;54 -->
<g id="edge62" class="edge"><title>53&#45;&gt;54</title>
<path fill="none" stroke="black" d="M467,-791.697C467,-783.983 467,-774.712 467,-766.112"/>
<polygon fill="black" stroke="black" points="470.5,-766.104 467,-756.104 463.5,-766.104 470.5,-766.104"/>
</g>
<!-- 55 -->
<g id="node56" class="node"><title>55</title>
<ellipse fill="none" stroke="black" cx="467" cy="-666" rx="27" ry="18"/>
<text text-anchor="middle" x="467" y="-662.3" font-family="Times New Roman,serif" font-size="14.00">55</text>
</g>
<!-- 54&#45;&gt;55 -->
<g id="edge63" class="edge"><title>54&#45;&gt;55</title>
<path fill="none" stroke="black" d="M467,-719.697C467,-711.983 467,-702.712 467,-694.112"/>
<polygon fill="black" stroke="black" points="470.5,-694.104 467,-684.104 463.5,-694.104 470.5,-694.104"/>
</g>
<!-- 56 -->
<g id="node57" class="node"><title>56</title>
<ellipse fill="none" stroke="black" cx="467" cy="-594" rx="27" ry="18"/>
<text text-anchor="middle" x="467" y="-590.3" font-family="Times New Roman,serif" font-size="14.00">56</text>
</g>
<!-- 55&#45;&gt;56 -->
<g id="edge64" class="edge"><title>55&#45;&gt;56</title>
<path fill="none" stroke="black" d="M467,-647.697C467,-639.983 467,-630.712 467,-622.112"/>
<polygon fill="black" stroke="black" points="470.5,-622.104 467,-612.104 463.5,-622.104 470.5,-622.104"/>
</g>
<!-- 57 -->
<g id="node58" class="node"><title>57</title>
<ellipse fill="none" stroke="black" cx="467" cy="-522" rx="27" ry="18"/>
<text text-anchor="middle" x="467" y="-518.3" font-family="Times New Roman,serif" font-size="14.00">57</text>
</g>
<!-- 56&#45;&gt;57 -->
<g id="edge65" class="edge"><title>56&#45;&gt;57</title>
<path fill="none" stroke="black" d="M467,-575.697C467,-567.983 467,-558.712 467,-550.112"/>
<polygon fill="black" stroke="black" points="470.5,-550.104 467,-540.104 463.5,-550.104 470.5,-550.104"/>
</g>
<!-- 58 -->
<g id="node59" class="node"><title>58</title>
<ellipse fill="none" stroke="black" cx="467" cy="-450" rx="27" ry="18"/>
<text text-anchor="middle" x="467" y="-446.3" font-family="Times New Roman,serif" font-size="14.00">58</text>
</g>
<!-- 57&#45;&gt;58 -->
<g id="edge66" class="edge"><title>57&#45;&gt;58</title>
<path fill="none" stroke="black" d="M467,-503.697C467,-495.983 467,-486.712 467,-478.112"/>
<polygon fill="black" stroke="black" points="470.5,-478.104 467,-468.104 463.5,-478.104 470.5,-478.104"/>
</g>
<!-- 59 -->
<g id="node60" class="node"><title>59</title>
<ellipse fill="none" stroke="black" cx="467" cy="-378" rx="27" ry="18"/>
<text text-anchor="middle" x="467" y="-374.3" font-family="Times New Roman,serif" font-size="14.00">59</text>
</g>
<!-- 58&#45;&gt;59 -->
<g id="edge67" class="edge"><title>58&#45;&gt;59</title>
<path fill="none" stroke="black" d="M467,-431.697C467,-423.983 467,-414.712 467,-406.112"/>
<polygon fill="black" stroke="black" points="470.5,-406.104 467,-396.104 463.5,-406.104 470.5,-406.104"/>
</g>
<!-- 60 -->
<g id="node61" class="node"><title>60</title>
<ellipse fill="none" stroke="black" cx="467" cy="-306" rx="27" ry="18"/>
<text text-anchor="middle" x="467" y="-302.3" font-family="Times New Roman,serif" font-size="14.00">60</text>
</g>
<!-- 59&#45;&gt;60 -->
<g id="edge68" class="edge"><title>59&#45;&gt;60</title>
<path fill="none" stroke="black" d="M467,-359.697C467,-351.983 467,-342.712 467,-334.112"/>
<polygon fill="black" stroke="black" points="470.5,-334.104 467,-324.104 463.5,-334.104 470.5,-334.104"/>
</g>
<!-- 61 -->
<g id="node62" class="node"><title>61</title>
<ellipse fill="none" stroke="black" cx="467" cy="-234" rx="27" ry="18"/>
<text text-anchor="middle" x="467" y="-230.3" font-family="Times New Roman,serif" font-size="14.00">61</text>
</g>
<!-- 60&#45;&gt;61 -->
<g id="edge69" class="edge"><title>60&#45;&gt;61</title>
<path fill="none" stroke="black" d="M467,-287.697C467,-279.983 467,-270.712 467,-262.112"/>
<polygon fill="black" stroke="black" points="470.5,-262.104 467,-252.104 463.5,-262.104 470.5,-262.104"/>
</g>
<!-- 62 -->
<g id="node63" class="node"><title>62</title>
<ellipse fill="none" stroke="black" cx="467" cy="-162" rx="27" ry="18"/>
<text text-anchor="middle" x="467" y="-158.3" font-family="Times New Roman,serif" font-size="14.00">62</text>
</g>
<!-- 61&#45;&gt;62 -->
<g id="edge70" class="edge"><title>61&#45;&gt;62</title>
<path fill="none" stroke="black" d="M467,-215.697C467,-207.983 467,-198.712 467,-190.112"/>
<polygon fill="black" stroke="black" points="470.5,-190.104 467,-180.104 463.5,-190.104 470.5,-190.104"/>
</g>
<!-- 63 -->
<g id="node64" class="node"><title>63</title>
<ellipse fill="none" stroke="black" cx="467" cy="-90" rx="27" ry="18"/>
<text text-anchor="middle" x="467" y="-86.3" font-family="Times New Roman,serif" font-size="14.00">63</text>
</g>
<!-- 62&#45;&gt;63 -->
<g id="edge71" class="edge"><title>62&#45;&gt;63</title>
<path fill="none" stroke="black" d="M467,-143.697C467,-135.983 467,-126.712 467,-118.112"/>
<polygon fill="black" stroke="black" points="470.5,-118.104 467,-108.104 463.5,-118.104 470.5,-118.104"/>
</g>
<!-- F -->
<g id="node65" class="node"><title>F</title>
<ellipse fill="none" stroke="black" cx="467" cy="-18" rx="27" ry="18"/>
<text text-anchor="middle" x="467" y="-14.3" font-family="Times New Roman,serif" font-size="14.00">F</text>
</g>
<!-- 63&#45;&gt;F -->
<g id="edge72" class="edge"><title>63&#45;&gt;F</title>
<path fill="none" stroke="black" d="M467,-71.6966C467,-63.9827 467,-54.7125 467,-46.1124"/>
<polygon fill="black" stroke="black" points="470.5,-46.1043 467,-36.1043 463.5,-46.1044 470.5,-46.1043"/>
</g>
</g>
</svg>
