<?xml version="1.0" encoding="UTF-8" standalone="no"?>
<!DOCTYPE svg PUBLIC "-//W3C//DTD SVG 1.1//EN"
 "http://www.w3.org/Graphics/SVG/1.1/DTD/svg11.dtd">
<!-- Generated by graphviz version 2.38.0 (20140413.2041)
 -->
<!-- Title: main Pages: 1 -->
<svg width="1130pt" height="188pt"
 viewBox="0.00 0.00 1130.45 188.00" xmlns="http://www.w3.org/2000/svg" xmlns:xlink="http://www.w3.org/1999/xlink">
<g id="graph0" class="graph" transform="scale(1 1) rotate(0) translate(4 184)">
<title>main</title>
<polygon fill="white" stroke="none" points="-4,4 -4,-184 1126.45,-184 1126.45,4 -4,4"/>
<!-- function_main_argumentos__devuelve__void -->
<g id="node1" class="node"><title>function_main_argumentos__devuelve__void</title>
<ellipse fill="none" stroke="black" cx="617.121" cy="-162" rx="176.569" ry="18"/>
<text text-anchor="middle" x="617.121" y="-158.3" font-family="Times New Roman,serif" font-size="14.00">function_main_argumentos__devuelve__void</text>
</g>
<!-- function_miFuncion01x_argumentos_param1_param2_param3_valores_devuelve__void -->
<g id="node2" class="node"><title>function_miFuncion01x_argumentos_param1_param2_param3_valores_devuelve__void</title>
<ellipse fill="none" stroke="black" cx="332.121" cy="-90" rx="332.241" ry="18"/>
<text text-anchor="middle" x="332.121" y="-86.3" font-family="Times New Roman,serif" font-size="14.00">function_miFuncion01x_argumentos_param1_param2_param3_valores_devuelve__void</text>
</g>
<!-- function_main_argumentos__devuelve__void&#45;&gt;function_miFuncion01x_argumentos_param1_param2_param3_valores_devuelve__void -->
<g id="edge1" class="edge"><title>function_main_argumentos__devuelve__void&#45;&gt;function_miFuncion01x_argumentos_param1_param2_param3_valores_devuelve__void</title>
<path fill="none" stroke="black" d="M552.806,-145.203C510.45,-134.8 454.748,-121.119 409.903,-110.104"/>
<polygon fill="black" stroke="black" points="410.471,-106.64 399.924,-107.654 408.801,-113.438 410.471,-106.64"/>
</g>
<!-- function_miFuncion01x_argumentos__devuelve__cadena -->
<g id="node3" class="node"><title>function_miFuncion01x_argumentos__devuelve__cadena</title>
<ellipse fill="none" stroke="black" cx="902.121" cy="-90" rx="220.161" ry="18"/>
<text text-anchor="middle" x="902.121" y="-86.3" font-family="Times New Roman,serif" font-size="14.00">function_miFuncion01x_argumentos__devuelve__cadena</text>
</g>
<!-- function_main_argumentos__devuelve__void&#45;&gt;function_miFuncion01x_argumentos__devuelve__cadena -->
<g id="edge2" class="edge"><title>function_main_argumentos__devuelve__void&#45;&gt;function_miFuncion01x_argumentos__devuelve__cadena</title>
<path fill="none" stroke="black" d="M681.435,-145.203C724.415,-134.647 781.138,-120.715 826.314,-109.619"/>
<polygon fill="black" stroke="black" points="827.186,-113.009 836.062,-107.225 825.516,-106.211 827.186,-113.009"/>
</g>
<!-- imprimir -->
<g id="node4" class="node"><title>imprimir</title>
<ellipse fill="none" stroke="black" cx="902.121" cy="-18" rx="40.8928" ry="18"/>
<text text-anchor="middle" x="902.121" y="-14.3" font-family="Times New Roman,serif" font-size="14.00">imprimir</text>
</g>
<!-- function_miFuncion01x_argumentos__devuelve__cadena&#45;&gt;imprimir -->
<g id="edge3" class="edge"><title>function_miFuncion01x_argumentos__devuelve__cadena&#45;&gt;imprimir</title>
<path fill="none" stroke="black" d="M902.121,-71.6966C902.121,-63.9827 902.121,-54.7125 902.121,-46.1124"/>
<polygon fill="black" stroke="black" points="905.621,-46.1043 902.121,-36.1043 898.621,-46.1044 905.621,-46.1043"/>
</g>
</g>
</svg>
