<?xml version="1.0" encoding="UTF-8" standalone="no"?>
<!DOCTYPE svg PUBLIC "-//W3C//DTD SVG 1.1//EN"
 "http://www.w3.org/Graphics/SVG/1.1/DTD/svg11.dtd">
<!-- Generated by graphviz version 2.38.0 (20140413.2041)
 -->
<!-- Title: main Pages: 1 -->
<svg width="896pt" height="260pt"
 viewBox="0.00 0.00 896.46 260.00" xmlns="http://www.w3.org/2000/svg" xmlns:xlink="http://www.w3.org/1999/xlink">
<g id="graph0" class="graph" transform="scale(1 1) rotate(0) translate(4 256)">
<title>main</title>
<polygon fill="white" stroke="none" points="-4,4 -4,-256 892.461,-256 892.461,4 -4,4"/>
<!-- function_main_argumentos__devuelve__void -->
<g id="node1" class="node"><title>function_main_argumentos__devuelve__void</title>
<ellipse fill="none" stroke="black" cx="433.982" cy="-234" rx="176.569" ry="18"/>
<text text-anchor="middle" x="433.982" y="-230.3" font-family="Times New Roman,serif" font-size="14.00">function_main_argumentos__devuelve__void</text>
</g>
<!-- function_imprimir_argumentos_texto_devuelve__void -->
<g id="node2" class="node"><title>function_imprimir_argumentos_texto_devuelve__void</title>
<ellipse fill="none" stroke="black" cx="207.982" cy="-162" rx="207.963" ry="18"/>
<text text-anchor="middle" x="207.982" y="-158.3" font-family="Times New Roman,serif" font-size="14.00">function_imprimir_argumentos_texto_devuelve__void</text>
</g>
<!-- function_main_argumentos__devuelve__void&#45;&gt;function_imprimir_argumentos_texto_devuelve__void -->
<g id="edge1" class="edge"><title>function_main_argumentos__devuelve__void&#45;&gt;function_imprimir_argumentos_texto_devuelve__void</title>
<path fill="none" stroke="black" d="M381.565,-216.765C348.549,-206.539 305.737,-193.278 270.892,-182.486"/>
<polygon fill="black" stroke="black" points="271.878,-179.127 261.29,-179.511 269.807,-185.814 271.878,-179.127"/>
</g>
<!-- function_fibonacci_argumentos_umbral_devuelve__cadena -->
<g id="node4" class="node"><title>function_fibonacci_argumentos_umbral_devuelve__cadena</title>
<ellipse fill="none" stroke="black" cx="660.982" cy="-162" rx="227.46" ry="18"/>
<text text-anchor="middle" x="660.982" y="-158.3" font-family="Times New Roman,serif" font-size="14.00">function_fibonacci_argumentos_umbral_devuelve__cadena</text>
</g>
<!-- function_main_argumentos__devuelve__void&#45;&gt;function_fibonacci_argumentos_umbral_devuelve__cadena -->
<g id="edge3" class="edge"><title>function_main_argumentos__devuelve__void&#45;&gt;function_fibonacci_argumentos_umbral_devuelve__cadena</title>
<path fill="none" stroke="black" d="M486.63,-216.765C519.792,-206.539 562.793,-193.278 597.793,-182.486"/>
<polygon fill="black" stroke="black" points="598.913,-185.803 607.437,-179.511 596.85,-179.114 598.913,-185.803"/>
</g>
<!-- printf -->
<g id="node3" class="node"><title>printf</title>
<ellipse fill="none" stroke="black" cx="207.982" cy="-90" rx="30.5947" ry="18"/>
<text text-anchor="middle" x="207.982" y="-86.3" font-family="Times New Roman,serif" font-size="14.00">printf</text>
</g>
<!-- function_imprimir_argumentos_texto_devuelve__void&#45;&gt;printf -->
<g id="edge2" class="edge"><title>function_imprimir_argumentos_texto_devuelve__void&#45;&gt;printf</title>
<path fill="none" stroke="black" d="M207.982,-143.697C207.982,-135.983 207.982,-126.712 207.982,-118.112"/>
<polygon fill="black" stroke="black" points="211.482,-118.104 207.982,-108.104 204.482,-118.104 211.482,-118.104"/>
</g>
<!-- function_aCadena_argumentos_x_devuelve__cadena -->
<g id="node5" class="node"><title>function_aCadena_argumentos_x_devuelve__cadena</title>
<ellipse fill="none" stroke="black" cx="660.982" cy="-90" rx="204.164" ry="18"/>
<text text-anchor="middle" x="660.982" y="-86.3" font-family="Times New Roman,serif" font-size="14.00">function_aCadena_argumentos_x_devuelve__cadena</text>
</g>
<!-- function_fibonacci_argumentos_umbral_devuelve__cadena&#45;&gt;function_aCadena_argumentos_x_devuelve__cadena -->
<g id="edge4" class="edge"><title>function_fibonacci_argumentos_umbral_devuelve__cadena&#45;&gt;function_aCadena_argumentos_x_devuelve__cadena</title>
<path fill="none" stroke="black" d="M660.982,-143.697C660.982,-135.983 660.982,-126.712 660.982,-118.112"/>
<polygon fill="black" stroke="black" points="664.482,-118.104 660.982,-108.104 657.482,-118.104 664.482,-118.104"/>
</g>
<!-- sprintf -->
<g id="node6" class="node"><title>sprintf</title>
<ellipse fill="none" stroke="black" cx="660.982" cy="-18" rx="34.394" ry="18"/>
<text text-anchor="middle" x="660.982" y="-14.3" font-family="Times New Roman,serif" font-size="14.00">sprintf</text>
</g>
<!-- function_aCadena_argumentos_x_devuelve__cadena&#45;&gt;sprintf -->
<g id="edge5" class="edge"><title>function_aCadena_argumentos_x_devuelve__cadena&#45;&gt;sprintf</title>
<path fill="none" stroke="black" d="M660.982,-71.6966C660.982,-63.9827 660.982,-54.7125 660.982,-46.1124"/>
<polygon fill="black" stroke="black" points="664.482,-46.1043 660.982,-36.1043 657.482,-46.1044 664.482,-46.1043"/>
</g>
</g>
</svg>
