<?xml version="1.0" encoding="UTF-8" standalone="no"?>
<!DOCTYPE svg PUBLIC "-//W3C//DTD SVG 1.1//EN"
 "http://www.w3.org/Graphics/SVG/1.1/DTD/svg11.dtd">
<!-- Generated by graphviz version 2.38.0 (20140413.2041)
 -->
<!-- Title: main Pages: 1 -->
<svg width="1687pt" height="188pt"
 viewBox="0.00 0.00 1686.84 188.00" xmlns="http://www.w3.org/2000/svg" xmlns:xlink="http://www.w3.org/1999/xlink">
<g id="graph0" class="graph" transform="scale(1 1) rotate(0) translate(4 184)">
<title>main</title>
<polygon fill="white" stroke="none" points="-4,4 -4,-184 1682.84,-184 1682.84,4 -4,4"/>
<!-- function_main_argumentos__devuelve__void -->
<g id="node1" class="node"><title>function_main_argumentos__devuelve__void</title>
<ellipse fill="none" stroke="black" cx="620.946" cy="-162" rx="176.569" ry="18"/>
<text text-anchor="middle" x="620.946" y="-158.3" font-family="Times New Roman,serif" font-size="14.00">function_main_argumentos__devuelve__void</text>
</g>
<!-- function_prueba_argumentos__devuelve__void -->
<g id="node2" class="node"><title>function_prueba_argumentos__devuelve__void</title>
<ellipse fill="none" stroke="black" cx="620.946" cy="-90" rx="184.667" ry="18"/>
<text text-anchor="middle" x="620.946" y="-86.3" font-family="Times New Roman,serif" font-size="14.00">function_prueba_argumentos__devuelve__void</text>
</g>
<!-- function_main_argumentos__devuelve__void&#45;&gt;function_prueba_argumentos__devuelve__void -->
<g id="edge1" class="edge"><title>function_main_argumentos__devuelve__void&#45;&gt;function_prueba_argumentos__devuelve__void</title>
<path fill="none" stroke="black" d="M620.946,-143.697C620.946,-135.983 620.946,-126.712 620.946,-118.112"/>
<polygon fill="black" stroke="black" points="624.446,-118.104 620.946,-108.104 617.446,-118.104 624.446,-118.104"/>
</g>
<!-- imprimir -->
<g id="node3" class="node"><title>imprimir</title>
<ellipse fill="none" stroke="black" cx="40.9464" cy="-18" rx="40.8928" ry="18"/>
<text text-anchor="middle" x="40.9464" y="-14.3" font-family="Times New Roman,serif" font-size="14.00">imprimir</text>
</g>
<!-- function_prueba_argumentos__devuelve__void&#45;&gt;imprimir -->
<g id="edge2" class="edge"><title>function_prueba_argumentos__devuelve__void&#45;&gt;imprimir</title>
<path fill="none" stroke="black" d="M454.704,-82.1161C349.496,-75.37 211.137,-62.0836 90.9464,-36 87.5276,-35.2581 84.0171,-34.3596 80.5183,-33.3678"/>
<polygon fill="black" stroke="black" points="81.3613,-29.9655 70.7745,-30.378 79.3078,-36.6575 81.3613,-29.9655"/>
</g>
<!-- hazAlgo -->
<g id="node4" class="node"><title>hazAlgo</title>
<ellipse fill="none" stroke="black" cx="139.946" cy="-18" rx="40.0939" ry="18"/>
<text text-anchor="middle" x="139.946" y="-14.3" font-family="Times New Roman,serif" font-size="14.00">hazAlgo</text>
</g>
<!-- function_prueba_argumentos__devuelve__void&#45;&gt;hazAlgo -->
<g id="edge3" class="edge"><title>function_prueba_argumentos__devuelve__void&#45;&gt;hazAlgo</title>
<path fill="none" stroke="black" d="M475.609,-78.8969C391.163,-71.1125 283.163,-57.8625 188.946,-36 185.745,-35.2571 182.46,-34.3805 179.181,-33.4233"/>
<polygon fill="black" stroke="black" points="180.039,-30.0242 169.45,-30.3636 177.939,-36.7019 180.039,-30.0242"/>
</g>
<!-- fopen -->
<g id="node5" class="node"><title>fopen</title>
<ellipse fill="none" stroke="black" cx="229.946" cy="-18" rx="31.6951" ry="18"/>
<text text-anchor="middle" x="229.946" y="-14.3" font-family="Times New Roman,serif" font-size="14.00">fopen</text>
</g>
<!-- function_prueba_argumentos__devuelve__void&#45;&gt;fopen -->
<g id="edge4" class="edge"><title>function_prueba_argumentos__devuelve__void&#45;&gt;fopen</title>
<path fill="none" stroke="black" d="M492.194,-77.076C425.369,-68.9931 342.878,-56.0371 270.946,-36 268.478,-35.3125 265.96,-34.5168 263.445,-33.6526"/>
<polygon fill="black" stroke="black" points="264.476,-30.3012 253.884,-30.064 262.016,-36.8548 264.476,-30.3012"/>
</g>
<!-- fwrite -->
<g id="node6" class="node"><title>fwrite</title>
<ellipse fill="none" stroke="black" cx="310.946" cy="-18" rx="31.3957" ry="18"/>
<text text-anchor="middle" x="310.946" y="-14.3" font-family="Times New Roman,serif" font-size="14.00">fwrite</text>
</g>
<!-- function_prueba_argumentos__devuelve__void&#45;&gt;fwrite -->
<g id="edge5" class="edge"><title>function_prueba_argumentos__devuelve__void&#45;&gt;fwrite</title>
<path fill="none" stroke="black" d="M523.946,-74.6768C472.272,-65.8519 407.985,-52.9545 351.946,-36 349.494,-35.258 346.987,-34.422 344.481,-33.5289"/>
<polygon fill="black" stroke="black" points="345.528,-30.1822 334.938,-29.8794 343.028,-36.7205 345.528,-30.1822"/>
</g>
<!-- fclose -->
<g id="node7" class="node"><title>fclose</title>
<ellipse fill="none" stroke="black" cx="392.946" cy="-18" rx="32.4942" ry="18"/>
<text text-anchor="middle" x="392.946" y="-14.3" font-family="Times New Roman,serif" font-size="14.00">fclose</text>
</g>
<!-- function_prueba_argumentos__devuelve__void&#45;&gt;fclose -->
<g id="edge6" class="edge"><title>function_prueba_argumentos__devuelve__void&#45;&gt;fclose</title>
<path fill="none" stroke="black" d="M557.615,-73.0247C521.128,-63.3312 474.584,-50.1294 433.946,-36 431.817,-35.2598 429.64,-34.4668 427.452,-33.6428"/>
<polygon fill="black" stroke="black" points="428.507,-30.2967 417.92,-29.8984 425.948,-36.8122 428.507,-30.2967"/>
</g>
<!-- freadAll -->
<g id="node8" class="node"><title>freadAll</title>
<ellipse fill="none" stroke="black" cx="482.946" cy="-18" rx="39.7935" ry="18"/>
<text text-anchor="middle" x="482.946" y="-14.3" font-family="Times New Roman,serif" font-size="14.00">freadAll</text>
</g>
<!-- function_prueba_argumentos__devuelve__void&#45;&gt;freadAll -->
<g id="edge7" class="edge"><title>function_prueba_argumentos__devuelve__void&#45;&gt;freadAll</title>
<path fill="none" stroke="black" d="M587.892,-72.2333C566.637,-61.4519 539.069,-47.4681 517.522,-36.5385"/>
<polygon fill="black" stroke="black" points="518.894,-33.3097 508.392,-31.9073 515.727,-39.5525 518.894,-33.3097"/>
</g>
<!-- print -->
<g id="node9" class="node"><title>print</title>
<ellipse fill="none" stroke="black" cx="567.946" cy="-18" rx="27.0966" ry="18"/>
<text text-anchor="middle" x="567.946" y="-14.3" font-family="Times New Roman,serif" font-size="14.00">print</text>
</g>
<!-- function_prueba_argumentos__devuelve__void&#45;&gt;print -->
<g id="edge8" class="edge"><title>function_prueba_argumentos__devuelve__void&#45;&gt;print</title>
<path fill="none" stroke="black" d="M607.845,-71.6966C601.274,-63.0174 593.211,-52.3679 586.057,-42.9196"/>
<polygon fill="black" stroke="black" points="588.639,-40.5311 579.812,-34.6712 583.058,-44.7566 588.639,-40.5311"/>
</g>
<!-- cadenaDonde -->
<g id="node10" class="node"><title>cadenaDonde</title>
<ellipse fill="none" stroke="black" cx="673.946" cy="-18" rx="60.3893" ry="18"/>
<text text-anchor="middle" x="673.946" y="-14.3" font-family="Times New Roman,serif" font-size="14.00">cadenaDonde</text>
</g>
<!-- function_prueba_argumentos__devuelve__void&#45;&gt;cadenaDonde -->
<g id="edge9" class="edge"><title>function_prueba_argumentos__devuelve__void&#45;&gt;cadenaDonde</title>
<path fill="none" stroke="black" d="M634.047,-71.6966C640.431,-63.2653 648.223,-52.9748 655.22,-43.7323"/>
<polygon fill="black" stroke="black" points="658.115,-45.7077 661.361,-35.6223 652.534,-41.4822 658.115,-45.7077"/>
</g>
<!-- cadenaSinEspacios -->
<g id="node11" class="node"><title>cadenaSinEspacios</title>
<ellipse fill="none" stroke="black" cx="833.946" cy="-18" rx="81.4863" ry="18"/>
<text text-anchor="middle" x="833.946" y="-14.3" font-family="Times New Roman,serif" font-size="14.00">cadenaSinEspacios</text>
</g>
<!-- function_prueba_argumentos__devuelve__void&#45;&gt;cadenaSinEspacios -->
<g id="edge10" class="edge"><title>function_prueba_argumentos__devuelve__void&#45;&gt;cadenaSinEspacios</title>
<path fill="none" stroke="black" d="M670.885,-72.5881C703.9,-61.7382 747.131,-47.531 780.783,-36.4714"/>
<polygon fill="black" stroke="black" points="782.043,-39.7417 790.45,-33.2945 779.857,-33.0916 782.043,-39.7417"/>
</g>
<!-- cadenaSustituida -->
<g id="node12" class="node"><title>cadenaSustituida</title>
<ellipse fill="none" stroke="black" cx="1004.95" cy="-18" rx="71.4873" ry="18"/>
<text text-anchor="middle" x="1004.95" y="-14.3" font-family="Times New Roman,serif" font-size="14.00">cadenaSustituida</text>
</g>
<!-- function_prueba_argumentos__devuelve__void&#45;&gt;cadenaSustituida -->
<g id="edge11" class="edge"><title>function_prueba_argumentos__devuelve__void&#45;&gt;cadenaSustituida</title>
<path fill="none" stroke="black" d="M710.253,-74.1921C770.674,-63.974 852.232,-49.7935 923.946,-36 929.822,-34.8699 935.929,-33.6576 942.037,-32.4199"/>
<polygon fill="black" stroke="black" points="943.182,-35.7581 952.277,-30.3227 941.778,-28.9004 943.182,-35.7581"/>
</g>
<!-- cadenaIzquierda -->
<g id="node13" class="node"><title>cadenaIzquierda</title>
<ellipse fill="none" stroke="black" cx="1163.95" cy="-18" rx="69.5877" ry="18"/>
<text text-anchor="middle" x="1163.95" y="-14.3" font-family="Times New Roman,serif" font-size="14.00">cadenaIzquierda</text>
</g>
<!-- function_prueba_argumentos__devuelve__void&#45;&gt;cadenaIzquierda -->
<g id="edge12" class="edge"><title>function_prueba_argumentos__devuelve__void&#45;&gt;cadenaIzquierda</title>
<path fill="none" stroke="black" d="M752.924,-77.4059C846.042,-68.3771 973.537,-54.3045 1084.95,-36 1091.12,-34.985 1097.55,-33.8073 1103.95,-32.5545"/>
<polygon fill="black" stroke="black" points="1104.83,-35.947 1113.94,-30.5365 1103.44,-29.0855 1104.83,-35.947"/>
</g>
<!-- cadenaDerecha -->
<g id="node14" class="node"><title>cadenaDerecha</title>
<ellipse fill="none" stroke="black" cx="1316.95" cy="-18" rx="65.7887" ry="18"/>
<text text-anchor="middle" x="1316.95" y="-14.3" font-family="Times New Roman,serif" font-size="14.00">cadenaDerecha</text>
</g>
<!-- function_prueba_argumentos__devuelve__void&#45;&gt;cadenaDerecha -->
<g id="edge13" class="edge"><title>function_prueba_argumentos__devuelve__void&#45;&gt;cadenaDerecha</title>
<path fill="none" stroke="black" d="M783.441,-81.4289C909.382,-74.0489 1087.96,-60.2818 1242.95,-36 1248.62,-35.1112 1254.5,-34.0326 1260.37,-32.8546"/>
<polygon fill="black" stroke="black" points="1261.1,-36.2771 1270.16,-30.7941 1259.66,-29.4269 1261.1,-36.2771"/>
</g>
<!-- cadenaDentro -->
<g id="node15" class="node"><title>cadenaDentro</title>
<ellipse fill="none" stroke="black" cx="1461.95" cy="-18" rx="61.1893" ry="18"/>
<text text-anchor="middle" x="1461.95" y="-14.3" font-family="Times New Roman,serif" font-size="14.00">cadenaDentro</text>
</g>
<!-- function_prueba_argumentos__devuelve__void&#45;&gt;cadenaDentro -->
<g id="edge14" class="edge"><title>function_prueba_argumentos__devuelve__void&#45;&gt;cadenaDentro</title>
<path fill="none" stroke="black" d="M799.508,-85.2984C956.385,-80.0098 1190.4,-67.1695 1391.95,-36 1397.35,-35.1638 1402.96,-34.1168 1408.53,-32.9557"/>
<polygon fill="black" stroke="black" points="1409.47,-36.3322 1418.49,-30.763 1407.97,-29.4961 1409.47,-36.3322"/>
</g>
<!-- cadenaLongitud -->
<g id="node16" class="node"><title>cadenaLongitud</title>
<ellipse fill="none" stroke="black" cx="1609.95" cy="-18" rx="68.7879" ry="18"/>
<text text-anchor="middle" x="1609.95" y="-14.3" font-family="Times New Roman,serif" font-size="14.00">cadenaLongitud</text>
</g>
<!-- function_prueba_argumentos__devuelve__void&#45;&gt;cadenaLongitud -->
<g id="edge15" class="edge"><title>function_prueba_argumentos__devuelve__void&#45;&gt;cadenaLongitud</title>
<path fill="none" stroke="black" d="M802.814,-86.7765C987.281,-82.5641 1280.62,-70.483 1531.95,-36 1538.25,-35.1346 1544.81,-34.0323 1551.32,-32.8061"/>
<polygon fill="black" stroke="black" points="1552.35,-36.1711 1561.47,-30.7935 1550.98,-29.3047 1552.35,-36.1711"/>
</g>
</g>
</svg>
