<?xml version="1.0" encoding="UTF-8" standalone="no"?>
<!DOCTYPE svg PUBLIC "-//W3C//DTD SVG 1.1//EN"
 "http://www.w3.org/Graphics/SVG/1.1/DTD/svg11.dtd">
<!-- Generated by graphviz version 2.38.0 (20140413.2041)
 -->
<!-- Title: grafoCompleto Pages: 1 -->
<svg width="326pt" height="620pt"
 viewBox="0.00 0.00 326.00 620.00" xmlns="http://www.w3.org/2000/svg" xmlns:xlink="http://www.w3.org/1999/xlink">
<g id="graph0" class="graph" transform="scale(1 1) rotate(0) translate(4 616)">
<title>grafoCompleto</title>
<polygon fill="white" stroke="none" points="-4,4 -4,-616 322,-616 322,4 -4,4"/>
<!-- 1 -->
<g id="node1" class="node"><title>1</title>
<ellipse fill="none" stroke="black" cx="143" cy="-594" rx="27" ry="18"/>
<text text-anchor="middle" x="143" y="-590.3" font-family="Times New Roman,serif" font-size="14.00">1</text>
</g>
<!-- 2 -->
<g id="node2" class="node"><title>2</title>
<ellipse fill="none" stroke="black" cx="143" cy="-522" rx="27" ry="18"/>
<text text-anchor="middle" x="143" y="-518.3" font-family="Times New Roman,serif" font-size="14.00">2</text>
</g>
<!-- 1&#45;&gt;2 -->
<g id="edge1" class="edge"><title>1&#45;&gt;2</title>
<path fill="none" stroke="black" d="M143,-575.697C143,-567.983 143,-558.712 143,-550.112"/>
<polygon fill="black" stroke="black" points="146.5,-550.104 143,-540.104 139.5,-550.104 146.5,-550.104"/>
</g>
<!-- 8 -->
<g id="node3" class="node"><title>8</title>
<ellipse fill="none" stroke="black" cx="71" cy="-450" rx="27" ry="18"/>
<text text-anchor="middle" x="71" y="-446.3" font-family="Times New Roman,serif" font-size="14.00">8</text>
</g>
<!-- 1&#45;&gt;8 -->
<g id="edge2" class="edge"><title>1&#45;&gt;8</title>
<path fill="none" stroke="black" d="M131.049,-577.32C123.556,-567.053 114.022,-553.148 107,-540 96.1854,-519.75 86.5869,-495.527 80.0264,-477.468"/>
<polygon fill="black" stroke="black" points="83.2651,-476.129 76.6173,-467.879 76.6695,-478.474 83.2651,-476.129"/>
</g>
<!-- 2&#45;&gt;8 -->
<g id="edge4" class="edge"><title>2&#45;&gt;8</title>
<path fill="none" stroke="black" d="M128.43,-506.834C118.25,-496.938 104.476,-483.546 92.9694,-472.359"/>
<polygon fill="black" stroke="black" points="95.4055,-469.846 85.7957,-465.385 90.5259,-474.865 95.4055,-469.846"/>
</g>
<!-- 3 -->
<g id="node4" class="node"><title>3</title>
<ellipse fill="none" stroke="black" cx="143" cy="-450" rx="27" ry="18"/>
<text text-anchor="middle" x="143" y="-446.3" font-family="Times New Roman,serif" font-size="14.00">3</text>
</g>
<!-- 2&#45;&gt;3 -->
<g id="edge3" class="edge"><title>2&#45;&gt;3</title>
<path fill="none" stroke="black" d="M143,-503.697C143,-495.983 143,-486.712 143,-478.112"/>
<polygon fill="black" stroke="black" points="146.5,-478.104 143,-468.104 139.5,-478.104 146.5,-478.104"/>
</g>
<!-- 9 -->
<g id="node9" class="node"><title>9</title>
<ellipse fill="none" stroke="black" cx="79" cy="-378" rx="27" ry="18"/>
<text text-anchor="middle" x="79" y="-374.3" font-family="Times New Roman,serif" font-size="14.00">9</text>
</g>
<!-- 8&#45;&gt;9 -->
<g id="edge8" class="edge"><title>8&#45;&gt;9</title>
<path fill="none" stroke="black" d="M72.9775,-431.697C73.8591,-423.983 74.9186,-414.712 75.9014,-406.112"/>
<polygon fill="black" stroke="black" points="79.387,-406.437 77.0452,-396.104 72.4323,-405.642 79.387,-406.437"/>
</g>
<!-- 4 -->
<g id="node5" class="node"><title>4</title>
<ellipse fill="none" stroke="black" cx="291" cy="-594" rx="27" ry="18"/>
<text text-anchor="middle" x="291" y="-590.3" font-family="Times New Roman,serif" font-size="14.00">4</text>
</g>
<!-- 5 -->
<g id="node6" class="node"><title>5</title>
<ellipse fill="none" stroke="black" cx="291" cy="-522" rx="27" ry="18"/>
<text text-anchor="middle" x="291" y="-518.3" font-family="Times New Roman,serif" font-size="14.00">5</text>
</g>
<!-- 4&#45;&gt;5 -->
<g id="edge5" class="edge"><title>4&#45;&gt;5</title>
<path fill="none" stroke="black" d="M291,-575.697C291,-567.983 291,-558.712 291,-550.112"/>
<polygon fill="black" stroke="black" points="294.5,-550.104 291,-540.104 287.5,-550.104 294.5,-550.104"/>
</g>
<!-- 6 -->
<g id="node7" class="node"><title>6</title>
<ellipse fill="none" stroke="black" cx="291" cy="-450" rx="27" ry="18"/>
<text text-anchor="middle" x="291" y="-446.3" font-family="Times New Roman,serif" font-size="14.00">6</text>
</g>
<!-- 5&#45;&gt;6 -->
<g id="edge6" class="edge"><title>5&#45;&gt;6</title>
<path fill="none" stroke="black" d="M291,-503.697C291,-495.983 291,-486.712 291,-478.112"/>
<polygon fill="black" stroke="black" points="294.5,-478.104 291,-468.104 287.5,-478.104 294.5,-478.104"/>
</g>
<!-- 7 -->
<g id="node8" class="node"><title>7</title>
<ellipse fill="none" stroke="black" cx="291" cy="-378" rx="27" ry="18"/>
<text text-anchor="middle" x="291" y="-374.3" font-family="Times New Roman,serif" font-size="14.00">7</text>
</g>
<!-- 6&#45;&gt;7 -->
<g id="edge7" class="edge"><title>6&#45;&gt;7</title>
<path fill="none" stroke="black" d="M291,-431.697C291,-423.983 291,-414.712 291,-406.112"/>
<polygon fill="black" stroke="black" points="294.5,-406.104 291,-396.104 287.5,-406.104 294.5,-406.104"/>
</g>
<!-- 10 -->
<g id="node10" class="node"><title>10</title>
<ellipse fill="none" stroke="black" cx="27" cy="-306" rx="27" ry="18"/>
<text text-anchor="middle" x="27" y="-302.3" font-family="Times New Roman,serif" font-size="14.00">10</text>
</g>
<!-- 9&#45;&gt;10 -->
<g id="edge9" class="edge"><title>9&#45;&gt;10</title>
<path fill="none" stroke="black" d="M67.4595,-361.465C60.7273,-352.402 52.0985,-340.786 44.5403,-330.612"/>
<polygon fill="black" stroke="black" points="47.2811,-328.432 38.5082,-322.492 41.6619,-332.606 47.2811,-328.432"/>
</g>
<!-- 12 -->
<g id="node11" class="node"><title>12</title>
<ellipse fill="none" stroke="black" cx="141" cy="-306" rx="27" ry="18"/>
<text text-anchor="middle" x="141" y="-302.3" font-family="Times New Roman,serif" font-size="14.00">12</text>
</g>
<!-- 9&#45;&gt;12 -->
<g id="edge10" class="edge"><title>9&#45;&gt;12</title>
<path fill="none" stroke="black" d="M92.1486,-362.155C100.533,-352.689 111.56,-340.238 121.016,-329.563"/>
<polygon fill="black" stroke="black" points="123.86,-331.63 127.87,-321.824 118.62,-326.989 123.86,-331.63"/>
</g>
<!-- 11 -->
<g id="node12" class="node"><title>11</title>
<ellipse fill="none" stroke="black" cx="48" cy="-234" rx="27" ry="18"/>
<text text-anchor="middle" x="48" y="-230.3" font-family="Times New Roman,serif" font-size="14.00">11</text>
</g>
<!-- 10&#45;&gt;11 -->
<g id="edge11" class="edge"><title>10&#45;&gt;11</title>
<path fill="none" stroke="black" d="M32.0835,-288.055C34.4824,-280.059 37.4008,-270.331 40.0801,-261.4"/>
<polygon fill="black" stroke="black" points="43.4421,-262.373 42.9633,-251.789 36.7374,-260.362 43.4421,-262.373"/>
</g>
<!-- 13 -->
<g id="node13" class="node"><title>13</title>
<ellipse fill="none" stroke="black" cx="142" cy="-234" rx="27" ry="18"/>
<text text-anchor="middle" x="142" y="-230.3" font-family="Times New Roman,serif" font-size="14.00">13</text>
</g>
<!-- 12&#45;&gt;13 -->
<g id="edge13" class="edge"><title>12&#45;&gt;13</title>
<path fill="none" stroke="black" d="M141.247,-287.697C141.357,-279.983 141.49,-270.712 141.613,-262.112"/>
<polygon fill="black" stroke="black" points="145.112,-262.153 141.756,-252.104 138.113,-262.053 145.112,-262.153"/>
</g>
<!-- 11&#45;&gt;9 -->
<g id="edge12" class="edge"><title>11&#45;&gt;9</title>
<path fill="none" stroke="black" d="M53.2923,-252.076C56.3797,-262.409 60.2041,-275.887 63,-288 67.7367,-308.522 71.9029,-331.976 74.7957,-349.654"/>
<polygon fill="black" stroke="black" points="71.389,-350.516 76.4261,-359.837 78.301,-349.409 71.389,-350.516"/>
</g>
<!-- 14 -->
<g id="node14" class="node"><title>14</title>
<ellipse fill="none" stroke="black" cx="126" cy="-162" rx="27" ry="18"/>
<text text-anchor="middle" x="126" y="-158.3" font-family="Times New Roman,serif" font-size="14.00">14</text>
</g>
<!-- 13&#45;&gt;14 -->
<g id="edge14" class="edge"><title>13&#45;&gt;14</title>
<path fill="none" stroke="black" d="M138.127,-216.055C136.345,-208.261 134.188,-198.822 132.189,-190.079"/>
<polygon fill="black" stroke="black" points="135.589,-189.244 129.949,-180.275 128.765,-190.804 135.589,-189.244"/>
</g>
<!-- 19 -->
<g id="node15" class="node"><title>19</title>
<ellipse fill="none" stroke="black" cx="198" cy="-162" rx="27" ry="18"/>
<text text-anchor="middle" x="198" y="-158.3" font-family="Times New Roman,serif" font-size="14.00">19</text>
</g>
<!-- 13&#45;&gt;19 -->
<g id="edge15" class="edge"><title>13&#45;&gt;19</title>
<path fill="none" stroke="black" d="M149.431,-216.411C156.109,-206.746 165.798,-194.462 174.857,-184.112"/>
<polygon fill="black" stroke="black" points="177.492,-186.416 181.601,-176.65 172.299,-181.722 177.492,-186.416"/>
</g>
<!-- 15 -->
<g id="node16" class="node"><title>15</title>
<ellipse fill="none" stroke="black" cx="71" cy="-90" rx="27" ry="18"/>
<text text-anchor="middle" x="71" y="-86.3" font-family="Times New Roman,serif" font-size="14.00">15</text>
</g>
<!-- 14&#45;&gt;15 -->
<g id="edge16" class="edge"><title>14&#45;&gt;15</title>
<path fill="none" stroke="black" d="M114.066,-145.811C106.786,-136.546 97.3374,-124.52 89.1456,-114.094"/>
<polygon fill="black" stroke="black" points="91.8413,-111.86 82.9109,-106.159 86.337,-116.185 91.8413,-111.86"/>
</g>
<!-- 17 -->
<g id="node17" class="node"><title>17</title>
<ellipse fill="none" stroke="black" cx="181" cy="-90" rx="27" ry="18"/>
<text text-anchor="middle" x="181" y="-86.3" font-family="Times New Roman,serif" font-size="14.00">17</text>
</g>
<!-- 14&#45;&gt;17 -->
<g id="edge17" class="edge"><title>14&#45;&gt;17</title>
<path fill="none" stroke="black" d="M137.934,-145.811C145.214,-136.546 154.663,-124.52 162.854,-114.094"/>
<polygon fill="black" stroke="black" points="165.663,-116.185 169.089,-106.159 160.159,-111.86 165.663,-116.185"/>
</g>
<!-- 19&#45;&gt;1 -->
<g id="edge22" class="edge"><title>19&#45;&gt;1</title>
<path fill="none" stroke="black" d="M205.508,-179.662C216.582,-205.803 236,-258.298 236,-305 236,-451 236,-451 236,-451 236,-501.157 194.893,-547.387 167.338,-572.742"/>
<polygon fill="black" stroke="black" points="164.757,-570.354 159.627,-579.624 169.418,-575.576 164.757,-570.354"/>
</g>
<!-- 19&#45;&gt;2 -->
<g id="edge23" class="edge"><title>19&#45;&gt;2</title>
<path fill="none" stroke="black" d="M198,-180.049C198,-206.708 198,-259.885 198,-305 198,-379 198,-379 198,-379 198,-419.447 194.881,-430.801 179,-468 174.611,-478.281 168.12,-488.658 161.853,-497.471"/>
<polygon fill="black" stroke="black" points="158.895,-495.585 155.748,-505.702 164.517,-499.756 158.895,-495.585"/>
</g>
<!-- 19&#45;&gt;13 -->
<g id="edge21" class="edge"><title>19&#45;&gt;13</title>
<path fill="none" stroke="black" d="M190.691,-179.412C183.988,-189.135 174.195,-201.555 165.055,-211.989"/>
<polygon fill="black" stroke="black" points="162.37,-209.74 158.255,-219.503 167.56,-214.437 162.37,-209.74"/>
</g>
<!-- 16 -->
<g id="node18" class="node"><title>16</title>
<ellipse fill="none" stroke="black" cx="90" cy="-18" rx="27" ry="18"/>
<text text-anchor="middle" x="90" y="-14.3" font-family="Times New Roman,serif" font-size="14.00">16</text>
</g>
<!-- 15&#45;&gt;16 -->
<g id="edge18" class="edge"><title>15&#45;&gt;16</title>
<path fill="none" stroke="black" d="M75.5994,-72.055C77.7465,-64.1446 80.3535,-54.5398 82.7561,-45.6879"/>
<polygon fill="black" stroke="black" points="86.2012,-46.3567 85.443,-35.789 79.4456,-44.523 86.2012,-46.3567"/>
</g>
<!-- 18 -->
<g id="node19" class="node"><title>18</title>
<ellipse fill="none" stroke="black" cx="181" cy="-18" rx="27" ry="18"/>
<text text-anchor="middle" x="181" y="-14.3" font-family="Times New Roman,serif" font-size="14.00">18</text>
</g>
<!-- 17&#45;&gt;18 -->
<g id="edge20" class="edge"><title>17&#45;&gt;18</title>
<path fill="none" stroke="black" d="M181,-71.6966C181,-63.9827 181,-54.7125 181,-46.1124"/>
<polygon fill="black" stroke="black" points="184.5,-46.1043 181,-36.1043 177.5,-46.1044 184.5,-46.1043"/>
</g>
<!-- 16&#45;&gt;14 -->
<g id="edge19" class="edge"><title>16&#45;&gt;14</title>
<path fill="none" stroke="black" d="M95.7905,-35.5828C99.2993,-45.9686 103.716,-59.6745 107,-72 112.456,-92.4818 117.412,-115.938 120.893,-133.627"/>
<polygon fill="black" stroke="black" points="117.528,-134.663 122.861,-143.817 124.401,-133.335 117.528,-134.663"/>
</g>
</g>
</svg>
