<?xml version="1.0" encoding="UTF-8" standalone="no"?>
<!DOCTYPE svg PUBLIC "-//W3C//DTD SVG 1.1//EN"
 "http://www.w3.org/Graphics/SVG/1.1/DTD/svg11.dtd">
<!-- Generated by graphviz version 2.38.0 (20140413.2041)
 -->
<!-- Title: grafoCompleto Pages: 1 -->
<svg width="426pt" height="3140pt"
 viewBox="0.00 0.00 426.00 3140.00" xmlns="http://www.w3.org/2000/svg" xmlns:xlink="http://www.w3.org/1999/xlink">
<g id="graph0" class="graph" transform="scale(1 1) rotate(0) translate(4 3136)">
<title>grafoCompleto</title>
<polygon fill="white" stroke="none" points="-4,4 -4,-3136 422,-3136 422,4 -4,4"/>
<!-- 1 -->
<g id="node1" class="node"><title>1</title>
<ellipse fill="none" stroke="black" cx="319" cy="-3114" rx="27" ry="18"/>
<text text-anchor="middle" x="319" y="-3110.3" font-family="Times New Roman,serif" font-size="14.00">1</text>
</g>
<!-- 2 -->
<g id="node2" class="node"><title>2</title>
<ellipse fill="none" stroke="black" cx="319" cy="-3042" rx="27" ry="18"/>
<text text-anchor="middle" x="319" y="-3038.3" font-family="Times New Roman,serif" font-size="14.00">2</text>
</g>
<!-- 1&#45;&gt;2 -->
<g id="edge1" class="edge"><title>1&#45;&gt;2</title>
<path fill="none" stroke="black" d="M319,-3095.7C319,-3087.98 319,-3078.71 319,-3070.11"/>
<polygon fill="black" stroke="black" points="322.5,-3070.1 319,-3060.1 315.5,-3070.1 322.5,-3070.1"/>
</g>
<!-- 3 -->
<g id="node3" class="node"><title>3</title>
<ellipse fill="none" stroke="black" cx="319" cy="-2970" rx="27" ry="18"/>
<text text-anchor="middle" x="319" y="-2966.3" font-family="Times New Roman,serif" font-size="14.00">3</text>
</g>
<!-- 2&#45;&gt;3 -->
<g id="edge2" class="edge"><title>2&#45;&gt;3</title>
<path fill="none" stroke="black" d="M319,-3023.7C319,-3015.98 319,-3006.71 319,-2998.11"/>
<polygon fill="black" stroke="black" points="322.5,-2998.1 319,-2988.1 315.5,-2998.1 322.5,-2998.1"/>
</g>
<!-- 4 -->
<g id="node4" class="node"><title>4</title>
<ellipse fill="none" stroke="black" cx="283" cy="-2898" rx="27" ry="18"/>
<text text-anchor="middle" x="283" y="-2894.3" font-family="Times New Roman,serif" font-size="14.00">4</text>
</g>
<!-- 3&#45;&gt;4 -->
<g id="edge3" class="edge"><title>3&#45;&gt;4</title>
<path fill="none" stroke="black" d="M310.65,-2952.76C306.288,-2944.28 300.853,-2933.71 295.959,-2924.2"/>
<polygon fill="black" stroke="black" points="298.99,-2922.44 291.304,-2915.15 292.765,-2925.64 298.99,-2922.44"/>
</g>
<!-- 6 -->
<g id="node5" class="node"><title>6</title>
<ellipse fill="none" stroke="black" cx="355" cy="-2898" rx="27" ry="18"/>
<text text-anchor="middle" x="355" y="-2894.3" font-family="Times New Roman,serif" font-size="14.00">6</text>
</g>
<!-- 3&#45;&gt;6 -->
<g id="edge4" class="edge"><title>3&#45;&gt;6</title>
<path fill="none" stroke="black" d="M327.35,-2952.76C331.712,-2944.28 337.147,-2933.71 342.041,-2924.2"/>
<polygon fill="black" stroke="black" points="345.235,-2925.64 346.696,-2915.15 339.01,-2922.44 345.235,-2925.64"/>
</g>
<!-- 5 -->
<g id="node6" class="node"><title>5</title>
<ellipse fill="none" stroke="black" cx="283" cy="-2826" rx="27" ry="18"/>
<text text-anchor="middle" x="283" y="-2822.3" font-family="Times New Roman,serif" font-size="14.00">5</text>
</g>
<!-- 4&#45;&gt;5 -->
<g id="edge5" class="edge"><title>4&#45;&gt;5</title>
<path fill="none" stroke="black" d="M283,-2879.7C283,-2871.98 283,-2862.71 283,-2854.11"/>
<polygon fill="black" stroke="black" points="286.5,-2854.1 283,-2844.1 279.5,-2854.1 286.5,-2854.1"/>
</g>
<!-- 7 -->
<g id="node8" class="node"><title>7</title>
<ellipse fill="none" stroke="black" cx="355" cy="-2826" rx="27" ry="18"/>
<text text-anchor="middle" x="355" y="-2822.3" font-family="Times New Roman,serif" font-size="14.00">7</text>
</g>
<!-- 6&#45;&gt;7 -->
<g id="edge7" class="edge"><title>6&#45;&gt;7</title>
<path fill="none" stroke="black" d="M355,-2879.7C355,-2871.98 355,-2862.71 355,-2854.11"/>
<polygon fill="black" stroke="black" points="358.5,-2854.1 355,-2844.1 351.5,-2854.1 358.5,-2854.1"/>
</g>
<!-- 8 -->
<g id="node7" class="node"><title>8</title>
<ellipse fill="none" stroke="black" cx="319" cy="-2754" rx="27" ry="18"/>
<text text-anchor="middle" x="319" y="-2750.3" font-family="Times New Roman,serif" font-size="14.00">8</text>
</g>
<!-- 5&#45;&gt;8 -->
<g id="edge6" class="edge"><title>5&#45;&gt;8</title>
<path fill="none" stroke="black" d="M291.35,-2808.76C295.712,-2800.28 301.147,-2789.71 306.041,-2780.2"/>
<polygon fill="black" stroke="black" points="309.235,-2781.64 310.696,-2771.15 303.01,-2778.44 309.235,-2781.64"/>
</g>
<!-- 9 -->
<g id="node9" class="node"><title>9</title>
<ellipse fill="none" stroke="black" cx="319" cy="-2682" rx="27" ry="18"/>
<text text-anchor="middle" x="319" y="-2678.3" font-family="Times New Roman,serif" font-size="14.00">9</text>
</g>
<!-- 8&#45;&gt;9 -->
<g id="edge9" class="edge"><title>8&#45;&gt;9</title>
<path fill="none" stroke="black" d="M319,-2735.7C319,-2727.98 319,-2718.71 319,-2710.11"/>
<polygon fill="black" stroke="black" points="322.5,-2710.1 319,-2700.1 315.5,-2710.1 322.5,-2710.1"/>
</g>
<!-- 7&#45;&gt;8 -->
<g id="edge8" class="edge"><title>7&#45;&gt;8</title>
<path fill="none" stroke="black" d="M346.65,-2808.76C342.288,-2800.28 336.853,-2789.71 331.959,-2780.2"/>
<polygon fill="black" stroke="black" points="334.99,-2778.44 327.304,-2771.15 328.765,-2781.64 334.99,-2778.44"/>
</g>
<!-- 10 -->
<g id="node10" class="node"><title>10</title>
<ellipse fill="none" stroke="black" cx="292" cy="-2610" rx="27" ry="18"/>
<text text-anchor="middle" x="292" y="-2606.3" font-family="Times New Roman,serif" font-size="14.00">10</text>
</g>
<!-- 9&#45;&gt;10 -->
<g id="edge10" class="edge"><title>9&#45;&gt;10</title>
<path fill="none" stroke="black" d="M312.601,-2664.41C309.486,-2656.34 305.666,-2646.43 302.165,-2637.35"/>
<polygon fill="black" stroke="black" points="305.405,-2636.03 298.54,-2627.96 298.874,-2638.55 305.405,-2636.03"/>
</g>
<!-- 13 -->
<g id="node11" class="node"><title>13</title>
<ellipse fill="none" stroke="black" cx="319" cy="-2394" rx="27" ry="18"/>
<text text-anchor="middle" x="319" y="-2390.3" font-family="Times New Roman,serif" font-size="14.00">13</text>
</g>
<!-- 9&#45;&gt;13 -->
<g id="edge11" class="edge"><title>9&#45;&gt;13</title>
<path fill="none" stroke="black" d="M322.654,-2663.91C324.676,-2653.57 326.981,-2640.09 328,-2628 334.72,-2548.28 334.72,-2527.72 328,-2448 327.283,-2439.5 325.931,-2430.31 324.488,-2422.01"/>
<polygon fill="black" stroke="black" points="327.914,-2421.29 322.654,-2412.09 321.031,-2422.56 327.914,-2421.29"/>
</g>
<!-- 11 -->
<g id="node12" class="node"><title>11</title>
<ellipse fill="none" stroke="black" cx="292" cy="-2538" rx="27" ry="18"/>
<text text-anchor="middle" x="292" y="-2534.3" font-family="Times New Roman,serif" font-size="14.00">11</text>
</g>
<!-- 10&#45;&gt;11 -->
<g id="edge12" class="edge"><title>10&#45;&gt;11</title>
<path fill="none" stroke="black" d="M292,-2591.7C292,-2583.98 292,-2574.71 292,-2566.11"/>
<polygon fill="black" stroke="black" points="295.5,-2566.1 292,-2556.1 288.5,-2566.1 295.5,-2566.1"/>
</g>
<!-- 14 -->
<g id="node14" class="node"><title>14</title>
<ellipse fill="none" stroke="black" cx="319" cy="-2322" rx="27" ry="18"/>
<text text-anchor="middle" x="319" y="-2318.3" font-family="Times New Roman,serif" font-size="14.00">14</text>
</g>
<!-- 13&#45;&gt;14 -->
<g id="edge15" class="edge"><title>13&#45;&gt;14</title>
<path fill="none" stroke="black" d="M319,-2375.7C319,-2367.98 319,-2358.71 319,-2350.11"/>
<polygon fill="black" stroke="black" points="322.5,-2350.1 319,-2340.1 315.5,-2350.1 322.5,-2350.1"/>
</g>
<!-- 12 -->
<g id="node13" class="node"><title>12</title>
<ellipse fill="none" stroke="black" cx="292" cy="-2466" rx="27" ry="18"/>
<text text-anchor="middle" x="292" y="-2462.3" font-family="Times New Roman,serif" font-size="14.00">12</text>
</g>
<!-- 11&#45;&gt;12 -->
<g id="edge13" class="edge"><title>11&#45;&gt;12</title>
<path fill="none" stroke="black" d="M292,-2519.7C292,-2511.98 292,-2502.71 292,-2494.11"/>
<polygon fill="black" stroke="black" points="295.5,-2494.1 292,-2484.1 288.5,-2494.1 295.5,-2494.1"/>
</g>
<!-- 12&#45;&gt;13 -->
<g id="edge14" class="edge"><title>12&#45;&gt;13</title>
<path fill="none" stroke="black" d="M298.399,-2448.41C301.514,-2440.34 305.334,-2430.43 308.835,-2421.35"/>
<polygon fill="black" stroke="black" points="312.126,-2422.55 312.46,-2411.96 305.595,-2420.03 312.126,-2422.55"/>
</g>
<!-- 15 -->
<g id="node15" class="node"><title>15</title>
<ellipse fill="none" stroke="black" cx="247" cy="-2250" rx="27" ry="18"/>
<text text-anchor="middle" x="247" y="-2246.3" font-family="Times New Roman,serif" font-size="14.00">15</text>
</g>
<!-- 14&#45;&gt;15 -->
<g id="edge16" class="edge"><title>14&#45;&gt;15</title>
<path fill="none" stroke="black" d="M304.43,-2306.83C294.25,-2296.94 280.476,-2283.55 268.969,-2272.36"/>
<polygon fill="black" stroke="black" points="271.405,-2269.85 261.796,-2265.38 266.526,-2274.87 271.405,-2269.85"/>
</g>
<!-- 17 -->
<g id="node16" class="node"><title>17</title>
<ellipse fill="none" stroke="black" cx="175" cy="-2250" rx="27" ry="18"/>
<text text-anchor="middle" x="175" y="-2246.3" font-family="Times New Roman,serif" font-size="14.00">17</text>
</g>
<!-- 14&#45;&gt;17 -->
<g id="edge17" class="edge"><title>14&#45;&gt;17</title>
<path fill="none" stroke="black" d="M297.752,-2310.67C273.398,-2298.83 233.281,-2279.33 205.572,-2265.86"/>
<polygon fill="black" stroke="black" points="206.859,-2262.6 196.335,-2261.37 203.798,-2268.89 206.859,-2262.6"/>
</g>
<!-- 66 -->
<g id="node17" class="node"><title>66</title>
<ellipse fill="none" stroke="black" cx="319" cy="-2250" rx="27" ry="18"/>
<text text-anchor="middle" x="319" y="-2246.3" font-family="Times New Roman,serif" font-size="14.00">66</text>
</g>
<!-- 14&#45;&gt;66 -->
<g id="edge18" class="edge"><title>14&#45;&gt;66</title>
<path fill="none" stroke="black" d="M319,-2303.7C319,-2295.98 319,-2286.71 319,-2278.11"/>
<polygon fill="black" stroke="black" points="322.5,-2278.1 319,-2268.1 315.5,-2278.1 322.5,-2278.1"/>
</g>
<!-- 16 -->
<g id="node18" class="node"><title>16</title>
<ellipse fill="none" stroke="black" cx="310" cy="-2178" rx="27" ry="18"/>
<text text-anchor="middle" x="310" y="-2174.3" font-family="Times New Roman,serif" font-size="14.00">16</text>
</g>
<!-- 15&#45;&gt;16 -->
<g id="edge19" class="edge"><title>15&#45;&gt;16</title>
<path fill="none" stroke="black" d="M260.361,-2234.15C268.88,-2224.69 280.085,-2212.24 289.693,-2201.56"/>
<polygon fill="black" stroke="black" points="292.57,-2203.6 296.659,-2193.82 287.367,-2198.92 292.57,-2203.6"/>
</g>
<!-- 18 -->
<g id="node19" class="node"><title>18</title>
<ellipse fill="none" stroke="black" cx="183" cy="-2178" rx="27" ry="18"/>
<text text-anchor="middle" x="183" y="-2174.3" font-family="Times New Roman,serif" font-size="14.00">18</text>
</g>
<!-- 17&#45;&gt;18 -->
<g id="edge21" class="edge"><title>17&#45;&gt;18</title>
<path fill="none" stroke="black" d="M176.978,-2231.7C177.859,-2223.98 178.919,-2214.71 179.901,-2206.11"/>
<polygon fill="black" stroke="black" points="183.387,-2206.44 181.045,-2196.1 176.432,-2205.64 183.387,-2206.44"/>
</g>
<!-- 16&#45;&gt;14 -->
<g id="edge20" class="edge"><title>16&#45;&gt;14</title>
<path fill="none" stroke="black" d="M326.208,-2192.43C336.629,-2202.18 349.257,-2216.36 355,-2232 360.516,-2247.02 359.703,-2252.71 355,-2268 351.714,-2278.69 345.46,-2289.15 339.075,-2297.92"/>
<polygon fill="black" stroke="black" points="336.116,-2296.02 332.75,-2306.07 341.646,-2300.31 336.116,-2296.02"/>
</g>
<!-- 19 -->
<g id="node20" class="node"><title>19</title>
<ellipse fill="none" stroke="black" cx="239" cy="-2106" rx="27" ry="18"/>
<text text-anchor="middle" x="239" y="-2102.3" font-family="Times New Roman,serif" font-size="14.00">19</text>
</g>
<!-- 18&#45;&gt;19 -->
<g id="edge22" class="edge"><title>18&#45;&gt;19</title>
<path fill="none" stroke="black" d="M195.151,-2161.81C202.563,-2152.55 212.184,-2140.52 220.525,-2130.09"/>
<polygon fill="black" stroke="black" points="223.359,-2132.15 226.873,-2122.16 217.893,-2127.78 223.359,-2132.15"/>
</g>
<!-- 21 -->
<g id="node21" class="node"><title>21</title>
<ellipse fill="none" stroke="black" cx="129" cy="-2106" rx="27" ry="18"/>
<text text-anchor="middle" x="129" y="-2102.3" font-family="Times New Roman,serif" font-size="14.00">21</text>
</g>
<!-- 18&#45;&gt;21 -->
<g id="edge23" class="edge"><title>18&#45;&gt;21</title>
<path fill="none" stroke="black" d="M171.016,-2161.46C164.024,-2152.4 155.064,-2140.79 147.215,-2130.61"/>
<polygon fill="black" stroke="black" points="149.83,-2128.27 140.951,-2122.49 144.288,-2132.55 149.83,-2128.27"/>
</g>
<!-- 20 -->
<g id="node22" class="node"><title>20</title>
<ellipse fill="none" stroke="black" cx="220" cy="-2034" rx="27" ry="18"/>
<text text-anchor="middle" x="220" y="-2030.3" font-family="Times New Roman,serif" font-size="14.00">20</text>
</g>
<!-- 19&#45;&gt;20 -->
<g id="edge24" class="edge"><title>19&#45;&gt;20</title>
<path fill="none" stroke="black" d="M234.401,-2088.05C232.254,-2080.14 229.647,-2070.54 227.244,-2061.69"/>
<polygon fill="black" stroke="black" points="230.554,-2060.52 224.557,-2051.79 223.799,-2062.36 230.554,-2060.52"/>
</g>
<!-- 22 -->
<g id="node23" class="node"><title>22</title>
<ellipse fill="none" stroke="black" cx="133" cy="-2034" rx="27" ry="18"/>
<text text-anchor="middle" x="133" y="-2030.3" font-family="Times New Roman,serif" font-size="14.00">22</text>
</g>
<!-- 21&#45;&gt;22 -->
<g id="edge26" class="edge"><title>21&#45;&gt;22</title>
<path fill="none" stroke="black" d="M129.989,-2087.7C130.43,-2079.98 130.959,-2070.71 131.451,-2062.11"/>
<polygon fill="black" stroke="black" points="134.946,-2062.29 132.023,-2052.1 127.958,-2061.89 134.946,-2062.29"/>
</g>
<!-- 20&#45;&gt;18 -->
<g id="edge25" class="edge"><title>20&#45;&gt;18</title>
<path fill="none" stroke="black" d="M214.256,-2051.6C210.765,-2061.99 206.35,-2075.69 203,-2088 197.421,-2108.5 192.197,-2131.96 188.488,-2149.64"/>
<polygon fill="black" stroke="black" points="184.979,-2149.33 186.384,-2159.83 191.834,-2150.74 184.979,-2149.33"/>
</g>
<!-- 23 -->
<g id="node24" class="node"><title>23</title>
<ellipse fill="none" stroke="black" cx="135" cy="-1962" rx="27" ry="18"/>
<text text-anchor="middle" x="135" y="-1958.3" font-family="Times New Roman,serif" font-size="14.00">23</text>
</g>
<!-- 22&#45;&gt;23 -->
<g id="edge27" class="edge"><title>22&#45;&gt;23</title>
<path fill="none" stroke="black" d="M133.494,-2015.7C133.715,-2007.98 133.98,-1998.71 134.225,-1990.11"/>
<polygon fill="black" stroke="black" points="137.724,-1990.2 134.511,-1980.1 130.727,-1990 137.724,-1990.2"/>
</g>
<!-- 24 -->
<g id="node25" class="node"><title>24</title>
<ellipse fill="none" stroke="black" cx="136" cy="-1890" rx="27" ry="18"/>
<text text-anchor="middle" x="136" y="-1886.3" font-family="Times New Roman,serif" font-size="14.00">24</text>
</g>
<!-- 23&#45;&gt;24 -->
<g id="edge28" class="edge"><title>23&#45;&gt;24</title>
<path fill="none" stroke="black" d="M135.247,-1943.7C135.357,-1935.98 135.49,-1926.71 135.613,-1918.11"/>
<polygon fill="black" stroke="black" points="139.112,-1918.15 135.756,-1908.1 132.113,-1918.05 139.112,-1918.15"/>
</g>
<!-- 25 -->
<g id="node26" class="node"><title>25</title>
<ellipse fill="none" stroke="black" cx="137" cy="-1818" rx="27" ry="18"/>
<text text-anchor="middle" x="137" y="-1814.3" font-family="Times New Roman,serif" font-size="14.00">25</text>
</g>
<!-- 24&#45;&gt;25 -->
<g id="edge29" class="edge"><title>24&#45;&gt;25</title>
<path fill="none" stroke="black" d="M136.247,-1871.7C136.357,-1863.98 136.49,-1854.71 136.613,-1846.11"/>
<polygon fill="black" stroke="black" points="140.112,-1846.15 136.756,-1836.1 133.113,-1846.05 140.112,-1846.15"/>
</g>
<!-- 26 -->
<g id="node27" class="node"><title>26</title>
<ellipse fill="none" stroke="black" cx="137" cy="-1746" rx="27" ry="18"/>
<text text-anchor="middle" x="137" y="-1742.3" font-family="Times New Roman,serif" font-size="14.00">26</text>
</g>
<!-- 25&#45;&gt;26 -->
<g id="edge30" class="edge"><title>25&#45;&gt;26</title>
<path fill="none" stroke="black" d="M137,-1799.7C137,-1791.98 137,-1782.71 137,-1774.11"/>
<polygon fill="black" stroke="black" points="140.5,-1774.1 137,-1764.1 133.5,-1774.1 140.5,-1774.1"/>
</g>
<!-- 27 -->
<g id="node28" class="node"><title>27</title>
<ellipse fill="none" stroke="black" cx="137" cy="-1674" rx="27" ry="18"/>
<text text-anchor="middle" x="137" y="-1670.3" font-family="Times New Roman,serif" font-size="14.00">27</text>
</g>
<!-- 26&#45;&gt;27 -->
<g id="edge31" class="edge"><title>26&#45;&gt;27</title>
<path fill="none" stroke="black" d="M137,-1727.7C137,-1719.98 137,-1710.71 137,-1702.11"/>
<polygon fill="black" stroke="black" points="140.5,-1702.1 137,-1692.1 133.5,-1702.1 140.5,-1702.1"/>
</g>
<!-- 28 -->
<g id="node29" class="node"><title>28</title>
<ellipse fill="none" stroke="black" cx="210" cy="-1602" rx="27" ry="18"/>
<text text-anchor="middle" x="210" y="-1598.3" font-family="Times New Roman,serif" font-size="14.00">28</text>
</g>
<!-- 27&#45;&gt;28 -->
<g id="edge32" class="edge"><title>27&#45;&gt;28</title>
<path fill="none" stroke="black" d="M151.773,-1658.83C162.162,-1648.87 176.244,-1635.37 187.957,-1624.14"/>
<polygon fill="black" stroke="black" points="190.454,-1626.59 195.249,-1617.14 185.609,-1621.54 190.454,-1626.59"/>
</g>
<!-- 41 -->
<g id="node30" class="node"><title>41</title>
<ellipse fill="none" stroke="black" cx="55" cy="-1602" rx="27" ry="18"/>
<text text-anchor="middle" x="55" y="-1598.3" font-family="Times New Roman,serif" font-size="14.00">41</text>
</g>
<!-- 27&#45;&gt;41 -->
<g id="edge33" class="edge"><title>27&#45;&gt;41</title>
<path fill="none" stroke="black" d="M120.799,-1659.17C108.817,-1648.94 92.3085,-1634.85 78.8249,-1623.34"/>
<polygon fill="black" stroke="black" points="80.766,-1620.39 70.8879,-1616.56 76.2211,-1625.72 80.766,-1620.39"/>
</g>
<!-- 29 -->
<g id="node31" class="node"><title>29</title>
<ellipse fill="none" stroke="black" cx="228" cy="-1530" rx="27" ry="18"/>
<text text-anchor="middle" x="228" y="-1526.3" font-family="Times New Roman,serif" font-size="14.00">29</text>
</g>
<!-- 28&#45;&gt;29 -->
<g id="edge34" class="edge"><title>28&#45;&gt;29</title>
<path fill="none" stroke="black" d="M214.357,-1584.05C216.391,-1576.14 218.861,-1566.54 221.137,-1557.69"/>
<polygon fill="black" stroke="black" points="224.582,-1558.35 223.683,-1547.79 217.803,-1556.6 224.582,-1558.35"/>
</g>
<!-- 42 -->
<g id="node43" class="node"><title>42</title>
<ellipse fill="none" stroke="black" cx="41" cy="-1530" rx="27" ry="18"/>
<text text-anchor="middle" x="41" y="-1526.3" font-family="Times New Roman,serif" font-size="14.00">42</text>
</g>
<!-- 41&#45;&gt;42 -->
<g id="edge50" class="edge"><title>41&#45;&gt;42</title>
<path fill="none" stroke="black" d="M51.611,-1584.05C50.0691,-1576.35 48.2054,-1567.03 46.4728,-1558.36"/>
<polygon fill="black" stroke="black" points="49.8483,-1557.39 44.4551,-1548.28 42.9843,-1558.77 49.8483,-1557.39"/>
</g>
<!-- 30 -->
<g id="node32" class="node"><title>30</title>
<ellipse fill="none" stroke="black" cx="264" cy="-1458" rx="27" ry="18"/>
<text text-anchor="middle" x="264" y="-1454.3" font-family="Times New Roman,serif" font-size="14.00">30</text>
</g>
<!-- 29&#45;&gt;30 -->
<g id="edge35" class="edge"><title>29&#45;&gt;30</title>
<path fill="none" stroke="black" d="M236.35,-1512.76C240.712,-1504.28 246.147,-1493.71 251.041,-1484.2"/>
<polygon fill="black" stroke="black" points="254.235,-1485.64 255.696,-1475.15 248.01,-1482.44 254.235,-1485.64"/>
</g>
<!-- 39 -->
<g id="node33" class="node"><title>39</title>
<ellipse fill="none" stroke="black" cx="192" cy="-1458" rx="27" ry="18"/>
<text text-anchor="middle" x="192" y="-1454.3" font-family="Times New Roman,serif" font-size="14.00">39</text>
</g>
<!-- 29&#45;&gt;39 -->
<g id="edge36" class="edge"><title>29&#45;&gt;39</title>
<path fill="none" stroke="black" d="M219.65,-1512.76C215.288,-1504.28 209.853,-1493.71 204.959,-1484.2"/>
<polygon fill="black" stroke="black" points="207.99,-1482.44 200.304,-1475.15 201.765,-1485.64 207.99,-1482.44"/>
</g>
<!-- 31 -->
<g id="node34" class="node"><title>31</title>
<ellipse fill="none" stroke="black" cx="264" cy="-1386" rx="27" ry="18"/>
<text text-anchor="middle" x="264" y="-1382.3" font-family="Times New Roman,serif" font-size="14.00">31</text>
</g>
<!-- 30&#45;&gt;31 -->
<g id="edge37" class="edge"><title>30&#45;&gt;31</title>
<path fill="none" stroke="black" d="M264,-1439.7C264,-1431.98 264,-1422.71 264,-1414.11"/>
<polygon fill="black" stroke="black" points="267.5,-1414.1 264,-1404.1 260.5,-1414.1 267.5,-1414.1"/>
</g>
<!-- 40 -->
<g id="node42" class="node"><title>40</title>
<ellipse fill="none" stroke="black" cx="165" cy="-1386" rx="27" ry="18"/>
<text text-anchor="middle" x="165" y="-1382.3" font-family="Times New Roman,serif" font-size="14.00">40</text>
</g>
<!-- 39&#45;&gt;40 -->
<g id="edge48" class="edge"><title>39&#45;&gt;40</title>
<path fill="none" stroke="black" d="M185.601,-1440.41C182.486,-1432.34 178.666,-1422.43 175.165,-1413.35"/>
<polygon fill="black" stroke="black" points="178.405,-1412.03 171.54,-1403.96 171.874,-1414.55 178.405,-1412.03"/>
</g>
<!-- 32 -->
<g id="node35" class="node"><title>32</title>
<ellipse fill="none" stroke="black" cx="173" cy="-1314" rx="27" ry="18"/>
<text text-anchor="middle" x="173" y="-1310.3" font-family="Times New Roman,serif" font-size="14.00">32</text>
</g>
<!-- 31&#45;&gt;32 -->
<g id="edge38" class="edge"><title>31&#45;&gt;32</title>
<path fill="none" stroke="black" d="M246.884,-1371.83C233.156,-1361.27 213.69,-1346.3 198.185,-1334.37"/>
<polygon fill="black" stroke="black" points="200.1,-1331.43 190.04,-1328.11 195.832,-1336.98 200.1,-1331.43"/>
</g>
<!-- 37 -->
<g id="node36" class="node"><title>37</title>
<ellipse fill="none" stroke="black" cx="319" cy="-1314" rx="27" ry="18"/>
<text text-anchor="middle" x="319" y="-1310.3" font-family="Times New Roman,serif" font-size="14.00">37</text>
</g>
<!-- 31&#45;&gt;37 -->
<g id="edge39" class="edge"><title>31&#45;&gt;37</title>
<path fill="none" stroke="black" d="M275.934,-1369.81C283.214,-1360.55 292.663,-1348.52 300.854,-1338.09"/>
<polygon fill="black" stroke="black" points="303.663,-1340.18 307.089,-1330.16 298.159,-1335.86 303.663,-1340.18"/>
</g>
<!-- 33 -->
<g id="node37" class="node"><title>33</title>
<ellipse fill="none" stroke="black" cx="137" cy="-1242" rx="27" ry="18"/>
<text text-anchor="middle" x="137" y="-1238.3" font-family="Times New Roman,serif" font-size="14.00">33</text>
</g>
<!-- 32&#45;&gt;33 -->
<g id="edge40" class="edge"><title>32&#45;&gt;33</title>
<path fill="none" stroke="black" d="M164.65,-1296.76C160.288,-1288.28 154.853,-1277.71 149.959,-1268.2"/>
<polygon fill="black" stroke="black" points="152.99,-1266.44 145.304,-1259.15 146.765,-1269.64 152.99,-1266.44"/>
</g>
<!-- 35 -->
<g id="node38" class="node"><title>35</title>
<ellipse fill="none" stroke="black" cx="209" cy="-1242" rx="27" ry="18"/>
<text text-anchor="middle" x="209" y="-1238.3" font-family="Times New Roman,serif" font-size="14.00">35</text>
</g>
<!-- 32&#45;&gt;35 -->
<g id="edge41" class="edge"><title>32&#45;&gt;35</title>
<path fill="none" stroke="black" d="M181.35,-1296.76C185.712,-1288.28 191.147,-1277.71 196.041,-1268.2"/>
<polygon fill="black" stroke="black" points="199.235,-1269.64 200.696,-1259.15 193.01,-1266.44 199.235,-1269.64"/>
</g>
<!-- 38 -->
<g id="node41" class="node"><title>38</title>
<ellipse fill="none" stroke="black" cx="338" cy="-1242" rx="27" ry="18"/>
<text text-anchor="middle" x="338" y="-1238.3" font-family="Times New Roman,serif" font-size="14.00">38</text>
</g>
<!-- 37&#45;&gt;38 -->
<g id="edge46" class="edge"><title>37&#45;&gt;38</title>
<path fill="none" stroke="black" d="M323.599,-1296.05C325.746,-1288.14 328.353,-1278.54 330.756,-1269.69"/>
<polygon fill="black" stroke="black" points="334.201,-1270.36 333.443,-1259.79 327.446,-1268.52 334.201,-1270.36"/>
</g>
<!-- 34 -->
<g id="node39" class="node"><title>34</title>
<ellipse fill="none" stroke="black" cx="128" cy="-1170" rx="27" ry="18"/>
<text text-anchor="middle" x="128" y="-1166.3" font-family="Times New Roman,serif" font-size="14.00">34</text>
</g>
<!-- 33&#45;&gt;34 -->
<g id="edge42" class="edge"><title>33&#45;&gt;34</title>
<path fill="none" stroke="black" d="M134.821,-1224.05C133.83,-1216.35 132.632,-1207.03 131.518,-1198.36"/>
<polygon fill="black" stroke="black" points="134.968,-1197.75 130.221,-1188.28 128.025,-1198.64 134.968,-1197.75"/>
</g>
<!-- 36 -->
<g id="node40" class="node"><title>36</title>
<ellipse fill="none" stroke="black" cx="237" cy="-1170" rx="27" ry="18"/>
<text text-anchor="middle" x="237" y="-1166.3" font-family="Times New Roman,serif" font-size="14.00">36</text>
</g>
<!-- 35&#45;&gt;36 -->
<g id="edge44" class="edge"><title>35&#45;&gt;36</title>
<path fill="none" stroke="black" d="M215.636,-1224.41C218.913,-1216.22 222.944,-1206.14 226.618,-1196.95"/>
<polygon fill="black" stroke="black" points="229.948,-1198.05 230.412,-1187.47 223.448,-1195.45 229.948,-1198.05"/>
</g>
<!-- 34&#45;&gt;32 -->
<g id="edge43" class="edge"><title>34&#45;&gt;32</title>
<path fill="none" stroke="black" d="M116.498,-1186.41C104.398,-1204.66 88.6873,-1235.65 101,-1260 109.584,-1276.98 126.451,-1289.85 141.704,-1298.65"/>
<polygon fill="black" stroke="black" points="140.439,-1301.94 150.903,-1303.61 143.76,-1295.78 140.439,-1301.94"/>
</g>
<!-- 36&#45;&gt;31 -->
<g id="edge45" class="edge"><title>36&#45;&gt;31</title>
<path fill="none" stroke="black" d="M239.735,-1188.17C241.35,-1198.53 243.388,-1212.01 245,-1224 251.301,-1270.86 257.515,-1325.56 261.042,-1357.62"/>
<polygon fill="black" stroke="black" points="257.565,-1358.02 262.132,-1367.58 264.524,-1357.26 257.565,-1358.02"/>
</g>
<!-- 38&#45;&gt;29 -->
<g id="edge47" class="edge"><title>38&#45;&gt;29</title>
<path fill="none" stroke="black" d="M344.89,-1259.86C348.705,-1270.12 353.058,-1283.59 355,-1296 357.473,-1311.81 357.903,-1316.27 355,-1332 342.572,-1399.37 341.491,-1421.48 300,-1476 288.557,-1491.04 271.716,-1503.76 257.198,-1512.96"/>
<polygon fill="black" stroke="black" points="255.257,-1510.05 248.528,-1518.23 258.892,-1516.03 255.257,-1510.05"/>
</g>
<!-- 40&#45;&gt;27 -->
<g id="edge49" class="edge"><title>40&#45;&gt;27</title>
<path fill="none" stroke="black" d="M161.703,-1404.13C159.807,-1414.48 157.51,-1427.96 156,-1440 146.687,-1514.25 140.933,-1602.41 138.443,-1645.92"/>
<polygon fill="black" stroke="black" points="134.943,-1645.81 137.879,-1655.99 141.933,-1646.2 134.943,-1645.81"/>
</g>
<!-- 43 -->
<g id="node44" class="node"><title>43</title>
<ellipse fill="none" stroke="black" cx="34" cy="-1458" rx="27" ry="18"/>
<text text-anchor="middle" x="34" y="-1454.3" font-family="Times New Roman,serif" font-size="14.00">43</text>
</g>
<!-- 42&#45;&gt;43 -->
<g id="edge51" class="edge"><title>42&#45;&gt;43</title>
<path fill="none" stroke="black" d="M39.2697,-1511.7C38.4983,-1503.98 37.5712,-1494.71 36.7112,-1486.11"/>
<polygon fill="black" stroke="black" points="40.1882,-1485.71 35.7104,-1476.1 33.2229,-1486.4 40.1882,-1485.71"/>
</g>
<!-- 44 -->
<g id="node45" class="node"><title>44</title>
<ellipse fill="none" stroke="black" cx="32" cy="-1386" rx="27" ry="18"/>
<text text-anchor="middle" x="32" y="-1382.3" font-family="Times New Roman,serif" font-size="14.00">44</text>
</g>
<!-- 43&#45;&gt;44 -->
<g id="edge52" class="edge"><title>43&#45;&gt;44</title>
<path fill="none" stroke="black" d="M33.5056,-1439.7C33.2852,-1431.98 33.0204,-1422.71 32.7746,-1414.11"/>
<polygon fill="black" stroke="black" points="36.273,-1414 32.4887,-1404.1 29.2758,-1414.2 36.273,-1414"/>
</g>
<!-- 45 -->
<g id="node46" class="node"><title>45</title>
<ellipse fill="none" stroke="black" cx="29" cy="-1314" rx="27" ry="18"/>
<text text-anchor="middle" x="29" y="-1310.3" font-family="Times New Roman,serif" font-size="14.00">45</text>
</g>
<!-- 44&#45;&gt;45 -->
<g id="edge53" class="edge"><title>44&#45;&gt;45</title>
<path fill="none" stroke="black" d="M31.2584,-1367.7C30.9278,-1359.98 30.5305,-1350.71 30.162,-1342.11"/>
<polygon fill="black" stroke="black" points="33.6581,-1341.95 29.733,-1332.1 26.6645,-1342.25 33.6581,-1341.95"/>
</g>
<!-- 46 -->
<g id="node47" class="node"><title>46</title>
<ellipse fill="none" stroke="black" cx="27" cy="-1242" rx="27" ry="18"/>
<text text-anchor="middle" x="27" y="-1238.3" font-family="Times New Roman,serif" font-size="14.00">46</text>
</g>
<!-- 45&#45;&gt;46 -->
<g id="edge54" class="edge"><title>45&#45;&gt;46</title>
<path fill="none" stroke="black" d="M28.5056,-1295.7C28.2852,-1287.98 28.0204,-1278.71 27.7746,-1270.11"/>
<polygon fill="black" stroke="black" points="31.273,-1270 27.4887,-1260.1 24.2758,-1270.2 31.273,-1270"/>
</g>
<!-- 47 -->
<g id="node48" class="node"><title>47</title>
<ellipse fill="none" stroke="black" cx="37" cy="-1170" rx="27" ry="18"/>
<text text-anchor="middle" x="37" y="-1166.3" font-family="Times New Roman,serif" font-size="14.00">47</text>
</g>
<!-- 46&#45;&gt;47 -->
<g id="edge55" class="edge"><title>46&#45;&gt;47</title>
<path fill="none" stroke="black" d="M29.4207,-1224.05C30.5221,-1216.35 31.8533,-1207.03 33.0908,-1198.36"/>
<polygon fill="black" stroke="black" points="36.5826,-1198.67 34.5321,-1188.28 29.653,-1197.68 36.5826,-1198.67"/>
</g>
<!-- 48 -->
<g id="node49" class="node"><title>48</title>
<ellipse fill="none" stroke="black" cx="117" cy="-1098" rx="27" ry="18"/>
<text text-anchor="middle" x="117" y="-1094.3" font-family="Times New Roman,serif" font-size="14.00">48</text>
</g>
<!-- 47&#45;&gt;48 -->
<g id="edge56" class="edge"><title>47&#45;&gt;48</title>
<path fill="none" stroke="black" d="M52.8054,-1155.17C64.42,-1145.01 80.3938,-1131.03 93.5012,-1119.56"/>
<polygon fill="black" stroke="black" points="96.0064,-1122.02 101.227,-1112.8 91.3968,-1116.75 96.0064,-1122.02"/>
</g>
<!-- 49 -->
<g id="node50" class="node"><title>49</title>
<ellipse fill="none" stroke="black" cx="197" cy="-1026" rx="27" ry="18"/>
<text text-anchor="middle" x="197" y="-1022.3" font-family="Times New Roman,serif" font-size="14.00">49</text>
</g>
<!-- 48&#45;&gt;49 -->
<g id="edge57" class="edge"><title>48&#45;&gt;49</title>
<path fill="none" stroke="black" d="M132.805,-1083.17C144.42,-1073.01 160.394,-1059.03 173.501,-1047.56"/>
<polygon fill="black" stroke="black" points="176.006,-1050.02 181.227,-1040.8 171.397,-1044.75 176.006,-1050.02"/>
</g>
<!-- 50 -->
<g id="node51" class="node"><title>50</title>
<ellipse fill="none" stroke="black" cx="237" cy="-954" rx="27" ry="18"/>
<text text-anchor="middle" x="237" y="-950.3" font-family="Times New Roman,serif" font-size="14.00">50</text>
</g>
<!-- 49&#45;&gt;50 -->
<g id="edge58" class="edge"><title>49&#45;&gt;50</title>
<path fill="none" stroke="black" d="M206.277,-1008.76C211.174,-1000.19 217.289,-989.494 222.771,-979.9"/>
<polygon fill="black" stroke="black" points="225.85,-981.566 227.773,-971.147 219.773,-978.093 225.85,-981.566"/>
</g>
<!-- 51 -->
<g id="node52" class="node"><title>51</title>
<ellipse fill="none" stroke="black" cx="277" cy="-882" rx="27" ry="18"/>
<text text-anchor="middle" x="277" y="-878.3" font-family="Times New Roman,serif" font-size="14.00">51</text>
</g>
<!-- 50&#45;&gt;51 -->
<g id="edge59" class="edge"><title>50&#45;&gt;51</title>
<path fill="none" stroke="black" d="M246.277,-936.765C251.174,-928.195 257.289,-917.494 262.771,-907.9"/>
<polygon fill="black" stroke="black" points="265.85,-909.566 267.773,-899.147 259.773,-906.093 265.85,-909.566"/>
</g>
<!-- 52 -->
<g id="node53" class="node"><title>52</title>
<ellipse fill="none" stroke="black" cx="297" cy="-810" rx="27" ry="18"/>
<text text-anchor="middle" x="297" y="-806.3" font-family="Times New Roman,serif" font-size="14.00">52</text>
</g>
<!-- 51&#45;&gt;52 -->
<g id="edge60" class="edge"><title>51&#45;&gt;52</title>
<path fill="none" stroke="black" d="M281.841,-864.055C284.102,-856.145 286.846,-846.54 289.375,-837.688"/>
<polygon fill="black" stroke="black" points="292.821,-838.366 292.203,-827.789 286.091,-836.443 292.821,-838.366"/>
</g>
<!-- 53 -->
<g id="node54" class="node"><title>53</title>
<ellipse fill="none" stroke="black" cx="317" cy="-738" rx="27" ry="18"/>
<text text-anchor="middle" x="317" y="-734.3" font-family="Times New Roman,serif" font-size="14.00">53</text>
</g>
<!-- 52&#45;&gt;53 -->
<g id="edge61" class="edge"><title>52&#45;&gt;53</title>
<path fill="none" stroke="black" d="M301.841,-792.055C304.102,-784.145 306.846,-774.54 309.375,-765.688"/>
<polygon fill="black" stroke="black" points="312.821,-766.366 312.203,-755.789 306.091,-764.443 312.821,-766.366"/>
</g>
<!-- 54 -->
<g id="node55" class="node"><title>54</title>
<ellipse fill="none" stroke="black" cx="327" cy="-666" rx="27" ry="18"/>
<text text-anchor="middle" x="327" y="-662.3" font-family="Times New Roman,serif" font-size="14.00">54</text>
</g>
<!-- 53&#45;&gt;54 -->
<g id="edge62" class="edge"><title>53&#45;&gt;54</title>
<path fill="none" stroke="black" d="M319.421,-720.055C320.522,-712.346 321.853,-703.027 323.091,-694.364"/>
<polygon fill="black" stroke="black" points="326.583,-694.67 324.532,-684.275 319.653,-693.68 326.583,-694.67"/>
</g>
<!-- 55 -->
<g id="node56" class="node"><title>55</title>
<ellipse fill="none" stroke="black" cx="337" cy="-594" rx="27" ry="18"/>
<text text-anchor="middle" x="337" y="-590.3" font-family="Times New Roman,serif" font-size="14.00">55</text>
</g>
<!-- 54&#45;&gt;55 -->
<g id="edge63" class="edge"><title>54&#45;&gt;55</title>
<path fill="none" stroke="black" d="M329.421,-648.055C330.522,-640.346 331.853,-631.027 333.091,-622.364"/>
<polygon fill="black" stroke="black" points="336.583,-622.67 334.532,-612.275 329.653,-621.68 336.583,-622.67"/>
</g>
<!-- 56 -->
<g id="node57" class="node"><title>56</title>
<ellipse fill="none" stroke="black" cx="342" cy="-522" rx="27" ry="18"/>
<text text-anchor="middle" x="342" y="-518.3" font-family="Times New Roman,serif" font-size="14.00">56</text>
</g>
<!-- 55&#45;&gt;56 -->
<g id="edge64" class="edge"><title>55&#45;&gt;56</title>
<path fill="none" stroke="black" d="M338.236,-575.697C338.787,-567.983 339.449,-558.712 340.063,-550.112"/>
<polygon fill="black" stroke="black" points="343.557,-550.328 340.778,-540.104 336.575,-549.83 343.557,-550.328"/>
</g>
<!-- 57 -->
<g id="node58" class="node"><title>57</title>
<ellipse fill="none" stroke="black" cx="347" cy="-450" rx="27" ry="18"/>
<text text-anchor="middle" x="347" y="-446.3" font-family="Times New Roman,serif" font-size="14.00">57</text>
</g>
<!-- 56&#45;&gt;57 -->
<g id="edge65" class="edge"><title>56&#45;&gt;57</title>
<path fill="none" stroke="black" d="M343.236,-503.697C343.787,-495.983 344.449,-486.712 345.063,-478.112"/>
<polygon fill="black" stroke="black" points="348.557,-478.328 345.778,-468.104 341.575,-477.83 348.557,-478.328"/>
</g>
<!-- 58 -->
<g id="node59" class="node"><title>58</title>
<ellipse fill="none" stroke="black" cx="350" cy="-378" rx="27" ry="18"/>
<text text-anchor="middle" x="350" y="-374.3" font-family="Times New Roman,serif" font-size="14.00">58</text>
</g>
<!-- 57&#45;&gt;58 -->
<g id="edge66" class="edge"><title>57&#45;&gt;58</title>
<path fill="none" stroke="black" d="M347.742,-431.697C348.072,-423.983 348.469,-414.712 348.838,-406.112"/>
<polygon fill="black" stroke="black" points="352.335,-406.245 349.267,-396.104 345.342,-405.945 352.335,-406.245"/>
</g>
<!-- 59 -->
<g id="node60" class="node"><title>59</title>
<ellipse fill="none" stroke="black" cx="352" cy="-306" rx="27" ry="18"/>
<text text-anchor="middle" x="352" y="-302.3" font-family="Times New Roman,serif" font-size="14.00">59</text>
</g>
<!-- 58&#45;&gt;59 -->
<g id="edge67" class="edge"><title>58&#45;&gt;59</title>
<path fill="none" stroke="black" d="M350.494,-359.697C350.715,-351.983 350.98,-342.712 351.225,-334.112"/>
<polygon fill="black" stroke="black" points="354.724,-334.2 351.511,-324.104 347.727,-334 354.724,-334.2"/>
</g>
<!-- 60 -->
<g id="node61" class="node"><title>60</title>
<ellipse fill="none" stroke="black" cx="354" cy="-234" rx="27" ry="18"/>
<text text-anchor="middle" x="354" y="-230.3" font-family="Times New Roman,serif" font-size="14.00">60</text>
</g>
<!-- 59&#45;&gt;60 -->
<g id="edge68" class="edge"><title>59&#45;&gt;60</title>
<path fill="none" stroke="black" d="M352.494,-287.697C352.715,-279.983 352.98,-270.712 353.225,-262.112"/>
<polygon fill="black" stroke="black" points="356.724,-262.2 353.511,-252.104 349.727,-262 356.724,-262.2"/>
</g>
<!-- 61 -->
<g id="node62" class="node"><title>61</title>
<ellipse fill="none" stroke="black" cx="355" cy="-162" rx="27" ry="18"/>
<text text-anchor="middle" x="355" y="-158.3" font-family="Times New Roman,serif" font-size="14.00">61</text>
</g>
<!-- 60&#45;&gt;61 -->
<g id="edge69" class="edge"><title>60&#45;&gt;61</title>
<path fill="none" stroke="black" d="M354.247,-215.697C354.357,-207.983 354.49,-198.712 354.613,-190.112"/>
<polygon fill="black" stroke="black" points="358.112,-190.153 354.756,-180.104 351.113,-190.053 358.112,-190.153"/>
</g>
<!-- 62 -->
<g id="node63" class="node"><title>62</title>
<ellipse fill="none" stroke="black" cx="356" cy="-90" rx="27" ry="18"/>
<text text-anchor="middle" x="356" y="-86.3" font-family="Times New Roman,serif" font-size="14.00">62</text>
</g>
<!-- 61&#45;&gt;62 -->
<g id="edge70" class="edge"><title>61&#45;&gt;62</title>
<path fill="none" stroke="black" d="M355.247,-143.697C355.357,-135.983 355.49,-126.712 355.613,-118.112"/>
<polygon fill="black" stroke="black" points="359.112,-118.153 355.756,-108.104 352.113,-118.053 359.112,-118.153"/>
</g>
<!-- 63 -->
<g id="node64" class="node"><title>63</title>
<ellipse fill="none" stroke="black" cx="384" cy="-18" rx="27" ry="18"/>
<text text-anchor="middle" x="384" y="-14.3" font-family="Times New Roman,serif" font-size="14.00">63</text>
</g>
<!-- 62&#45;&gt;63 -->
<g id="edge71" class="edge"><title>62&#45;&gt;63</title>
<path fill="none" stroke="black" d="M362.636,-72.411C365.913,-64.2164 369.944,-54.1395 373.618,-44.9548"/>
<polygon fill="black" stroke="black" points="376.948,-46.0546 377.412,-35.4699 370.448,-43.4548 376.948,-46.0546"/>
</g>
<!-- 63&#45;&gt;14 -->
<g id="edge72" class="edge"><title>63&#45;&gt;14</title>
<path fill="none" stroke="black" d="M389.532,-35.8374C397.692,-62.2129 412,-115.017 412,-161 412,-2179 412,-2179 412,-2179 412,-2229.16 370.893,-2275.39 343.338,-2300.74"/>
<polygon fill="black" stroke="black" points="340.757,-2298.35 335.627,-2307.62 345.418,-2303.58 340.757,-2298.35"/>
</g>
<!-- 64 -->
<g id="node65" class="node"><title>64</title>
<ellipse fill="none" stroke="black" cx="391" cy="-3114" rx="27" ry="18"/>
<text text-anchor="middle" x="391" y="-3110.3" font-family="Times New Roman,serif" font-size="14.00">64</text>
</g>
<!-- 65 -->
<g id="node66" class="node"><title>65</title>
<ellipse fill="none" stroke="black" cx="391" cy="-3042" rx="27" ry="18"/>
<text text-anchor="middle" x="391" y="-3038.3" font-family="Times New Roman,serif" font-size="14.00">65</text>
</g>
<!-- 64&#45;&gt;65 -->
<g id="edge73" class="edge"><title>64&#45;&gt;65</title>
<path fill="none" stroke="black" d="M391,-3095.7C391,-3087.98 391,-3078.71 391,-3070.11"/>
<polygon fill="black" stroke="black" points="394.5,-3070.1 391,-3060.1 387.5,-3070.1 394.5,-3070.1"/>
</g>
</g>
</svg>
