<?xml version="1.0" encoding="UTF-8" standalone="no"?>
<!DOCTYPE svg PUBLIC "-//W3C//DTD SVG 1.1//EN"
 "http://www.w3.org/Graphics/SVG/1.1/DTD/svg11.dtd">
<!-- Generated by graphviz version 2.38.0 (20140413.2041)
 -->
<!-- Title: grafoCompleto Pages: 1 -->
<svg width="508pt" height="1772pt"
 viewBox="0.00 0.00 507.58 1772.00" xmlns="http://www.w3.org/2000/svg" xmlns:xlink="http://www.w3.org/1999/xlink">
<g id="graph0" class="graph" transform="scale(1 1) rotate(0) translate(4 1768)">
<title>grafoCompleto</title>
<polygon fill="white" stroke="none" points="-4,4 -4,-1768 503.576,-1768 503.576,4 -4,4"/>
<!-- 1 -->
<g id="node1" class="node"><title>1</title>
<ellipse fill="none" stroke="black" cx="444.576" cy="-1746" rx="27" ry="18"/>
<text text-anchor="middle" x="444.576" y="-1742.3" font-family="Times New Roman,serif" font-size="14.00">1</text>
</g>
<!-- 2 -->
<g id="node2" class="node"><title>2</title>
<ellipse fill="none" stroke="black" cx="444.576" cy="-1674" rx="27" ry="18"/>
<text text-anchor="middle" x="444.576" y="-1670.3" font-family="Times New Roman,serif" font-size="14.00">2</text>
</g>
<!-- 1&#45;&gt;2 -->
<g id="edge1" class="edge"><title>1&#45;&gt;2</title>
<path fill="none" stroke="black" d="M444.576,-1727.7C444.576,-1719.98 444.576,-1710.71 444.576,-1702.11"/>
<polygon fill="black" stroke="black" points="448.076,-1702.1 444.576,-1692.1 441.076,-1702.1 448.076,-1702.1"/>
</g>
<!-- 3 -->
<g id="node3" class="node"><title>3</title>
<ellipse fill="none" stroke="black" cx="269.576" cy="-1602" rx="27" ry="18"/>
<text text-anchor="middle" x="269.576" y="-1598.3" font-family="Times New Roman,serif" font-size="14.00">3</text>
</g>
<!-- 2&#45;&gt;3 -->
<g id="edge2" class="edge"><title>2&#45;&gt;3</title>
<path fill="none" stroke="black" d="M422.056,-1663.99C391.557,-1651.79 336.928,-1629.94 302.009,-1615.97"/>
<polygon fill="black" stroke="black" points="302.872,-1612.55 292.287,-1612.08 300.272,-1619.05 302.872,-1612.55"/>
</g>
<!-- 27 -->
<g id="node4" class="node"><title>27</title>
<ellipse fill="none" stroke="black" cx="444.576" cy="-1314" rx="27" ry="18"/>
<text text-anchor="middle" x="444.576" y="-1310.3" font-family="Times New Roman,serif" font-size="14.00">27</text>
</g>
<!-- 2&#45;&gt;27 -->
<g id="edge3" class="edge"><title>2&#45;&gt;27</title>
<path fill="none" stroke="black" d="M444.576,-1655.95C444.576,-1629.29 444.576,-1576.11 444.576,-1531 444.576,-1531 444.576,-1531 444.576,-1457 444.576,-1417 444.576,-1370.65 444.576,-1342.08"/>
<polygon fill="black" stroke="black" points="448.076,-1342.05 444.576,-1332.05 441.076,-1342.05 448.076,-1342.05"/>
</g>
<!-- 4 -->
<g id="node5" class="node"><title>4</title>
<ellipse fill="none" stroke="black" cx="296.576" cy="-1530" rx="27" ry="18"/>
<text text-anchor="middle" x="296.576" y="-1526.3" font-family="Times New Roman,serif" font-size="14.00">4</text>
</g>
<!-- 3&#45;&gt;4 -->
<g id="edge4" class="edge"><title>3&#45;&gt;4</title>
<path fill="none" stroke="black" d="M275.975,-1584.41C279.09,-1576.34 282.91,-1566.43 286.411,-1557.35"/>
<polygon fill="black" stroke="black" points="289.703,-1558.55 290.036,-1547.96 283.172,-1556.03 289.703,-1558.55"/>
</g>
<!-- 8 -->
<g id="node6" class="node"><title>8</title>
<ellipse fill="none" stroke="black" cx="186.576" cy="-1386" rx="27" ry="18"/>
<text text-anchor="middle" x="186.576" y="-1382.3" font-family="Times New Roman,serif" font-size="14.00">8</text>
</g>
<!-- 3&#45;&gt;8 -->
<g id="edge5" class="edge"><title>3&#45;&gt;8</title>
<path fill="none" stroke="black" d="M255.213,-1586.41C246.072,-1576.37 234.661,-1562.31 227.576,-1548 205.844,-1504.11 194.903,-1447.61 189.999,-1414.54"/>
<polygon fill="black" stroke="black" points="193.415,-1413.69 188.561,-1404.27 186.483,-1414.66 193.415,-1413.69"/>
</g>
<!-- 28 -->
<g id="node29" class="node"><title>28</title>
<ellipse fill="none" stroke="black" cx="444.576" cy="-1242" rx="27" ry="18"/>
<text text-anchor="middle" x="444.576" y="-1238.3" font-family="Times New Roman,serif" font-size="14.00">28</text>
</g>
<!-- 27&#45;&gt;28 -->
<g id="edge35" class="edge"><title>27&#45;&gt;28</title>
<path fill="none" stroke="black" d="M444.576,-1295.7C444.576,-1287.98 444.576,-1278.71 444.576,-1270.11"/>
<polygon fill="black" stroke="black" points="448.076,-1270.1 444.576,-1260.1 441.076,-1270.1 448.076,-1270.1"/>
</g>
<!-- 5 -->
<g id="node7" class="node"><title>5</title>
<ellipse fill="none" stroke="black" cx="296.576" cy="-1458" rx="27" ry="18"/>
<text text-anchor="middle" x="296.576" y="-1454.3" font-family="Times New Roman,serif" font-size="14.00">5</text>
</g>
<!-- 4&#45;&gt;5 -->
<g id="edge6" class="edge"><title>4&#45;&gt;5</title>
<path fill="none" stroke="black" d="M296.576,-1511.7C296.576,-1503.98 296.576,-1494.71 296.576,-1486.11"/>
<polygon fill="black" stroke="black" points="300.076,-1486.1 296.576,-1476.1 293.076,-1486.1 300.076,-1486.1"/>
</g>
<!-- 9 -->
<g id="node10" class="node"><title>9</title>
<ellipse fill="none" stroke="black" cx="176.576" cy="-1314" rx="27" ry="18"/>
<text text-anchor="middle" x="176.576" y="-1310.3" font-family="Times New Roman,serif" font-size="14.00">9</text>
</g>
<!-- 8&#45;&gt;9 -->
<g id="edge11" class="edge"><title>8&#45;&gt;9</title>
<path fill="none" stroke="black" d="M184.156,-1368.05C183.054,-1360.35 181.723,-1351.03 180.486,-1342.36"/>
<polygon fill="black" stroke="black" points="183.923,-1341.68 179.044,-1332.28 176.994,-1342.67 183.923,-1341.68"/>
</g>
<!-- 5&#45;&gt;8 -->
<g id="edge8" class="edge"><title>5&#45;&gt;8</title>
<path fill="none" stroke="black" d="M277.416,-1444.81C259.908,-1433.67 233.817,-1417.06 214.083,-1404.5"/>
<polygon fill="black" stroke="black" points="215.833,-1401.47 205.517,-1399.05 212.075,-1407.37 215.833,-1401.47"/>
</g>
<!-- 6 -->
<g id="node8" class="node"><title>6</title>
<ellipse fill="none" stroke="black" cx="353.576" cy="-1386" rx="27" ry="18"/>
<text text-anchor="middle" x="353.576" y="-1382.3" font-family="Times New Roman,serif" font-size="14.00">6</text>
</g>
<!-- 5&#45;&gt;6 -->
<g id="edge7" class="edge"><title>5&#45;&gt;6</title>
<path fill="none" stroke="black" d="M308.945,-1441.81C316.489,-1432.55 326.281,-1420.52 334.771,-1410.09"/>
<polygon fill="black" stroke="black" points="337.632,-1412.12 341.232,-1402.16 332.204,-1407.7 337.632,-1412.12"/>
</g>
<!-- 6&#45;&gt;27 -->
<g id="edge10" class="edge"><title>6&#45;&gt;27</title>
<path fill="none" stroke="black" d="M370.693,-1371.83C384.42,-1361.27 403.886,-1346.3 419.392,-1334.37"/>
<polygon fill="black" stroke="black" points="421.744,-1336.98 427.537,-1328.11 417.476,-1331.43 421.744,-1336.98"/>
</g>
<!-- 7 -->
<g id="node9" class="node"><title>7</title>
<ellipse fill="none" stroke="black" cx="372.576" cy="-1314" rx="27" ry="18"/>
<text text-anchor="middle" x="372.576" y="-1310.3" font-family="Times New Roman,serif" font-size="14.00">7</text>
</g>
<!-- 6&#45;&gt;7 -->
<g id="edge9" class="edge"><title>6&#45;&gt;7</title>
<path fill="none" stroke="black" d="M358.176,-1368.05C360.323,-1360.14 362.93,-1350.54 365.333,-1341.69"/>
<polygon fill="black" stroke="black" points="368.778,-1342.36 368.019,-1331.79 362.022,-1340.52 368.778,-1342.36"/>
</g>
<!-- 10 -->
<g id="node11" class="node"><title>10</title>
<ellipse fill="none" stroke="black" cx="157.576" cy="-1242" rx="27" ry="18"/>
<text text-anchor="middle" x="157.576" y="-1238.3" font-family="Times New Roman,serif" font-size="14.00">10</text>
</g>
<!-- 9&#45;&gt;10 -->
<g id="edge12" class="edge"><title>9&#45;&gt;10</title>
<path fill="none" stroke="black" d="M171.977,-1296.05C169.83,-1288.14 167.223,-1278.54 164.82,-1269.69"/>
<polygon fill="black" stroke="black" points="168.131,-1268.52 162.133,-1259.79 161.375,-1270.36 168.131,-1268.52"/>
</g>
<!-- 11 -->
<g id="node12" class="node"><title>11</title>
<ellipse fill="none" stroke="black" cx="148.576" cy="-1170" rx="27" ry="18"/>
<text text-anchor="middle" x="148.576" y="-1166.3" font-family="Times New Roman,serif" font-size="14.00">11</text>
</g>
<!-- 10&#45;&gt;11 -->
<g id="edge13" class="edge"><title>10&#45;&gt;11</title>
<path fill="none" stroke="black" d="M155.398,-1224.05C154.407,-1216.35 153.208,-1207.03 152.095,-1198.36"/>
<polygon fill="black" stroke="black" points="155.544,-1197.75 150.797,-1188.28 148.601,-1198.64 155.544,-1197.75"/>
</g>
<!-- 12 -->
<g id="node13" class="node"><title>12</title>
<ellipse fill="none" stroke="black" cx="143.576" cy="-1098" rx="27" ry="18"/>
<text text-anchor="middle" x="143.576" y="-1094.3" font-family="Times New Roman,serif" font-size="14.00">12</text>
</g>
<!-- 11&#45;&gt;12 -->
<g id="edge14" class="edge"><title>11&#45;&gt;12</title>
<path fill="none" stroke="black" d="M147.34,-1151.7C146.789,-1143.98 146.127,-1134.71 145.513,-1126.11"/>
<polygon fill="black" stroke="black" points="149.002,-1125.83 144.798,-1116.1 142.02,-1126.33 149.002,-1125.83"/>
</g>
<!-- 29 -->
<g id="node14" class="node"><title>29</title>
<ellipse fill="none" stroke="black" cx="47.5764" cy="-954" rx="27" ry="18"/>
<text text-anchor="middle" x="47.5764" y="-950.3" font-family="Times New Roman,serif" font-size="14.00">29</text>
</g>
<!-- 11&#45;&gt;29 -->
<g id="edge15" class="edge"><title>11&#45;&gt;29</title>
<path fill="none" stroke="black" d="M135.065,-1154.1C126.357,-1143.92 115.266,-1129.83 107.576,-1116 82.8496,-1071.54 64.4399,-1014.87 54.9044,-981.982"/>
<polygon fill="black" stroke="black" points="58.2217,-980.851 52.1235,-972.187 51.4878,-982.763 58.2217,-980.851"/>
</g>
<!-- 13 -->
<g id="node15" class="node"><title>13</title>
<ellipse fill="none" stroke="black" cx="138.576" cy="-1026" rx="27" ry="18"/>
<text text-anchor="middle" x="138.576" y="-1022.3" font-family="Times New Roman,serif" font-size="14.00">13</text>
</g>
<!-- 12&#45;&gt;13 -->
<g id="edge16" class="edge"><title>12&#45;&gt;13</title>
<path fill="none" stroke="black" d="M142.34,-1079.7C141.789,-1071.98 141.127,-1062.71 140.513,-1054.11"/>
<polygon fill="black" stroke="black" points="144.002,-1053.83 139.798,-1044.1 137.02,-1054.33 144.002,-1053.83"/>
</g>
<!-- 30 -->
<g id="node30" class="node"><title>30</title>
<ellipse fill="none" stroke="black" cx="38.5764" cy="-882" rx="27" ry="18"/>
<text text-anchor="middle" x="38.5764" y="-878.3" font-family="Times New Roman,serif" font-size="14.00">30</text>
</g>
<!-- 29&#45;&gt;30 -->
<g id="edge38" class="edge"><title>29&#45;&gt;30</title>
<path fill="none" stroke="black" d="M45.3977,-936.055C44.4065,-928.346 43.2084,-919.027 42.0946,-910.364"/>
<polygon fill="black" stroke="black" points="45.5442,-909.747 40.7975,-900.275 38.6014,-910.64 45.5442,-909.747"/>
</g>
<!-- 13&#45;&gt;29 -->
<g id="edge18" class="edge"><title>13&#45;&gt;29</title>
<path fill="none" stroke="black" d="M121.46,-1011.83C107.733,-1001.27 88.2665,-986.3 72.7611,-974.373"/>
<polygon fill="black" stroke="black" points="74.6763,-971.43 64.616,-968.107 70.4083,-976.979 74.6763,-971.43"/>
</g>
<!-- 14 -->
<g id="node16" class="node"><title>14</title>
<ellipse fill="none" stroke="black" cx="110.576" cy="-882" rx="27" ry="18"/>
<text text-anchor="middle" x="110.576" y="-878.3" font-family="Times New Roman,serif" font-size="14.00">14</text>
</g>
<!-- 13&#45;&gt;14 -->
<g id="edge17" class="edge"><title>13&#45;&gt;14</title>
<path fill="none" stroke="black" d="M135.199,-1007.87C130.406,-983.564 121.583,-938.819 115.903,-910.013"/>
<polygon fill="black" stroke="black" points="119.334,-909.323 113.966,-900.189 112.467,-910.677 119.334,-909.323"/>
</g>
<!-- 15 -->
<g id="node17" class="node"><title>15</title>
<ellipse fill="none" stroke="black" cx="111.576" cy="-666" rx="27" ry="18"/>
<text text-anchor="middle" x="111.576" y="-662.3" font-family="Times New Roman,serif" font-size="14.00">15</text>
</g>
<!-- 14&#45;&gt;15 -->
<g id="edge19" class="edge"><title>14&#45;&gt;15</title>
<path fill="none" stroke="black" d="M110.657,-863.849C110.829,-826.832 111.239,-739.181 111.448,-694.386"/>
<polygon fill="black" stroke="black" points="114.949,-694.249 111.496,-684.232 107.949,-694.216 114.949,-694.249"/>
</g>
<!-- 15&#45;&gt;29 -->
<g id="edge21" class="edge"><title>15&#45;&gt;29</title>
<path fill="none" stroke="black" d="M95.6544,-680.899C72.4553,-702.204 30.0149,-745.392 10.5764,-792 7.52505,-799.316 -5.11872,-879.048 2.57636,-900 7.01797,-912.094 15.5783,-923.316 24.0508,-932.291"/>
<polygon fill="black" stroke="black" points="21.8086,-934.997 31.368,-939.566 26.7438,-930.033 21.8086,-934.997"/>
</g>
<!-- 16 -->
<g id="node18" class="node"><title>16</title>
<ellipse fill="none" stroke="black" cx="121.576" cy="-594" rx="27" ry="18"/>
<text text-anchor="middle" x="121.576" y="-590.3" font-family="Times New Roman,serif" font-size="14.00">16</text>
</g>
<!-- 15&#45;&gt;16 -->
<g id="edge20" class="edge"><title>15&#45;&gt;16</title>
<path fill="none" stroke="black" d="M113.997,-648.055C115.098,-640.346 116.43,-631.027 117.667,-622.364"/>
<polygon fill="black" stroke="black" points="121.159,-622.67 119.108,-612.275 114.229,-621.68 121.159,-622.67"/>
</g>
<!-- 17 -->
<g id="node19" class="node"><title>17</title>
<ellipse fill="none" stroke="black" cx="126.576" cy="-522" rx="27" ry="18"/>
<text text-anchor="middle" x="126.576" y="-518.3" font-family="Times New Roman,serif" font-size="14.00">17</text>
</g>
<!-- 16&#45;&gt;17 -->
<g id="edge22" class="edge"><title>16&#45;&gt;17</title>
<path fill="none" stroke="black" d="M122.812,-575.697C123.363,-567.983 124.025,-558.712 124.64,-550.112"/>
<polygon fill="black" stroke="black" points="128.133,-550.328 125.355,-540.104 121.151,-549.83 128.133,-550.328"/>
</g>
<!-- 18 -->
<g id="node20" class="node"><title>18</title>
<ellipse fill="none" stroke="black" cx="72.5764" cy="-450" rx="27" ry="18"/>
<text text-anchor="middle" x="72.5764" y="-446.3" font-family="Times New Roman,serif" font-size="14.00">18</text>
</g>
<!-- 17&#45;&gt;18 -->
<g id="edge23" class="edge"><title>17&#45;&gt;18</title>
<path fill="none" stroke="black" d="M114.592,-505.465C107.601,-496.402 98.6402,-484.786 90.7912,-474.612"/>
<polygon fill="black" stroke="black" points="93.4065,-472.272 84.5272,-466.492 87.864,-476.548 93.4065,-472.272"/>
</g>
<!-- 25 -->
<g id="node21" class="node"><title>25</title>
<ellipse fill="none" stroke="black" cx="185.576" cy="-450" rx="27" ry="18"/>
<text text-anchor="middle" x="185.576" y="-446.3" font-family="Times New Roman,serif" font-size="14.00">25</text>
</g>
<!-- 17&#45;&gt;25 -->
<g id="edge24" class="edge"><title>17&#45;&gt;25</title>
<path fill="none" stroke="black" d="M139.378,-505.811C147.187,-496.546 157.324,-484.52 166.111,-474.094"/>
<polygon fill="black" stroke="black" points="169.031,-476.061 172.799,-466.159 163.678,-471.55 169.031,-476.061"/>
</g>
<!-- 19 -->
<g id="node22" class="node"><title>19</title>
<ellipse fill="none" stroke="black" cx="72.5764" cy="-378" rx="27" ry="18"/>
<text text-anchor="middle" x="72.5764" y="-374.3" font-family="Times New Roman,serif" font-size="14.00">19</text>
</g>
<!-- 18&#45;&gt;19 -->
<g id="edge25" class="edge"><title>18&#45;&gt;19</title>
<path fill="none" stroke="black" d="M72.5764,-431.697C72.5764,-423.983 72.5764,-414.712 72.5764,-406.112"/>
<polygon fill="black" stroke="black" points="76.0765,-406.104 72.5764,-396.104 69.0765,-406.104 76.0765,-406.104"/>
</g>
<!-- 26 -->
<g id="node28" class="node"><title>26</title>
<ellipse fill="none" stroke="black" cx="241.576" cy="-378" rx="27" ry="18"/>
<text text-anchor="middle" x="241.576" y="-374.3" font-family="Times New Roman,serif" font-size="14.00">26</text>
</g>
<!-- 25&#45;&gt;26 -->
<g id="edge32" class="edge"><title>25&#45;&gt;26</title>
<path fill="none" stroke="black" d="M197.728,-433.811C205.139,-424.546 214.76,-412.52 223.101,-402.094"/>
<polygon fill="black" stroke="black" points="225.935,-404.154 229.449,-394.159 220.469,-399.782 225.935,-404.154"/>
</g>
<!-- 20 -->
<g id="node23" class="node"><title>20</title>
<ellipse fill="none" stroke="black" cx="72.5764" cy="-306" rx="27" ry="18"/>
<text text-anchor="middle" x="72.5764" y="-302.3" font-family="Times New Roman,serif" font-size="14.00">20</text>
</g>
<!-- 19&#45;&gt;20 -->
<g id="edge26" class="edge"><title>19&#45;&gt;20</title>
<path fill="none" stroke="black" d="M72.5764,-359.697C72.5764,-351.983 72.5764,-342.712 72.5764,-334.112"/>
<polygon fill="black" stroke="black" points="76.0765,-334.104 72.5764,-324.104 69.0765,-334.104 76.0765,-334.104"/>
</g>
<!-- 21 -->
<g id="node24" class="node"><title>21</title>
<ellipse fill="none" stroke="black" cx="72.5764" cy="-234" rx="27" ry="18"/>
<text text-anchor="middle" x="72.5764" y="-230.3" font-family="Times New Roman,serif" font-size="14.00">21</text>
</g>
<!-- 20&#45;&gt;21 -->
<g id="edge27" class="edge"><title>20&#45;&gt;21</title>
<path fill="none" stroke="black" d="M72.5764,-287.697C72.5764,-279.983 72.5764,-270.712 72.5764,-262.112"/>
<polygon fill="black" stroke="black" points="76.0765,-262.104 72.5764,-252.104 69.0765,-262.104 76.0765,-262.104"/>
</g>
<!-- 22 -->
<g id="node25" class="node"><title>22</title>
<ellipse fill="none" stroke="black" cx="72.5764" cy="-162" rx="27" ry="18"/>
<text text-anchor="middle" x="72.5764" y="-158.3" font-family="Times New Roman,serif" font-size="14.00">22</text>
</g>
<!-- 21&#45;&gt;22 -->
<g id="edge28" class="edge"><title>21&#45;&gt;22</title>
<path fill="none" stroke="black" d="M72.5764,-215.697C72.5764,-207.983 72.5764,-198.712 72.5764,-190.112"/>
<polygon fill="black" stroke="black" points="76.0765,-190.104 72.5764,-180.104 69.0765,-190.104 76.0765,-190.104"/>
</g>
<!-- 23 -->
<g id="node26" class="node"><title>23</title>
<ellipse fill="none" stroke="black" cx="72.5764" cy="-90" rx="27" ry="18"/>
<text text-anchor="middle" x="72.5764" y="-86.3" font-family="Times New Roman,serif" font-size="14.00">23</text>
</g>
<!-- 22&#45;&gt;23 -->
<g id="edge29" class="edge"><title>22&#45;&gt;23</title>
<path fill="none" stroke="black" d="M72.5764,-143.697C72.5764,-135.983 72.5764,-126.712 72.5764,-118.112"/>
<polygon fill="black" stroke="black" points="76.0765,-118.104 72.5764,-108.104 69.0765,-118.104 76.0765,-118.104"/>
</g>
<!-- 24 -->
<g id="node27" class="node"><title>24</title>
<ellipse fill="none" stroke="black" cx="99.5764" cy="-18" rx="27" ry="18"/>
<text text-anchor="middle" x="99.5764" y="-14.3" font-family="Times New Roman,serif" font-size="14.00">24</text>
</g>
<!-- 23&#45;&gt;24 -->
<g id="edge30" class="edge"><title>23&#45;&gt;24</title>
<path fill="none" stroke="black" d="M78.975,-72.411C82.0899,-64.3352 85.91,-54.4312 89.411,-45.3547"/>
<polygon fill="black" stroke="black" points="92.7028,-46.5458 93.0361,-35.9562 86.1718,-44.0267 92.7028,-46.5458"/>
</g>
<!-- 24&#45;&gt;17 -->
<g id="edge31" class="edge"><title>24&#45;&gt;17</title>
<path fill="none" stroke="black" d="M105.108,-35.8374C113.268,-62.2129 127.576,-115.017 127.576,-161 127.576,-379 127.576,-379 127.576,-379 127.576,-419.005 127.175,-465.348 126.88,-493.921"/>
<polygon fill="black" stroke="black" points="123.38,-493.914 126.774,-503.951 130.38,-493.989 123.38,-493.914"/>
</g>
<!-- 26&#45;&gt;3 -->
<g id="edge33" class="edge"><title>26&#45;&gt;3</title>
<path fill="none" stroke="black" d="M241.576,-396.049C241.576,-422.708 241.576,-475.885 241.576,-521 241.576,-1459 241.576,-1459 241.576,-1459 241.576,-1499.77 252.826,-1545.91 261.064,-1574.23"/>
<polygon fill="black" stroke="black" points="257.818,-1575.59 264.044,-1584.16 264.523,-1573.58 257.818,-1575.59"/>
</g>
<!-- 26&#45;&gt;5 -->
<g id="edge34" class="edge"><title>26&#45;&gt;5</title>
<path fill="none" stroke="black" d="M249.084,-395.662C260.158,-421.803 279.576,-474.298 279.576,-521 279.576,-1315 279.576,-1315 279.576,-1315 279.576,-1355.29 286.407,-1401.56 291.408,-1430.04"/>
<polygon fill="black" stroke="black" points="287.992,-1430.81 293.218,-1440.03 294.88,-1429.57 287.992,-1430.81"/>
</g>
<!-- 28&#45;&gt;2 -->
<g id="edge36" class="edge"><title>28&#45;&gt;2</title>
<path fill="none" stroke="black" d="M457.324,-1258.3C465.135,-1268.41 474.724,-1282.29 480.576,-1296 496.457,-1333.2 499.576,-1344.55 499.576,-1385 499.576,-1531 499.576,-1531 499.576,-1531 499.576,-1574.7 476.642,-1621.18 460.392,-1648.62"/>
<polygon fill="black" stroke="black" points="457.4,-1646.8 455.181,-1657.16 463.376,-1650.45 457.4,-1646.8"/>
</g>
<!-- 28&#45;&gt;6 -->
<g id="edge37" class="edge"><title>28&#45;&gt;6</title>
<path fill="none" stroke="black" d="M418.824,-1247.57C392.967,-1253.69 354.472,-1267.28 336.576,-1296 324.603,-1315.21 331.464,-1340.95 339.767,-1359.81"/>
<polygon fill="black" stroke="black" points="336.677,-1361.46 344.149,-1368.97 342.992,-1358.44 336.677,-1361.46"/>
</g>
<!-- 31 -->
<g id="node31" class="node"><title>31</title>
<ellipse fill="none" stroke="black" cx="46.5764" cy="-810" rx="27" ry="18"/>
<text text-anchor="middle" x="46.5764" y="-806.3" font-family="Times New Roman,serif" font-size="14.00">31</text>
</g>
<!-- 30&#45;&gt;31 -->
<g id="edge39" class="edge"><title>30&#45;&gt;31</title>
<path fill="none" stroke="black" d="M40.5539,-863.697C41.4355,-855.983 42.4949,-846.712 43.4778,-838.112"/>
<polygon fill="black" stroke="black" points="46.9634,-838.437 44.6216,-828.104 40.0087,-837.642 46.9634,-838.437"/>
</g>
<!-- 32 -->
<g id="node32" class="node"><title>32</title>
<ellipse fill="none" stroke="black" cx="165.576" cy="-738" rx="27" ry="18"/>
<text text-anchor="middle" x="165.576" y="-734.3" font-family="Times New Roman,serif" font-size="14.00">32</text>
</g>
<!-- 31&#45;&gt;32 -->
<g id="edge40" class="edge"><title>31&#45;&gt;32</title>
<path fill="none" stroke="black" d="M66.2268,-797.441C85.5195,-786.092 115.157,-768.658 137.044,-755.784"/>
<polygon fill="black" stroke="black" points="139.052,-758.663 145.897,-750.576 135.503,-752.63 139.052,-758.663"/>
</g>
<!-- 32&#45;&gt;11 -->
<g id="edge41" class="edge"><title>32&#45;&gt;11</title>
<path fill="none" stroke="black" d="M173.084,-755.662C184.158,-781.803 203.576,-834.298 203.576,-881 203.576,-1027 203.576,-1027 203.576,-1027 203.576,-1070.7 180.642,-1117.18 164.392,-1144.62"/>
<polygon fill="black" stroke="black" points="161.4,-1142.8 159.181,-1153.16 167.376,-1146.45 161.4,-1142.8"/>
</g>
<!-- 32&#45;&gt;13 -->
<g id="edge42" class="edge"><title>32&#45;&gt;13</title>
<path fill="none" stroke="black" d="M163.943,-756.306C159.41,-804.313 146.654,-939.439 141.153,-997.702"/>
<polygon fill="black" stroke="black" points="137.64,-997.681 140.184,-1007.97 144.609,-998.339 137.64,-997.681"/>
</g>
<!-- 32&#45;&gt;15 -->
<g id="edge43" class="edge"><title>32&#45;&gt;15</title>
<path fill="none" stroke="black" d="M153.592,-721.465C146.601,-712.402 137.64,-700.786 129.791,-690.612"/>
<polygon fill="black" stroke="black" points="132.407,-688.272 123.527,-682.492 126.864,-692.548 132.407,-688.272"/>
</g>
</g>
</svg>
