<?xml version="1.0" encoding="UTF-8" standalone="no"?>
<!DOCTYPE svg PUBLIC "-//W3C//DTD SVG 1.1//EN"
 "http://www.w3.org/Graphics/SVG/1.1/DTD/svg11.dtd">
<!-- Generated by graphviz version 2.38.0 (20140413.2041)
 -->
<!-- Title: grafoCompleto Pages: 1 -->
<svg width="527pt" height="1772pt"
 viewBox="0.00 0.00 526.65 1772.00" xmlns="http://www.w3.org/2000/svg" xmlns:xlink="http://www.w3.org/1999/xlink">
<g id="graph0" class="graph" transform="scale(1 1) rotate(0) translate(4 1768)">
<title>grafoCompleto</title>
<polygon fill="white" stroke="none" points="-4,4 -4,-1768 522.651,-1768 522.651,4 -4,4"/>
<!-- 1 -->
<g id="node1" class="node"><title>1</title>
<ellipse fill="none" stroke="black" cx="463.651" cy="-1746" rx="27" ry="18"/>
<text text-anchor="middle" x="463.651" y="-1742.3" font-family="Times New Roman,serif" font-size="14.00">1</text>
</g>
<!-- 2 -->
<g id="node2" class="node"><title>2</title>
<ellipse fill="none" stroke="black" cx="463.651" cy="-1674" rx="27" ry="18"/>
<text text-anchor="middle" x="463.651" y="-1670.3" font-family="Times New Roman,serif" font-size="14.00">2</text>
</g>
<!-- 1&#45;&gt;2 -->
<g id="edge1" class="edge"><title>1&#45;&gt;2</title>
<path fill="none" stroke="black" d="M463.651,-1727.7C463.651,-1719.98 463.651,-1710.71 463.651,-1702.11"/>
<polygon fill="black" stroke="black" points="467.151,-1702.1 463.651,-1692.1 460.151,-1702.1 467.151,-1702.1"/>
</g>
<!-- 3 -->
<g id="node3" class="node"><title>3</title>
<ellipse fill="none" stroke="black" cx="288.651" cy="-1602" rx="27" ry="18"/>
<text text-anchor="middle" x="288.651" y="-1598.3" font-family="Times New Roman,serif" font-size="14.00">3</text>
</g>
<!-- 2&#45;&gt;3 -->
<g id="edge2" class="edge"><title>2&#45;&gt;3</title>
<path fill="none" stroke="black" d="M441.131,-1663.99C410.632,-1651.79 356.002,-1629.94 321.084,-1615.97"/>
<polygon fill="black" stroke="black" points="321.946,-1612.55 311.362,-1612.08 319.347,-1619.05 321.946,-1612.55"/>
</g>
<!-- 27 -->
<g id="node4" class="node"><title>27</title>
<ellipse fill="none" stroke="black" cx="463.651" cy="-1314" rx="27" ry="18"/>
<text text-anchor="middle" x="463.651" y="-1310.3" font-family="Times New Roman,serif" font-size="14.00">27</text>
</g>
<!-- 2&#45;&gt;27 -->
<g id="edge3" class="edge"><title>2&#45;&gt;27</title>
<path fill="none" stroke="black" d="M463.651,-1655.95C463.651,-1629.29 463.651,-1576.11 463.651,-1531 463.651,-1531 463.651,-1531 463.651,-1457 463.651,-1417 463.651,-1370.65 463.651,-1342.08"/>
<polygon fill="black" stroke="black" points="467.151,-1342.05 463.651,-1332.05 460.151,-1342.05 467.151,-1342.05"/>
</g>
<!-- 4 -->
<g id="node5" class="node"><title>4</title>
<ellipse fill="none" stroke="black" cx="315.651" cy="-1530" rx="27" ry="18"/>
<text text-anchor="middle" x="315.651" y="-1526.3" font-family="Times New Roman,serif" font-size="14.00">4</text>
</g>
<!-- 3&#45;&gt;4 -->
<g id="edge4" class="edge"><title>3&#45;&gt;4</title>
<path fill="none" stroke="black" d="M295.05,-1584.41C298.165,-1576.34 301.985,-1566.43 305.486,-1557.35"/>
<polygon fill="black" stroke="black" points="308.777,-1558.55 309.111,-1547.96 302.246,-1556.03 308.777,-1558.55"/>
</g>
<!-- 8 -->
<g id="node6" class="node"><title>8</title>
<ellipse fill="none" stroke="black" cx="205.651" cy="-1386" rx="27" ry="18"/>
<text text-anchor="middle" x="205.651" y="-1382.3" font-family="Times New Roman,serif" font-size="14.00">8</text>
</g>
<!-- 3&#45;&gt;8 -->
<g id="edge5" class="edge"><title>3&#45;&gt;8</title>
<path fill="none" stroke="black" d="M274.287,-1586.41C265.146,-1576.37 253.736,-1562.31 246.651,-1548 224.919,-1504.11 213.978,-1447.61 209.074,-1414.54"/>
<polygon fill="black" stroke="black" points="212.49,-1413.69 207.636,-1404.27 205.557,-1414.66 212.49,-1413.69"/>
</g>
<!-- 28 -->
<g id="node29" class="node"><title>28</title>
<ellipse fill="none" stroke="black" cx="463.651" cy="-1242" rx="27" ry="18"/>
<text text-anchor="middle" x="463.651" y="-1238.3" font-family="Times New Roman,serif" font-size="14.00">28</text>
</g>
<!-- 27&#45;&gt;28 -->
<g id="edge36" class="edge"><title>27&#45;&gt;28</title>
<path fill="none" stroke="black" d="M463.651,-1295.7C463.651,-1287.98 463.651,-1278.71 463.651,-1270.11"/>
<polygon fill="black" stroke="black" points="467.151,-1270.1 463.651,-1260.1 460.151,-1270.1 467.151,-1270.1"/>
</g>
<!-- 5 -->
<g id="node7" class="node"><title>5</title>
<ellipse fill="none" stroke="black" cx="315.651" cy="-1458" rx="27" ry="18"/>
<text text-anchor="middle" x="315.651" y="-1454.3" font-family="Times New Roman,serif" font-size="14.00">5</text>
</g>
<!-- 4&#45;&gt;5 -->
<g id="edge6" class="edge"><title>4&#45;&gt;5</title>
<path fill="none" stroke="black" d="M315.651,-1511.7C315.651,-1503.98 315.651,-1494.71 315.651,-1486.11"/>
<polygon fill="black" stroke="black" points="319.151,-1486.1 315.651,-1476.1 312.151,-1486.1 319.151,-1486.1"/>
</g>
<!-- 9 -->
<g id="node10" class="node"><title>9</title>
<ellipse fill="none" stroke="black" cx="186.651" cy="-1314" rx="27" ry="18"/>
<text text-anchor="middle" x="186.651" y="-1310.3" font-family="Times New Roman,serif" font-size="14.00">9</text>
</g>
<!-- 8&#45;&gt;9 -->
<g id="edge11" class="edge"><title>8&#45;&gt;9</title>
<path fill="none" stroke="black" d="M201.052,-1368.05C198.905,-1360.14 196.298,-1350.54 193.895,-1341.69"/>
<polygon fill="black" stroke="black" points="197.205,-1340.52 191.208,-1331.79 190.45,-1342.36 197.205,-1340.52"/>
</g>
<!-- 5&#45;&gt;8 -->
<g id="edge8" class="edge"><title>5&#45;&gt;8</title>
<path fill="none" stroke="black" d="M296.49,-1444.81C278.982,-1433.67 252.892,-1417.06 233.158,-1404.5"/>
<polygon fill="black" stroke="black" points="234.908,-1401.47 224.592,-1399.05 231.15,-1407.37 234.908,-1401.47"/>
</g>
<!-- 6 -->
<g id="node8" class="node"><title>6</title>
<ellipse fill="none" stroke="black" cx="372.651" cy="-1386" rx="27" ry="18"/>
<text text-anchor="middle" x="372.651" y="-1382.3" font-family="Times New Roman,serif" font-size="14.00">6</text>
</g>
<!-- 5&#45;&gt;6 -->
<g id="edge7" class="edge"><title>5&#45;&gt;6</title>
<path fill="none" stroke="black" d="M328.019,-1441.81C335.563,-1432.55 345.356,-1420.52 353.846,-1410.09"/>
<polygon fill="black" stroke="black" points="356.707,-1412.12 360.307,-1402.16 351.279,-1407.7 356.707,-1412.12"/>
</g>
<!-- 6&#45;&gt;27 -->
<g id="edge10" class="edge"><title>6&#45;&gt;27</title>
<path fill="none" stroke="black" d="M389.767,-1371.83C403.495,-1361.27 422.961,-1346.3 438.466,-1334.37"/>
<polygon fill="black" stroke="black" points="440.819,-1336.98 446.611,-1328.11 436.551,-1331.43 440.819,-1336.98"/>
</g>
<!-- 7 -->
<g id="node9" class="node"><title>7</title>
<ellipse fill="none" stroke="black" cx="391.651" cy="-1314" rx="27" ry="18"/>
<text text-anchor="middle" x="391.651" y="-1310.3" font-family="Times New Roman,serif" font-size="14.00">7</text>
</g>
<!-- 6&#45;&gt;7 -->
<g id="edge9" class="edge"><title>6&#45;&gt;7</title>
<path fill="none" stroke="black" d="M377.25,-1368.05C379.397,-1360.14 382.004,-1350.54 384.407,-1341.69"/>
<polygon fill="black" stroke="black" points="387.852,-1342.36 387.094,-1331.79 381.097,-1340.52 387.852,-1342.36"/>
</g>
<!-- 10 -->
<g id="node11" class="node"><title>10</title>
<ellipse fill="none" stroke="black" cx="177.651" cy="-1242" rx="27" ry="18"/>
<text text-anchor="middle" x="177.651" y="-1238.3" font-family="Times New Roman,serif" font-size="14.00">10</text>
</g>
<!-- 9&#45;&gt;10 -->
<g id="edge12" class="edge"><title>9&#45;&gt;10</title>
<path fill="none" stroke="black" d="M184.472,-1296.05C183.481,-1288.35 182.283,-1279.03 181.169,-1270.36"/>
<polygon fill="black" stroke="black" points="184.619,-1269.75 179.872,-1260.28 177.676,-1270.64 184.619,-1269.75"/>
</g>
<!-- 11 -->
<g id="node12" class="node"><title>11</title>
<ellipse fill="none" stroke="black" cx="162.651" cy="-1170" rx="27" ry="18"/>
<text text-anchor="middle" x="162.651" y="-1166.3" font-family="Times New Roman,serif" font-size="14.00">11</text>
</g>
<!-- 10&#45;&gt;11 -->
<g id="edge13" class="edge"><title>10&#45;&gt;11</title>
<path fill="none" stroke="black" d="M174.02,-1224.05C172.35,-1216.26 170.327,-1206.82 168.454,-1198.08"/>
<polygon fill="black" stroke="black" points="171.871,-1197.32 166.353,-1188.28 165.026,-1198.79 171.871,-1197.32"/>
</g>
<!-- 12 -->
<g id="node13" class="node"><title>12</title>
<ellipse fill="none" stroke="black" cx="157.651" cy="-1098" rx="27" ry="18"/>
<text text-anchor="middle" x="157.651" y="-1094.3" font-family="Times New Roman,serif" font-size="14.00">12</text>
</g>
<!-- 11&#45;&gt;12 -->
<g id="edge14" class="edge"><title>11&#45;&gt;12</title>
<path fill="none" stroke="black" d="M161.415,-1151.7C160.864,-1143.98 160.202,-1134.71 159.588,-1126.11"/>
<polygon fill="black" stroke="black" points="163.076,-1125.83 158.873,-1116.1 156.094,-1126.33 163.076,-1125.83"/>
</g>
<!-- 29 -->
<g id="node14" class="node"><title>29</title>
<ellipse fill="none" stroke="black" cx="73.651" cy="-954" rx="27" ry="18"/>
<text text-anchor="middle" x="73.651" y="-950.3" font-family="Times New Roman,serif" font-size="14.00">29</text>
</g>
<!-- 11&#45;&gt;29 -->
<g id="edge15" class="edge"><title>11&#45;&gt;29</title>
<path fill="none" stroke="black" d="M148.831,-1154.26C139.994,-1144.15 128.874,-1130.08 121.651,-1116 98.9423,-1071.74 85.1875,-1015 78.5348,-982.05"/>
<polygon fill="black" stroke="black" points="81.9701,-981.379 76.6221,-972.233 75.0993,-982.718 81.9701,-981.379"/>
</g>
<!-- 13 -->
<g id="node15" class="node"><title>13</title>
<ellipse fill="none" stroke="black" cx="147.651" cy="-1026" rx="27" ry="18"/>
<text text-anchor="middle" x="147.651" y="-1022.3" font-family="Times New Roman,serif" font-size="14.00">13</text>
</g>
<!-- 12&#45;&gt;13 -->
<g id="edge16" class="edge"><title>12&#45;&gt;13</title>
<path fill="none" stroke="black" d="M155.23,-1080.05C154.129,-1072.35 152.798,-1063.03 151.56,-1054.36"/>
<polygon fill="black" stroke="black" points="154.998,-1053.68 150.119,-1044.28 148.068,-1054.67 154.998,-1053.68"/>
</g>
<!-- 30 -->
<g id="node30" class="node"><title>30</title>
<ellipse fill="none" stroke="black" cx="39.651" cy="-882" rx="27" ry="18"/>
<text text-anchor="middle" x="39.651" y="-878.3" font-family="Times New Roman,serif" font-size="14.00">30</text>
</g>
<!-- 29&#45;&gt;30 -->
<g id="edge39" class="edge"><title>29&#45;&gt;30</title>
<path fill="none" stroke="black" d="M65.7653,-936.765C61.7468,-928.491 56.7638,-918.232 52.2312,-908.9"/>
<polygon fill="black" stroke="black" points="55.2475,-907.099 47.7301,-899.633 48.9509,-910.158 55.2475,-907.099"/>
</g>
<!-- 13&#45;&gt;29 -->
<g id="edge18" class="edge"><title>13&#45;&gt;29</title>
<path fill="none" stroke="black" d="M129.105,-1012.49C117.496,-1002.87 102.833,-989.334 91.3934,-977.811"/>
<polygon fill="black" stroke="black" points="93.8756,-975.343 84.4063,-970.591 88.8453,-980.211 93.8756,-975.343"/>
</g>
<!-- 13&#45;&gt;29 -->
<g id="edge19" class="edge"><title>13&#45;&gt;29</title>
<path fill="none" stroke="black" d="M136.948,-1009.46C127.117,-998.991 112.56,-985.108 99.7924,-973.979"/>
<polygon fill="black" stroke="black" points="102.017,-971.277 92.1326,-967.462 97.4805,-976.608 102.017,-971.277"/>
</g>
<!-- 14 -->
<g id="node16" class="node"><title>14</title>
<ellipse fill="none" stroke="black" cx="111.651" cy="-882" rx="27" ry="18"/>
<text text-anchor="middle" x="111.651" y="-878.3" font-family="Times New Roman,serif" font-size="14.00">14</text>
</g>
<!-- 13&#45;&gt;14 -->
<g id="edge17" class="edge"><title>13&#45;&gt;14</title>
<path fill="none" stroke="black" d="M143.38,-1008.15C137.209,-983.813 125.739,-938.568 118.411,-909.665"/>
<polygon fill="black" stroke="black" points="121.767,-908.658 115.916,-899.825 114.981,-910.378 121.767,-908.658"/>
</g>
<!-- 15 -->
<g id="node17" class="node"><title>15</title>
<ellipse fill="none" stroke="black" cx="117.651" cy="-666" rx="27" ry="18"/>
<text text-anchor="middle" x="117.651" y="-662.3" font-family="Times New Roman,serif" font-size="14.00">15</text>
</g>
<!-- 14&#45;&gt;15 -->
<g id="edge20" class="edge"><title>14&#45;&gt;15</title>
<path fill="none" stroke="black" d="M112.132,-863.849C113.17,-826.832 115.627,-739.181 116.883,-694.386"/>
<polygon fill="black" stroke="black" points="120.386,-694.327 117.168,-684.232 113.389,-694.13 120.386,-694.327"/>
</g>
<!-- 15&#45;&gt;29 -->
<g id="edge22" class="edge"><title>15&#45;&gt;29</title>
<path fill="none" stroke="black" d="M102.134,-681.076C79.4514,-702.607 37.662,-746.079 16.651,-792 3.12159,-821.569 6.55145,-831.612 3.651,-864 2.22385,-879.936 -3.4718,-885.673 3.651,-900 11.9118,-916.616 28.1448,-929.414 42.9001,-938.268"/>
<polygon fill="black" stroke="black" points="41.3785,-941.427 51.812,-943.27 44.8047,-935.323 41.3785,-941.427"/>
</g>
<!-- 16 -->
<g id="node18" class="node"><title>16</title>
<ellipse fill="none" stroke="black" cx="119.651" cy="-594" rx="27" ry="18"/>
<text text-anchor="middle" x="119.651" y="-590.3" font-family="Times New Roman,serif" font-size="14.00">16</text>
</g>
<!-- 15&#45;&gt;16 -->
<g id="edge21" class="edge"><title>15&#45;&gt;16</title>
<path fill="none" stroke="black" d="M118.145,-647.697C118.366,-639.983 118.631,-630.712 118.876,-622.112"/>
<polygon fill="black" stroke="black" points="122.375,-622.2 119.162,-612.104 115.378,-622 122.375,-622.2"/>
</g>
<!-- 17 -->
<g id="node19" class="node"><title>17</title>
<ellipse fill="none" stroke="black" cx="136.651" cy="-522" rx="27" ry="18"/>
<text text-anchor="middle" x="136.651" y="-518.3" font-family="Times New Roman,serif" font-size="14.00">17</text>
</g>
<!-- 16&#45;&gt;17 -->
<g id="edge23" class="edge"><title>16&#45;&gt;17</title>
<path fill="none" stroke="black" d="M123.766,-576.055C125.659,-568.261 127.951,-558.822 130.075,-550.079"/>
<polygon fill="black" stroke="black" points="133.497,-550.819 132.456,-540.275 126.694,-549.167 133.497,-550.819"/>
</g>
<!-- 18 -->
<g id="node20" class="node"><title>18</title>
<ellipse fill="none" stroke="black" cx="89.651" cy="-450" rx="27" ry="18"/>
<text text-anchor="middle" x="89.651" y="-446.3" font-family="Times New Roman,serif" font-size="14.00">18</text>
</g>
<!-- 17&#45;&gt;18 -->
<g id="edge24" class="edge"><title>17&#45;&gt;18</title>
<path fill="none" stroke="black" d="M125.986,-505.116C120.097,-496.345 112.657,-485.264 106.045,-475.416"/>
<polygon fill="black" stroke="black" points="108.754,-473.172 100.274,-466.821 102.942,-477.074 108.754,-473.172"/>
</g>
<!-- 25 -->
<g id="node21" class="node"><title>25</title>
<ellipse fill="none" stroke="black" cx="201.651" cy="-450" rx="27" ry="18"/>
<text text-anchor="middle" x="201.651" y="-446.3" font-family="Times New Roman,serif" font-size="14.00">25</text>
</g>
<!-- 17&#45;&gt;25 -->
<g id="edge25" class="edge"><title>17&#45;&gt;25</title>
<path fill="none" stroke="black" d="M150.436,-506.155C159.312,-496.596 171.014,-483.994 180.991,-473.249"/>
<polygon fill="black" stroke="black" points="183.646,-475.533 187.886,-465.824 178.517,-470.77 183.646,-475.533"/>
</g>
<!-- 19 -->
<g id="node22" class="node"><title>19</title>
<ellipse fill="none" stroke="black" cx="89.651" cy="-378" rx="27" ry="18"/>
<text text-anchor="middle" x="89.651" y="-374.3" font-family="Times New Roman,serif" font-size="14.00">19</text>
</g>
<!-- 18&#45;&gt;19 -->
<g id="edge26" class="edge"><title>18&#45;&gt;19</title>
<path fill="none" stroke="black" d="M89.651,-431.697C89.651,-423.983 89.651,-414.712 89.651,-406.112"/>
<polygon fill="black" stroke="black" points="93.1511,-406.104 89.651,-396.104 86.1511,-406.104 93.1511,-406.104"/>
</g>
<!-- 26 -->
<g id="node28" class="node"><title>26</title>
<ellipse fill="none" stroke="black" cx="260.651" cy="-378" rx="27" ry="18"/>
<text text-anchor="middle" x="260.651" y="-374.3" font-family="Times New Roman,serif" font-size="14.00">26</text>
</g>
<!-- 25&#45;&gt;26 -->
<g id="edge33" class="edge"><title>25&#45;&gt;26</title>
<path fill="none" stroke="black" d="M214.453,-433.811C222.262,-424.546 232.398,-412.52 241.186,-402.094"/>
<polygon fill="black" stroke="black" points="244.105,-404.061 247.874,-394.159 238.753,-399.55 244.105,-404.061"/>
</g>
<!-- 20 -->
<g id="node23" class="node"><title>20</title>
<ellipse fill="none" stroke="black" cx="89.651" cy="-306" rx="27" ry="18"/>
<text text-anchor="middle" x="89.651" y="-302.3" font-family="Times New Roman,serif" font-size="14.00">20</text>
</g>
<!-- 19&#45;&gt;20 -->
<g id="edge27" class="edge"><title>19&#45;&gt;20</title>
<path fill="none" stroke="black" d="M89.651,-359.697C89.651,-351.983 89.651,-342.712 89.651,-334.112"/>
<polygon fill="black" stroke="black" points="93.1511,-334.104 89.651,-324.104 86.1511,-334.104 93.1511,-334.104"/>
</g>
<!-- 21 -->
<g id="node24" class="node"><title>21</title>
<ellipse fill="none" stroke="black" cx="89.651" cy="-234" rx="27" ry="18"/>
<text text-anchor="middle" x="89.651" y="-230.3" font-family="Times New Roman,serif" font-size="14.00">21</text>
</g>
<!-- 20&#45;&gt;21 -->
<g id="edge28" class="edge"><title>20&#45;&gt;21</title>
<path fill="none" stroke="black" d="M89.651,-287.697C89.651,-279.983 89.651,-270.712 89.651,-262.112"/>
<polygon fill="black" stroke="black" points="93.1511,-262.104 89.651,-252.104 86.1511,-262.104 93.1511,-262.104"/>
</g>
<!-- 22 -->
<g id="node25" class="node"><title>22</title>
<ellipse fill="none" stroke="black" cx="89.651" cy="-162" rx="27" ry="18"/>
<text text-anchor="middle" x="89.651" y="-158.3" font-family="Times New Roman,serif" font-size="14.00">22</text>
</g>
<!-- 21&#45;&gt;22 -->
<g id="edge29" class="edge"><title>21&#45;&gt;22</title>
<path fill="none" stroke="black" d="M89.651,-215.697C89.651,-207.983 89.651,-198.712 89.651,-190.112"/>
<polygon fill="black" stroke="black" points="93.1511,-190.104 89.651,-180.104 86.1511,-190.104 93.1511,-190.104"/>
</g>
<!-- 23 -->
<g id="node26" class="node"><title>23</title>
<ellipse fill="none" stroke="black" cx="89.651" cy="-90" rx="27" ry="18"/>
<text text-anchor="middle" x="89.651" y="-86.3" font-family="Times New Roman,serif" font-size="14.00">23</text>
</g>
<!-- 22&#45;&gt;23 -->
<g id="edge30" class="edge"><title>22&#45;&gt;23</title>
<path fill="none" stroke="black" d="M89.651,-143.697C89.651,-135.983 89.651,-126.712 89.651,-118.112"/>
<polygon fill="black" stroke="black" points="93.1511,-118.104 89.651,-108.104 86.1511,-118.104 93.1511,-118.104"/>
</g>
<!-- 24 -->
<g id="node27" class="node"><title>24</title>
<ellipse fill="none" stroke="black" cx="116.651" cy="-18" rx="27" ry="18"/>
<text text-anchor="middle" x="116.651" y="-14.3" font-family="Times New Roman,serif" font-size="14.00">24</text>
</g>
<!-- 23&#45;&gt;24 -->
<g id="edge31" class="edge"><title>23&#45;&gt;24</title>
<path fill="none" stroke="black" d="M96.0496,-72.411C99.1646,-64.3352 102.985,-54.4312 106.486,-45.3547"/>
<polygon fill="black" stroke="black" points="109.777,-46.5458 110.111,-35.9562 103.246,-44.0267 109.777,-46.5458"/>
</g>
<!-- 24&#45;&gt;17 -->
<g id="edge32" class="edge"><title>24&#45;&gt;17</title>
<path fill="none" stroke="black" d="M122.183,-35.8374C130.343,-62.2129 144.651,-115.017 144.651,-161 144.651,-379 144.651,-379 144.651,-379 144.651,-419.067 141.437,-465.394 139.083,-493.946"/>
<polygon fill="black" stroke="black" points="135.591,-493.708 138.232,-503.968 142.566,-494.3 135.591,-493.708"/>
</g>
<!-- 26&#45;&gt;3 -->
<g id="edge34" class="edge"><title>26&#45;&gt;3</title>
<path fill="none" stroke="black" d="M260.651,-396.049C260.651,-422.708 260.651,-475.885 260.651,-521 260.651,-1459 260.651,-1459 260.651,-1459 260.651,-1499.77 271.901,-1545.91 280.139,-1574.23"/>
<polygon fill="black" stroke="black" points="276.893,-1575.59 283.119,-1584.16 283.598,-1573.58 276.893,-1575.59"/>
</g>
<!-- 26&#45;&gt;5 -->
<g id="edge35" class="edge"><title>26&#45;&gt;5</title>
<path fill="none" stroke="black" d="M268.159,-395.662C279.233,-421.803 298.651,-474.298 298.651,-521 298.651,-1315 298.651,-1315 298.651,-1315 298.651,-1355.29 305.481,-1401.56 310.483,-1430.04"/>
<polygon fill="black" stroke="black" points="307.067,-1430.81 312.292,-1440.03 313.955,-1429.57 307.067,-1430.81"/>
</g>
<!-- 28&#45;&gt;2 -->
<g id="edge37" class="edge"><title>28&#45;&gt;2</title>
<path fill="none" stroke="black" d="M476.399,-1258.3C484.21,-1268.41 493.799,-1282.29 499.651,-1296 515.532,-1333.2 518.651,-1344.55 518.651,-1385 518.651,-1531 518.651,-1531 518.651,-1531 518.651,-1574.7 495.716,-1621.18 479.467,-1648.62"/>
<polygon fill="black" stroke="black" points="476.474,-1646.8 474.256,-1657.16 482.451,-1650.45 476.474,-1646.8"/>
</g>
<!-- 28&#45;&gt;6 -->
<g id="edge38" class="edge"><title>28&#45;&gt;6</title>
<path fill="none" stroke="black" d="M437.899,-1247.57C412.042,-1253.69 373.546,-1267.28 355.651,-1296 343.678,-1315.21 350.539,-1340.95 358.842,-1359.81"/>
<polygon fill="black" stroke="black" points="355.752,-1361.46 363.224,-1368.97 362.066,-1358.44 355.752,-1361.46"/>
</g>
<!-- 31 -->
<g id="node31" class="node"><title>31</title>
<ellipse fill="none" stroke="black" cx="52.651" cy="-810" rx="27" ry="18"/>
<text text-anchor="middle" x="52.651" y="-806.3" font-family="Times New Roman,serif" font-size="14.00">31</text>
</g>
<!-- 30&#45;&gt;31 -->
<g id="edge40" class="edge"><title>30&#45;&gt;31</title>
<path fill="none" stroke="black" d="M42.7979,-864.055C44.2297,-856.346 45.9603,-847.027 47.5691,-838.364"/>
<polygon fill="black" stroke="black" points="51.0579,-838.746 49.4427,-828.275 44.1756,-837.468 51.0579,-838.746"/>
</g>
<!-- 32 -->
<g id="node32" class="node"><title>32</title>
<ellipse fill="none" stroke="black" cx="175.651" cy="-738" rx="27" ry="18"/>
<text text-anchor="middle" x="175.651" y="-734.3" font-family="Times New Roman,serif" font-size="14.00">32</text>
</g>
<!-- 31&#45;&gt;32 -->
<g id="edge41" class="edge"><title>31&#45;&gt;32</title>
<path fill="none" stroke="black" d="M72.6868,-797.597C92.7897,-786.157 123.957,-768.42 146.737,-755.455"/>
<polygon fill="black" stroke="black" points="148.664,-758.386 155.624,-750.398 145.201,-752.302 148.664,-758.386"/>
</g>
<!-- 32&#45;&gt;11 -->
<g id="edge42" class="edge"><title>32&#45;&gt;11</title>
<path fill="none" stroke="black" d="M184.713,-755.04C198.371,-780.766 222.651,-833.219 222.651,-881 222.651,-1027 222.651,-1027 222.651,-1027 222.651,-1071.24 197.631,-1117.56 179.905,-1144.82"/>
<polygon fill="black" stroke="black" points="176.879,-1143.05 174.22,-1153.31 182.694,-1146.95 176.879,-1143.05"/>
</g>
<!-- 32&#45;&gt;13 -->
<g id="edge43" class="edge"><title>32&#45;&gt;13</title>
<path fill="none" stroke="black" d="M170.587,-755.945C161.732,-803.623 148.198,-939.251 146.154,-997.676"/>
<polygon fill="black" stroke="black" points="142.648,-997.885 145.906,-1007.97 149.646,-998.053 142.648,-997.885"/>
</g>
<!-- 32&#45;&gt;13 -->
<g id="edge44" class="edge"><title>32&#45;&gt;13</title>
<path fill="none" stroke="black" d="M177.393,-756.306C176.85,-804.412 163.813,-940.001 154.436,-998.065"/>
<polygon fill="black" stroke="black" points="150.979,-997.517 152.732,-1007.97 157.877,-998.705 150.979,-997.517"/>
</g>
<!-- 32&#45;&gt;15 -->
<g id="edge45" class="edge"><title>32&#45;&gt;15</title>
<path fill="none" stroke="black" d="M163.066,-721.811C155.389,-712.546 145.425,-700.52 136.786,-690.094"/>
<polygon fill="black" stroke="black" points="139.287,-687.626 130.212,-682.159 133.897,-692.093 139.287,-687.626"/>
</g>
</g>
</svg>
